<svg width="28" height="29" viewBox="0 0 28 29" fill="none" xmlns="http://www.w3.org/2000/svg">
<circle cx="13.8792" cy="14.4396" r="13.441" fill="#FBBE07" stroke="#FFFFFE" stroke-width="0.478003"/>
<path d="M9.95703 12.2141C9.95703 11.8621 10.2424 11.5767 10.5944 11.5767H11.6219C11.6395 11.5767 11.6538 11.5625 11.6538 11.5449V10.5173C11.6538 10.1654 11.9391 9.88 12.2911 9.88H14.1989H16.1067C16.4587 9.88 16.744 10.1654 16.744 10.5173V11.5449C16.744 11.5625 16.7583 11.5767 16.7759 11.5767H17.8034C18.1554 11.5767 18.4408 11.8621 18.4408 12.2141V17.7264C18.4408 18.0784 18.1554 18.3637 17.8034 18.3637H10.5944C10.2424 18.3637 9.95703 18.0784 9.95703 17.7264V12.2141Z" stroke="#FFFFFE" stroke-width="0.637337"/>
<circle cx="14.408" cy="14.3336" r="2.12093" stroke="#FFFFFE" stroke-width="0.637337"/>
</svg>
