<svg width="20" height="20" viewBox="0 0 20 20" fill="none" xmlns="http://www.w3.org/2000/svg">
<path d="M1.66675 16.6666H18.3334V18.3333H1.66675V16.6666ZM3.33341 9.99996H5.00008V15.8333H3.33341V9.99996ZM7.50008 9.99996H9.16675V15.8333H7.50008V9.99996ZM10.8334 9.99996H12.5001V15.8333H10.8334V9.99996ZM15.0001 9.99996H16.6667V15.8333H15.0001V9.99996ZM1.66675 5.83329L10.0001 1.66663L18.3334 5.83329V9.16663H1.66675V5.83329ZM3.33341 6.86329V7.49996H16.6667V6.86329L10.0001 3.52996L3.33341 6.86329ZM10.0001 6.66663C9.77907 6.66663 9.56711 6.57883 9.41083 6.42255C9.25455 6.26627 9.16675 6.05431 9.16675 5.83329C9.16675 5.61228 9.25455 5.40032 9.41083 5.24404C9.56711 5.08776 9.77907 4.99996 10.0001 4.99996C10.2211 4.99996 10.4331 5.08776 10.5893 5.24404C10.7456 5.40032 10.8334 5.61228 10.8334 5.83329C10.8334 6.05431 10.7456 6.26627 10.5893 6.42255C10.4331 6.57883 10.2211 6.66663 10.0001 6.66663Z" fill="#414141"/>
</svg>
