<svg width="20" height="19" viewBox="0 0 20 19" fill="none" xmlns="http://www.w3.org/2000/svg">
<path d="M8.35 17.15V14.6H2.7C1.76112 14.6 1 13.8389 1 12.9V2.7C1 1.76112 1.76112 1 2.7 1H17.4C18.3389 1 19.1 1.76112 19.1 2.7V12.9C19.1 13.8389 18.3389 14.6 17.4 14.6H11.75V17.15H14.3V18H5.8V17.15H8.35ZM10.9 17.15V14.6H9.2V17.15H10.9ZM11.75 13.75H17.4C17.8694 13.75 18.25 13.3694 18.25 12.9V2.7C18.25 2.23056 17.8694 1.85 17.4 1.85H2.7C2.23056 1.85 1.85 2.23056 1.85 2.7V12.9C1.85 13.3694 2.23056 13.75 2.7 13.75H8.35H11.75Z" fill="#2F2D51" stroke="#2F2D51" stroke-width="0.25"/>
</svg>
