<svg width="20" height="20" viewBox="0 0 20 20" fill="none" xmlns="http://www.w3.org/2000/svg">
<path d="M10 -0.00012207C15.523 -0.00012207 20 4.47688 20 9.99988C20 15.5229 15.523 19.9999 10 19.9999C4.477 19.9999 0 15.5229 0 9.99988H2C2 14.4179 5.582 17.9999 10 17.9999C14.418 17.9999 18 14.4179 18 9.99988C18 5.58188 14.418 1.99988 10 1.99988C7.25 1.99988 4.824 3.38688 3.385 5.49988H6V7.49988H0V1.49988H2V3.99988C3.824 1.56988 6.729 -0.00012207 10 -0.00012207ZM11 4.99988V9.58488L14.243 12.8279L12.828 14.2429L9 10.4129V4.99988H11Z" fill="black"/>
</svg>
