<svg width="19" height="20" viewBox="0 0 19 20" fill="none" xmlns="http://www.w3.org/2000/svg">
<path d="M18.1818 18.547C17.8194 19.6384 17.0609 20.0093 15.9173 19.9998C11.2436 19.9582 6.56874 19.9856 1.89385 19.9796C0.732301 19.9784 -0.0141514 19.2865 0.000203426 18.2569C0.0145583 17.2654 0.769384 16.5794 1.89624 16.571C3.56021 16.5592 5.22417 16.5675 6.88694 16.5675C9.8584 16.5675 12.8299 16.596 15.8001 16.5532C16.9306 16.5366 17.7512 16.8766 18.1806 17.9561C18.1818 18.1535 18.1818 18.3496 18.1818 18.547Z" fill="#BDBDBD"/>
<path d="M7.36783 9.14519C7.36783 6.66634 7.36305 4.18749 7.37022 1.70864C7.37262 0.824102 8.00423 0.130975 8.87748 0.013274C9.67418 -0.0937268 10.4828 0.456732 10.7065 1.28302C10.7723 1.52555 10.7927 1.78711 10.7927 2.03915C10.7986 4.1863 10.7962 6.33345 10.7962 8.4806C10.7962 8.6946 10.7962 8.90979 10.7962 9.2189C10.9733 9.07742 11.0941 8.99658 11.1946 8.89671C12.0655 8.03595 12.9291 7.16806 13.8024 6.30848C14.6254 5.49884 15.6566 5.45129 16.3767 6.18008C17.0813 6.89342 17.037 7.90993 16.2475 8.69817C14.3048 10.6384 12.3573 12.574 10.4063 14.5059C9.54618 15.3584 8.60115 15.3667 7.74704 14.5226C5.78282 12.5799 3.82099 10.6301 1.86633 8.67439C1.10912 7.91587 1.06964 6.89461 1.74312 6.1991C2.45129 5.46912 3.47767 5.48101 4.27077 6.25855C5.26724 7.23701 6.24337 8.23687 7.22787 9.22723C7.27452 9.19988 7.32118 9.17254 7.36783 9.14519Z" fill="#BDBDBD"/>
</svg>
