<svg width="121" height="148" viewBox="0 0 121 148" fill="none" xmlns="http://www.w3.org/2000/svg">
<path fill-rule="evenodd" clip-rule="evenodd" d="M31.3194 9.47344C1.50296 21.1112 -13.8937 60.7178 16.6448 100.622C106.158 217.551 191.126 -52.899 31.3194 9.47344Z" fill="#4D2456"/>
<path d="M38.9434 29.2452C38.9434 25.1253 38.9434 21.0266 38.9434 16.9279C38.9434 14.6556 40.7697 12.5531 43.0421 12.2346C49.5618 11.3426 56.0814 10.4507 62.6011 9.55875C64.8735 9.2402 66.6998 10.833 66.6998 13.1053C66.6998 17.204 66.6998 21.3239 66.6998 25.4226C66.6998 27.695 64.8735 29.7974 62.6011 30.0947C58.6511 30.6469 54.7011 31.1778 50.7298 31.73C51.3032 35.4039 51.8553 39.0779 52.4075 42.7518C49.7741 39.3752 47.1408 35.9773 44.4862 32.5794C44.019 32.6644 43.5305 32.7281 43.0421 32.7918C40.7697 33.0891 38.9434 31.5176 38.9434 29.2452Z" fill="#4D2456"/>
<path d="M38.4121 29.2449V16.9275C38.4121 15.6533 38.9218 14.4428 39.75 13.5084C40.5783 12.574 41.7038 11.9157 42.978 11.7458L62.5371 9.0487C62.7495 9.02746 62.9618 9.00623 63.153 9.00623C64.1936 9.00623 65.128 9.36725 65.85 9.98312C66.5508 10.599 67.0393 11.4697 67.1667 12.4891C67.2092 12.6802 67.2304 12.8926 67.2304 13.1049V25.4223C67.2304 26.6965 66.7207 27.907 65.8925 28.8414C65.0643 29.7758 63.9175 30.4341 62.6645 30.604L51.3241 32.1756L52.9168 42.6878C52.9593 42.9638 52.7682 43.2187 52.4921 43.2612C52.2797 43.3036 52.0886 43.1974 51.9824 43.0276L44.2735 33.1312L43.1054 33.3011C42.8931 33.3223 42.6807 33.3436 42.4896 33.3436C41.449 33.3436 40.5146 32.9826 39.7925 32.3667C39.0917 31.7508 38.6032 30.8801 38.4546 29.8607C38.4333 29.6484 38.4121 29.4572 38.4121 29.2449ZM39.4527 16.9275V29.2449C39.4527 29.4148 39.4527 29.5634 39.4739 29.7121C39.5801 30.4979 39.9412 31.135 40.4721 31.5809C41.003 32.0481 41.7038 32.303 42.4896 32.303C42.6595 32.303 42.8081 32.303 42.978 32.2817L44.4221 32.0694C44.592 32.0481 44.7831 32.1331 44.8893 32.2817L51.6002 40.8826L50.2198 31.7933C50.1985 31.5172 50.3897 31.2624 50.6657 31.2199L62.5371 29.5847C63.5352 29.4572 64.4484 28.9263 65.1067 28.1618C65.7863 27.3973 66.1898 26.4416 66.1898 25.4223V13.1049C66.1898 12.935 66.1686 12.7651 66.1686 12.6165C66.0624 11.852 65.7014 11.2149 65.1705 10.7476C64.6395 10.3017 63.9387 10.0256 63.153 10.0256C62.9831 10.0256 62.8344 10.0468 62.6645 10.0681L43.1054 12.7439C42.1073 12.8926 41.1941 13.4235 40.5358 14.188C39.8562 14.9525 39.4527 15.9082 39.4527 16.9275Z" fill="#FBBE07"/>
<path d="M83.5189 38.0791C83.5189 33.9804 83.5189 29.8605 83.5189 25.7618C83.5189 23.4895 81.6713 21.3445 79.399 20.9623C72.8793 19.9004 66.3596 18.8386 59.8399 17.7555C57.5888 17.3945 55.7412 18.9235 55.7412 21.1959C55.7412 25.3158 55.7412 29.4145 55.7412 33.5132C55.7412 35.7856 57.5888 37.9305 59.8399 38.3127C60.3284 38.3764 60.8168 38.4614 61.3052 38.5463C60.031 40.0966 58.7781 41.6257 57.5251 43.176C60.8593 41.9655 64.1935 40.7762 67.5489 39.5657C71.4989 40.224 75.4489 40.8611 79.399 41.5195C81.6713 41.8805 83.5189 40.3515 83.5189 38.0791Z" fill="#FBBE07"/>
<path d="M34.3778 70.635C32.6363 70.635 31.0436 69.9341 29.6207 68.575C28.389 67.3433 27.7731 65.9629 27.7731 64.4126C27.7731 62.8835 28.304 61.3757 29.3446 59.8467L29.6844 59.2733L28.8137 58.6999C26.8175 57.3195 25.8193 55.6418 25.8193 53.6455C25.8193 53.0509 25.9043 52.435 26.0954 51.7979C27.1573 47.7842 29.7269 45.257 33.7831 44.2164C34.3353 44.089 34.9087 44.0465 35.4608 44.0465C36.7138 44.0465 37.9455 44.3438 39.156 44.9809C40.0905 45.4694 40.8337 46.1702 41.4071 47.0621C41.8956 48.039 42.1292 48.9522 42.1292 49.8229C42.1292 51.0334 41.6195 52.1377 40.5577 53.0721C39.241 54.2614 37.6907 54.856 35.8856 54.856C34.8025 54.856 33.9318 54.5162 33.2734 53.8367C32.8487 53.3482 32.6363 52.8385 32.6363 52.3289C32.6363 51.4157 33.1248 50.7786 34.0804 50.46C34.2291 50.3963 34.399 50.3751 34.5477 50.3751C34.8874 50.3751 35.206 50.4813 35.5245 50.6724C35.8431 50.8635 36.1192 50.9485 36.3953 50.9485C36.82 50.9485 37.266 50.7786 37.7332 50.4175C38.0942 50.1415 38.2853 49.8654 38.2853 49.5468C38.2853 49.2708 38.1367 48.9947 37.8394 48.6974C37.1173 48.1027 36.3528 47.8054 35.5245 47.8054C35.206 47.8054 34.8874 47.8479 34.5477 47.9328C32.0842 48.6549 30.5339 50.2477 29.8543 52.6899C29.7906 52.9872 29.7481 53.2633 29.7481 53.4969C29.7481 54.9835 30.81 55.8754 32.9337 56.1939C33.953 56.3426 34.6114 56.47 34.9299 56.555C35.6732 56.8735 36.0979 57.2346 36.1617 57.6168C36.2254 57.9991 36.2678 58.2539 36.2678 58.3389C36.2678 59.1671 35.7369 59.8467 34.6963 60.3564C33.5495 60.9085 32.6788 61.6943 32.1054 62.7136C31.7656 63.3083 31.5957 63.8604 31.5957 64.3913C31.5957 64.7736 31.7444 65.1983 32.063 65.6231C32.7001 66.4088 33.4646 66.7911 34.3565 66.7911C34.6114 66.7911 34.9087 66.7699 35.1848 66.7062C37.0536 66.0691 37.9668 65.0709 37.9668 63.7118L37.9455 63.0747C38.073 61.8429 38.7101 61.2058 39.8144 61.1634C40.2391 61.1634 40.6426 61.312 41.0036 61.5881C41.5133 62.0128 41.7682 62.7349 41.7682 63.7118C41.7682 64.1153 41.7257 64.5188 41.6407 64.9223C40.9824 67.6618 39.3259 69.4457 36.6289 70.2527C35.8431 70.5075 35.0998 70.635 34.3778 70.635ZM46.1217 70.8261C45.8881 70.8261 45.6333 70.7836 45.3572 70.6987C44.5502 70.3801 44.1467 69.8067 44.1467 68.9785C44.1467 68.3414 45.5058 65.0922 48.2029 59.2733C45.3784 52.4987 43.8069 48.9097 43.5521 48.5275C43.191 47.9541 43.0211 47.4444 43.0211 46.9984C43.0211 46.4463 43.2547 45.9791 43.7219 45.5756C44.1042 45.2995 44.5289 45.1508 44.9962 45.1508C45.8881 45.1933 46.6101 45.8092 47.1835 47.0197C48.2454 49.5044 49.3072 52.0103 50.3266 54.5162C50.7088 53.9853 51.8769 51.5431 53.8094 47.1896C54.2766 45.9791 54.935 45.3844 55.8269 45.3844C56.1667 45.3844 56.4853 45.4906 56.8038 45.6817C57.3984 46.064 57.6745 46.5737 57.6745 47.1896C57.6745 47.678 57.4834 48.3576 57.0799 49.1858C55.6783 52.2014 54.1704 55.5781 52.5352 59.337L55.6358 65.6656C56.2941 66.961 56.6339 67.8529 56.6339 68.3839C56.6339 69.0634 56.2941 69.6156 55.6358 69.9766C55.3172 70.1253 55.0199 70.189 54.7651 70.189C54.1067 70.189 53.5546 69.828 53.0874 69.0847C52.5989 68.214 52.1317 67.322 51.7282 66.4301C51.3035 65.5381 50.8575 64.6462 50.3691 63.7755C48.9037 67.0247 48.1392 68.7874 48.0755 69.0422C47.5446 70.2315 46.8862 70.8261 46.1217 70.8261ZM71.4784 72.4401C70.8413 72.4189 70.3741 72.2065 70.0343 71.8242C69.6945 71.4207 69.5246 70.9323 69.5034 70.3164L69.4609 67.4707C68.5053 67.7892 67.5284 68.0653 66.5727 68.3414C65.9993 68.49 65.3622 68.575 64.7039 68.575C64.1305 68.575 63.5571 68.5113 62.9837 68.3839C60.7326 67.8105 59.5858 66.4938 59.5858 64.3913C59.5858 63.6056 59.8194 62.7986 60.3079 61.9916C61.752 59.8254 64.1942 58.6149 67.6558 58.3813L69.9706 58.2752C70.0343 57.5106 70.0556 56.7673 70.0556 56.0241C69.9281 51.1184 69.2061 48.6761 67.8894 48.6761C67.401 48.6761 66.8276 48.9522 66.1692 49.5468C64.1942 51.2458 62.7713 53.3482 61.8794 55.8117C61.4971 57.1284 60.8176 57.7655 59.8194 57.7655C59.692 57.7655 59.5646 57.7655 59.4584 57.7442C58.524 57.4469 58.0568 56.7886 58.0568 55.7905C58.0568 55.4294 58.0993 55.0896 58.2267 54.7498C59.2885 51.5431 61.0936 48.8673 63.6633 46.7011C65.1711 45.4694 66.6364 44.8323 68.0593 44.811C69.5034 44.811 70.7564 45.4694 71.8182 46.7861C73.1986 48.7823 73.8994 51.7767 73.8994 55.7905C73.8994 56.5974 73.7508 60.1228 73.4959 66.3876C73.4534 68.1078 73.3685 69.5094 73.2836 70.5925C73.1137 71.7817 72.4978 72.3976 71.4784 72.4401ZM64.4915 64.7524L64.895 64.7099C66.6152 64.5188 68.1867 64.1153 69.5884 63.5419L69.6308 62.3101C69.0574 62.204 68.5902 62.1615 68.2929 62.1615C67.0612 62.1615 65.8719 62.4376 64.7676 62.9685C64.0243 63.372 63.6633 63.7967 63.6633 64.2215C63.6633 64.5612 63.9394 64.7524 64.4915 64.7524ZM95.476 69.9129C94.3504 69.8704 93.7558 69.2546 93.6921 68.0653C93.6921 66.0053 93.7983 62.7349 93.9894 58.2114L94.0319 56.1515C94.0319 54.2189 93.8832 53.242 93.5647 53.242C92.8214 53.242 91.9932 56.3214 91.0375 62.5013L90.5066 66.1328C90.2942 67.5132 89.6146 68.214 88.5316 68.214C87.2786 68.1078 86.6415 67.322 86.6415 65.8142C86.4291 55.4931 86.0256 50.3114 85.4735 50.3114C85.1549 50.3114 84.7302 51.0334 84.1993 52.4987C83.0312 55.7692 82.3729 60.6961 82.1818 67.3008C82.1181 68.8723 81.481 69.7005 80.2705 69.828C79.3148 69.828 78.6777 69.382 78.3591 68.4688C78.1255 67.6406 77.9556 66.8123 77.8282 65.9629C76.639 60.0166 75.9169 54.3888 75.6621 49.1009C75.6621 48.6761 75.747 48.2726 75.8957 47.8479C76.0443 47.4444 76.2779 47.1258 76.5965 46.9135C76.915 46.7011 77.2548 46.5949 77.6159 46.5949C78.6565 46.6374 79.2511 47.2108 79.421 48.3363L79.9731 54.2189C81.2261 50.3538 82.203 47.9966 82.8826 47.1258C83.7108 46.1914 84.6028 45.7242 85.5797 45.7242C86.7052 45.7455 87.6609 46.3401 88.4041 47.5293C88.9138 48.4638 89.381 49.8866 89.8058 51.7979C90.2305 50.9697 90.6128 50.3114 90.9738 49.8229C91.8657 48.3151 92.8639 47.5718 93.9682 47.5718C94.9238 47.5718 95.7308 47.9966 96.3892 48.846C97.09 49.9716 97.4723 51.2033 97.5147 52.5412C97.6209 53.8154 97.6634 55.2171 97.6634 56.7673C97.6422 60.2502 97.5997 63.6268 97.5147 66.8548C97.5147 68.8935 96.8352 69.9129 95.476 69.9129Z" fill="white"/>
<path d="M35.2272 107.014C34.4202 107.014 33.7618 106.589 33.2097 105.74C33.0185 105.315 32.8911 104.912 32.8274 104.487C31.5107 99.6874 30.8524 94.6755 30.8524 89.4301C30.8524 86.1596 31.0435 82.7192 31.4258 79.1302L30.3427 79.024C29.111 78.6842 28.4526 77.9409 28.4102 76.7729C28.4102 74.8404 30.5338 73.8847 34.7812 73.8847C36.2678 73.8847 37.7543 74.0546 39.2409 74.4156C43.6794 75.7111 46.5251 78.6205 47.7569 83.1015C47.9268 83.8872 48.0117 84.6518 48.0117 85.4163C48.0117 86.7967 47.7356 88.1558 47.1835 89.4725C45.3783 93.8048 42.3203 96.8629 38.0092 98.6256C37.6057 98.8167 37.1172 99.0503 36.5014 99.3264C37.2234 102.682 37.5844 104.444 37.5844 104.614C37.5844 105.145 37.4358 105.612 37.1385 106.016C36.6713 106.674 36.0342 107.014 35.2272 107.014ZM36.0129 94.272C36.1616 94.2508 36.3102 94.1871 36.4589 94.1021C39.1984 92.9766 41.1947 91.0865 42.4689 88.4107C42.9998 87.3064 43.2547 86.2445 43.2547 85.2676C43.2547 83.4413 42.4052 81.806 40.685 80.3832C39.4958 79.3001 38.1154 78.7692 36.5438 78.7692C36.2465 79.8735 36.0129 81.4663 35.8218 83.5899C35.6519 85.6924 35.567 87.7736 35.567 89.8123C35.567 91.851 35.6519 93.3164 35.843 94.2296L36.0129 94.272ZM65.6382 108.097C64.8525 108.055 64.2579 107.8 63.8544 107.333C63.4296 106.844 63.2173 106.228 63.196 105.485L63.1535 101.96C61.9643 102.363 60.775 102.703 59.5858 103.043C58.8637 103.234 58.0992 103.34 57.2709 103.34C56.5914 103.34 55.8906 103.255 55.1685 103.085C52.3865 102.406 50.9849 100.749 50.9849 98.1584C50.9849 97.2027 51.2822 96.2258 51.8556 95.2277C53.6395 92.5519 56.6763 91.0653 60.9024 90.768L63.7694 90.6405C63.8544 89.7061 63.8968 88.7717 63.8968 87.8585C63.7269 81.8273 62.835 78.8117 61.1998 78.8117C60.6051 78.8117 59.8831 79.1727 59.0973 79.8735C56.6763 81.9759 54.8924 84.5456 53.7881 87.6249C53.3209 89.2177 52.4927 90.0247 51.2822 90.0247C51.1123 90.0247 50.9636 90.0034 50.815 89.9822C49.6682 89.6212 49.0735 88.8142 49.0735 87.5825C49.0735 87.1365 49.1585 86.7117 49.2859 86.287C50.6238 82.3582 52.8537 79.0453 55.9967 76.3694C57.8656 74.8404 59.6707 74.0759 61.4121 74.0546C63.196 74.0546 64.7463 74.8616 66.0417 76.4968C67.7407 78.9391 68.6114 82.6343 68.6114 87.5825C68.6114 88.5593 68.4415 92.9341 68.1017 100.643C68.0592 102.767 67.9743 104.487 67.8681 105.825C67.6345 107.269 66.8912 108.033 65.6382 108.097ZM57.0161 98.6256L57.5258 98.5831C59.6495 98.3283 61.582 97.8398 63.3022 97.139L63.3447 95.5887C62.6439 95.4825 62.0917 95.4401 61.6882 95.4401C60.1804 95.4401 58.7363 95.7586 57.3559 96.417C56.4427 96.9266 55.9967 97.4363 55.9967 97.946C55.9967 98.392 56.3365 98.6256 57.0161 98.6256ZM76.5115 105.145C74.6639 105.145 73.4959 104.19 72.9862 102.257C72.2641 99.0928 71.9031 95.5462 71.8819 91.6387C71.8819 88.1346 72.073 84.6093 72.4977 81.084C72.6039 80.5318 72.6676 79.916 72.6676 79.2152L71.988 79.2576C70.1404 79.2576 69.206 78.4931 69.1848 76.9853C69.1848 75.9659 69.6945 75.2439 70.7138 74.7979C71.2448 74.5643 72.2641 74.4581 73.7719 74.4581C78.1892 74.4581 82.0968 75.9447 85.5159 78.9391C88.6164 81.6362 90.1455 84.8429 90.1455 88.5593C90.1455 89.6424 90.0393 90.768 89.7845 91.9148C88.6589 96.6506 86.068 100.431 82.0543 103.213C80.3978 104.36 78.5502 105.018 76.5115 105.145ZM77.4671 100.24C81.8631 98.6256 84.4965 95.2914 85.346 90.2158C85.4309 89.6637 85.4734 89.154 85.4734 88.6443C85.4734 86.3082 84.539 84.2907 82.6701 82.613C81.2685 81.3813 79.5059 80.4681 77.4247 79.916C76.8725 83.2501 76.5964 86.6056 76.5964 89.9822C76.5964 93.4013 76.8725 96.8205 77.4671 100.24ZM96.9413 106.016C95.4122 106.016 94.4778 104.805 94.0743 102.384C93.3735 97.7973 92.9912 93.0403 92.97 88.0709C92.97 84.6305 93.3098 82.5918 94.0106 81.9972C94.4353 81.6362 94.945 81.445 95.5396 81.445C97.0262 81.4875 97.7695 82.3582 97.812 84.0571C97.8544 85.4163 97.8969 86.7967 97.8969 88.1983V89.1964C97.8969 94.1871 98.2792 98.7742 99.0862 103C99.1499 103.298 99.1711 103.574 99.1711 103.829C99.1711 104.869 98.6614 105.57 97.6421 105.931C97.3872 105.995 97.1536 106.016 96.9413 106.016ZM96.113 79.47C95.1361 79.4488 94.3929 78.9603 93.8407 78.0259C93.6071 77.5799 93.5009 77.134 93.5009 76.688C93.5009 75.5624 93.9681 74.6917 94.8601 74.0546C95.2848 73.7785 95.7095 73.6299 96.1555 73.6299C96.5165 73.6299 96.8776 73.7361 97.2173 73.9272C98.1305 74.3944 98.5977 75.2651 98.5977 76.5393C98.5553 77.3038 98.4066 77.8772 98.1305 78.2595C97.5784 79.0665 96.92 79.47 96.113 79.47Z" fill="#FBBE07"/>
<path d="M67.9736 25.9318C67.6975 25.8681 67.5064 25.6132 67.5489 25.3371C67.5914 25.0611 67.8674 24.8699 68.1435 24.9124L77.6151 26.4627C77.8912 26.5052 78.0823 26.76 78.0398 27.0573C77.9974 27.3334 77.7213 27.5245 77.4452 27.4821L67.9736 25.9318Z" fill="#4D2456"/>
<path d="M60.2439 29.2453C59.9678 29.2028 59.7767 28.9267 59.8404 28.6507C59.8829 28.3746 60.159 28.1835 60.4351 28.2472L77.6156 31.3477C77.8917 31.3902 78.0828 31.645 78.0403 31.9424C77.9766 32.2184 77.7218 32.3883 77.4457 32.3459L60.2439 29.2453Z" fill="#4D2456"/>
<path d="M60.2439 34.1293C59.9678 34.0868 59.7767 33.8107 59.8404 33.5346C59.8829 33.2586 60.159 33.0674 60.4351 33.1099L77.6156 36.2105C77.8917 36.2742 78.0828 36.529 78.0403 36.8051C77.9766 37.0812 77.7218 37.2723 77.4457 37.2298L60.2439 34.1293Z" fill="#4D2456"/>
<path d="M62.5801 15.1862C62.8562 15.1437 63.111 15.3349 63.1535 15.6109C63.196 15.9083 63.0048 16.1631 62.7075 16.2056L43.6369 18.8814C43.3608 18.9239 43.106 18.7327 43.0635 18.4567C43.021 18.1806 43.2122 17.9045 43.5095 17.862L62.5801 15.1862Z" fill="#FBBE07"/>
<path d="M53.1722 21.3238C53.4483 21.3025 53.7032 21.4936 53.7456 21.7697C53.7881 22.0458 53.597 22.3006 53.3209 22.3431L43.6369 23.766C43.3608 23.8085 43.106 23.6173 43.0635 23.3412C43.0211 23.0439 43.2122 22.7891 43.4883 22.7466L53.1722 21.3238Z" fill="#FBBE07"/>
<path d="M49.7956 26.6113C50.0929 26.5688 50.3477 26.7599 50.3902 27.036C50.4327 27.3121 50.2416 27.5881 49.9655 27.6306L43.6582 28.65C43.3821 28.6925 43.106 28.5013 43.0635 28.2253C43.0211 27.9279 43.2122 27.6731 43.4883 27.6306L49.7956 26.6113Z" fill="#FBBE07"/>
<path d="M33.486 142.883V142.522C33.486 141.206 33.0613 140.123 31.9145 140.123C30.8527 140.123 30.1943 141.206 30.1943 142.756C30.1943 144.37 30.8314 145.347 31.9145 145.347C32.6366 145.347 33.1038 144.901 33.3374 144.306L32.8489 144.03C32.7003 144.434 32.4242 144.752 31.9358 144.752C31.2137 144.752 30.8527 143.966 30.8527 142.883H33.486ZM32.8277 142.331H30.8527C30.8527 141.758 31.1288 140.696 31.8933 140.696C32.5304 140.696 32.8277 141.354 32.8277 142.331ZM37.4361 145.198L36.0982 142.607L37.2874 140.292H36.5654L35.7159 142.14L34.8664 140.292H34.1231L35.3336 142.607L34.017 145.198H34.739L35.7159 143.138L36.6928 145.198H37.4361ZM40.9826 145.198C40.9614 144.986 40.9401 144.412 40.9401 144.157V142.098C40.9401 140.823 40.5366 140.123 39.496 140.123C39.0288 140.123 38.4767 140.377 38.1794 140.802L38.5192 141.227C38.7528 140.908 39.0713 140.696 39.4536 140.696C39.9845 140.696 40.3243 141.078 40.3243 141.928V142.182H39.942C39.135 142.182 38.0095 142.459 38.0095 143.881C38.0095 144.901 38.6253 145.326 39.1775 145.326C39.8146 145.326 40.2181 144.964 40.3668 144.285H40.388C40.388 144.519 40.388 144.986 40.4092 145.198H40.9826ZM40.3455 143.032C40.3455 143.796 40.0907 144.795 39.3474 144.795C38.9864 144.795 38.6253 144.497 38.6253 143.818C38.6253 142.883 39.3049 142.692 39.942 142.692H40.3455V143.032ZM43.0426 141.248H43.0214C43.0214 140.93 43.0214 140.526 43.0001 140.292H42.363C42.3843 140.484 42.4055 141.099 42.4055 141.524V145.198H43.0426V142.374C43.0426 141.482 43.4249 140.696 44.062 140.696C44.7415 140.696 44.8265 141.418 44.8265 142.034V145.198H45.4848V142.374C45.4848 141.482 45.8458 140.696 46.5042 140.696C47.1838 140.696 47.2687 141.418 47.2687 142.034V145.198H47.9271V142.034C47.9271 141.121 47.7572 140.123 46.6953 140.123C45.9945 140.123 45.5698 140.675 45.3999 141.248H45.3786C45.2937 140.653 44.9964 140.123 44.2743 140.123C43.616 140.123 43.1912 140.59 43.0426 141.248ZM51.686 140.717C51.4311 140.356 51.0276 140.123 50.4755 140.123C49.7109 140.123 49.1163 140.696 49.1163 141.524C49.1163 142.374 49.6048 142.692 50.0932 142.862C50.5604 143.053 51.0064 143.244 51.0064 143.881C51.0064 144.434 50.6878 144.795 50.2419 144.795C49.8171 144.795 49.4986 144.561 49.2862 144.221L48.9039 144.646C49.2013 145.071 49.6897 145.347 50.2419 145.347C51.0489 145.347 51.6435 144.795 51.6435 143.839C51.6435 142.968 51.0701 142.607 50.5392 142.395C50.0083 142.204 49.7534 142.013 49.7534 141.503C49.7534 140.993 50.0507 140.653 50.4755 140.653C50.8365 140.653 51.1126 140.845 51.2825 141.142L51.686 140.717ZM55.3812 138.785C55.3812 138.509 55.2113 138.296 54.9564 138.296C54.7228 138.296 54.5317 138.509 54.5317 138.785C54.5317 139.061 54.7228 139.252 54.9564 139.252C55.2113 139.252 55.3812 139.061 55.3812 138.785ZM55.2962 145.92V140.292H54.6379V145.878C54.6379 146.451 54.5105 146.961 54.0008 146.961C53.9158 146.961 53.7884 146.961 53.7035 146.918L53.6397 147.513C53.7672 147.555 53.9158 147.577 54.0432 147.577C54.9352 147.577 55.2962 146.918 55.2962 145.92ZM56.7616 140.292V143.457C56.7616 144.37 56.9314 145.347 57.9933 145.347C58.6304 145.347 59.0551 144.901 59.2463 144.242H59.2675C59.2675 144.561 59.2887 144.943 59.31 145.198H59.9471C59.9258 145.007 59.9046 144.37 59.9046 143.966V140.292H59.2463V143.117C59.2463 144.009 58.8428 144.773 58.1844 144.773C57.5261 144.773 57.4199 144.051 57.4199 143.457V140.292H56.7616ZM63.7272 140.717C63.4724 140.356 63.0689 140.123 62.5167 140.123C61.7522 140.123 61.1576 140.696 61.1576 141.524C61.1576 142.374 61.646 142.692 62.1345 142.862C62.6017 143.053 63.0476 143.244 63.0476 143.881C63.0476 144.434 62.7291 144.795 62.2831 144.795C61.8584 144.795 61.5611 144.561 61.3275 144.221L60.9452 144.646C61.2425 145.071 61.731 145.347 62.2831 145.347C63.0901 145.347 63.6847 144.795 63.6847 143.839C63.6847 142.968 63.1114 142.607 62.5804 142.395C62.0495 142.204 61.7947 142.013 61.7947 141.503C61.7947 140.993 62.092 140.653 62.5167 140.653C62.8777 140.653 63.1751 140.845 63.3237 141.142L63.7272 140.717ZM66.4243 145.198L66.4031 144.667C66.2969 144.71 66.1482 144.752 66.042 144.752C65.681 144.752 65.5323 144.497 65.5323 143.903V140.823H66.4031V140.292H65.5323V138.933H64.874V140.292H64.2369V140.823H64.8952V144.03C64.8952 144.816 65.1501 145.326 65.8297 145.326C66.042 145.326 66.2756 145.262 66.4243 145.198ZM72.2219 145.134V140.292H71.5848V141.121H71.5636C71.4149 140.526 70.9902 140.123 70.3956 140.123C69.3762 140.123 68.8453 141.206 68.8453 142.713C68.8453 144.242 69.3974 145.347 70.3956 145.347C71.0751 145.347 71.4149 144.901 71.5636 144.306H71.5848V145.134C71.5848 146.196 71.3725 146.982 70.5018 146.982C70.0133 146.982 69.5886 146.706 69.3337 146.302L68.909 146.748C69.2275 147.258 69.8434 147.577 70.4805 147.577C71.8397 147.577 72.2219 146.515 72.2219 145.134ZM71.5848 142.735C71.5848 143.881 71.245 144.773 70.5442 144.773C69.8222 144.773 69.5036 143.881 69.5036 142.735C69.5036 141.588 69.8222 140.696 70.5442 140.696C71.245 140.696 71.5848 141.588 71.5848 142.735ZM76.8728 142.756C76.8728 141.184 76.2357 140.123 75.1738 140.123C74.0695 140.123 73.4537 141.184 73.4537 142.756C73.4537 144.306 74.112 145.347 75.1738 145.347C76.2357 145.347 76.8728 144.306 76.8728 142.756ZM76.2144 142.735C76.2144 143.881 75.8747 144.773 75.1738 144.773C74.4518 144.773 74.1332 143.881 74.1332 142.735C74.1332 141.588 74.4518 140.696 75.1738 140.696C75.8747 140.696 76.2144 141.588 76.2144 142.735ZM79.6973 145.198L79.676 144.667C79.5911 144.71 79.4424 144.752 79.315 144.752C78.9752 144.752 78.8053 144.497 78.8053 143.903V140.823H79.676V140.292H78.8053V138.933H78.1682V140.292H77.5311V140.823H78.1682V144.03C78.1682 144.816 78.4231 145.326 79.1026 145.326C79.3363 145.326 79.5699 145.262 79.6973 145.198ZM85.4312 142.883V142.522C85.4312 141.206 85.0065 140.123 83.8385 140.123C82.7766 140.123 82.1183 141.206 82.1183 142.756C82.1183 144.37 82.7554 145.347 83.8597 145.347C84.5817 145.347 85.049 144.901 85.2826 144.306L84.7941 144.03C84.6242 144.434 84.3481 144.752 83.8809 144.752C83.1376 144.752 82.7979 143.966 82.7766 142.883H85.4312ZM84.7729 142.331H82.7979C82.7979 141.758 83.0739 140.696 83.8172 140.696C84.4756 140.696 84.7729 141.354 84.7729 142.331ZM89.1689 145.198C89.1477 144.986 89.1264 144.412 89.1264 144.157V142.098C89.1264 140.823 88.7229 140.123 87.7035 140.123C87.2151 140.123 86.6629 140.377 86.3656 140.802L86.7267 141.227C86.939 140.908 87.2788 140.696 87.6398 140.696C88.1708 140.696 88.5105 141.078 88.5105 141.928V142.182H88.1283C87.3213 142.182 86.1957 142.459 86.1957 143.881C86.1957 144.901 86.8328 145.326 87.3638 145.326C88.0009 145.326 88.4044 144.964 88.553 144.285H88.5743C88.5743 144.519 88.5955 144.986 88.6167 145.198H89.1689ZM88.5318 143.032C88.5318 143.796 88.2982 144.795 87.5337 144.795C87.1726 144.795 86.8116 144.497 86.8116 143.818C86.8116 142.883 87.4912 142.692 88.1283 142.692H88.5318V143.032ZM92.8004 140.717C92.5668 140.356 92.1633 140.123 91.5899 140.123C90.8466 140.123 90.252 140.696 90.252 141.524C90.252 142.374 90.7192 142.692 91.2289 142.862C91.6961 143.053 92.142 143.244 92.142 143.881C92.142 144.434 91.8235 144.795 91.3775 144.795C90.9528 144.795 90.6342 144.561 90.4219 144.221L90.0184 144.646C90.3157 145.071 90.8254 145.347 91.3563 145.347C92.1845 145.347 92.7579 144.795 92.7579 143.839C92.7579 142.968 92.2057 142.607 91.6748 142.395C91.1439 142.204 90.8678 142.013 90.8678 141.503C90.8678 140.993 91.1864 140.653 91.5899 140.653C91.9721 140.653 92.2482 140.845 92.4181 141.142L92.8004 140.717ZM94.6692 138.785C94.6692 138.509 94.4993 138.296 94.2445 138.296C93.9896 138.296 93.7985 138.509 93.7985 138.785C93.7985 139.061 93.9896 139.252 94.2445 139.252C94.4781 139.252 94.6692 139.061 94.6692 138.785ZM94.563 145.198V140.292H93.9259V145.198H94.563ZM99.1077 142.883V142.522C99.1077 141.206 98.683 140.123 97.5149 140.123C96.4531 140.123 95.7948 141.206 95.7948 142.756C95.7948 144.37 96.4319 145.347 97.5362 145.347C98.2582 145.347 98.7254 144.901 98.959 144.306L98.4706 144.03C98.3007 144.434 98.0246 144.752 97.5574 144.752C96.8141 144.752 96.4743 143.966 96.4531 142.883H99.1077ZM98.4494 142.331H96.4743C96.4743 141.758 96.7504 140.696 97.4937 140.696C98.152 140.696 98.4494 141.354 98.4494 142.331ZM100.977 141.354H100.955C100.955 140.93 100.934 140.526 100.913 140.292H100.276C100.297 140.484 100.318 141.099 100.318 141.524V145.198H100.977V142.692C100.977 141.779 101.338 140.802 101.996 140.802C102.06 140.802 102.102 140.802 102.166 140.823V140.144C102.145 140.144 102.102 140.144 102.06 140.144C101.571 140.144 101.146 140.505 100.977 141.354Z" fill="white"/>
</svg>
