<svg width="10" height="14" viewBox="0 0 10 14" fill="none" xmlns="http://www.w3.org/2000/svg">
<path d="M0.00768774 6.91408C0.00768774 5.3909 0.0171498 3.86772 0.00295846 2.34454C-0.00271806 1.73658 0.169469 1.23137 0.729552 0.945774C1.27734 0.667718 1.79485 0.77517 2.30573 1.11638C4.59999 2.64804 6.90655 4.16368 9.20838 5.68498C10.251 6.37399 10.2661 7.43909 9.2396 8.13847C6.8829 9.74554 4.52431 11.3507 2.16571 12.955C1.2745 13.561 0.101351 13.0436 0.0398558 11.9681C-0.0254242 10.821 0.0105261 9.6673 0.0048496 8.51644C0.00201134 7.982 0.0048496 7.44663 0.0048496 6.91219C0.00579568 6.91408 0.00674166 6.91408 0.00768774 6.91408Z" fill="#828282"/>
</svg>
