<svg width="17" height="13" viewBox="0 0 17 13" fill="none" xmlns="http://www.w3.org/2000/svg">
<path d="M14.6359 0H2.36407C1.73708 0 1.13577 0.24907 0.692419 0.692419C0.249071 1.13577 0 1.73708 0 2.36407V10.1749C0 10.8019 0.249071 11.4032 0.692419 11.8466C1.13577 12.2899 1.73708 12.539 2.36407 12.539H14.6359C15.2629 12.539 15.8642 12.2899 16.3076 11.8466C16.7509 11.4032 17 10.8019 17 10.1749V2.36407C17 1.73708 16.7509 1.13577 16.3076 0.692419C15.8642 0.24907 15.2629 0 14.6359 0ZM15.818 10.1749C15.818 10.4884 15.6934 10.7891 15.4718 11.0108C15.2501 11.2324 14.9494 11.357 14.6359 11.357H2.36407C2.05057 11.357 1.74992 11.2324 1.52824 11.0108C1.30657 10.7891 1.18203 10.4884 1.18203 10.1749V2.36407C1.18203 2.05057 1.30657 1.74992 1.52824 1.52824C1.74992 1.30657 2.05057 1.18203 2.36407 1.18203H14.6359C14.9494 1.18203 15.2501 1.30657 15.4718 1.52824C15.6934 1.74992 15.818 2.05057 15.818 2.36407V10.1749ZM14.6407 2.8227C14.6869 2.88522 14.7203 2.95624 14.739 3.03169C14.7577 3.10714 14.7613 3.18554 14.7497 3.2624C14.738 3.33926 14.7114 3.41307 14.6711 3.4796C14.6309 3.54613 14.578 3.60408 14.5154 3.65012L9.76655 7.14716C9.40008 7.41866 8.95608 7.56521 8.5 7.56521C8.04392 7.56521 7.59992 7.41866 7.23345 7.14716L2.48463 3.64894C2.3616 3.55483 2.28043 3.41618 2.25859 3.26283C2.23675 3.10948 2.27598 2.95368 2.36785 2.82897C2.45972 2.70425 2.59688 2.62059 2.74981 2.59598C2.90275 2.57138 3.05923 2.6078 3.18558 2.6974L7.93381 6.19444C8.09769 6.31566 8.29615 6.38108 8.5 6.38108C8.70384 6.38108 8.90231 6.31566 9.06619 6.19444L13.8144 2.6974C13.9406 2.60447 14.0985 2.56547 14.2535 2.58897C14.4084 2.61246 14.5477 2.69654 14.6407 2.8227Z" fill="#979797"/>
</svg>
