<svg width="14" height="15" viewBox="0 0 14 15" fill="none" xmlns="http://www.w3.org/2000/svg">
<path d="M8.29283 11.058L5.31854 9.43592C4.93022 9.85104 4.42603 10.1398 3.87146 10.2646C3.3169 10.3894 2.73762 10.3445 2.2089 10.1358C1.68018 9.92704 1.22647 9.56409 0.90673 9.09411C0.586994 8.62412 0.416016 8.06883 0.416016 7.5004C0.416016 6.93196 0.586994 6.37667 0.90673 5.90669C1.22647 5.4367 1.68018 5.07375 2.2089 4.86501C2.73762 4.65628 3.3169 4.61139 3.87146 4.73621C4.42603 4.86102 4.93022 5.14975 5.31854 5.56488L8.29354 3.94279C8.12464 3.27418 8.20539 2.56692 8.52065 1.95358C8.83591 1.34025 9.36405 0.862946 10.0061 0.611148C10.6481 0.35935 11.3599 0.350342 12.008 0.585813C12.6562 0.821283 13.1962 1.28507 13.5269 1.89023C13.8576 2.49539 13.9562 3.20038 13.8043 3.87305C13.6524 4.54573 13.2603 5.1399 12.7017 5.5442C12.143 5.9485 11.456 6.13516 10.7696 6.0692C10.0831 6.00325 9.4443 5.6892 8.97283 5.18592L5.99783 6.808C6.11201 7.2623 6.11201 7.73779 5.99783 8.19208L8.97212 9.81417C9.44359 9.31089 10.0824 8.99684 10.7689 8.93088C11.4553 8.86492 12.1423 9.05159 12.701 9.45588C13.2596 9.86018 13.6517 10.4544 13.8036 11.127C13.9555 11.7997 13.8569 12.5047 13.5262 13.1099C13.1955 13.715 12.6555 14.1788 12.0073 14.4143C11.3591 14.6497 10.6473 14.6407 10.0053 14.3889C9.36334 14.1371 8.83521 13.6598 8.51994 13.0465C8.20468 12.4332 8.12393 11.7259 8.29283 11.0573V11.058ZM3.2495 8.91671C3.62522 8.91671 3.98555 8.76745 4.25123 8.50178C4.51691 8.2361 4.66616 7.87577 4.66616 7.50004C4.66616 7.12432 4.51691 6.76398 4.25123 6.49831C3.98555 6.23263 3.62522 6.08338 3.2495 6.08338C2.87377 6.08338 2.51344 6.23263 2.24776 6.49831C1.98208 6.76398 1.83283 7.12432 1.83283 7.50004C1.83283 7.87577 1.98208 8.2361 2.24776 8.50178C2.51344 8.76745 2.87377 8.91671 3.2495 8.91671ZM11.0412 4.66671C11.4169 4.66671 11.7772 4.51745 12.0429 4.25178C12.3086 3.9861 12.4578 3.62577 12.4578 3.25004C12.4578 2.87432 12.3086 2.51398 12.0429 2.24831C11.7772 1.98263 11.4169 1.83338 11.0412 1.83338C10.6654 1.83338 10.3051 1.98263 10.0394 2.24831C9.77375 2.51398 9.6245 2.87432 9.6245 3.25004C9.6245 3.62577 9.77375 3.9861 10.0394 4.25178C10.3051 4.51745 10.6654 4.66671 11.0412 4.66671ZM11.0412 13.1667C11.4169 13.1667 11.7772 13.0175 12.0429 12.7518C12.3086 12.4861 12.4578 12.1258 12.4578 11.75C12.4578 11.3743 12.3086 11.014 12.0429 10.7483C11.7772 10.4826 11.4169 10.3334 11.0412 10.3334C10.6654 10.3334 10.3051 10.4826 10.0394 10.7483C9.77375 11.014 9.6245 11.3743 9.6245 11.75C9.6245 12.1258 9.77375 12.4861 10.0394 12.7518C10.3051 13.0175 10.6654 13.1667 11.0412 13.1667Z" fill="#979797"/>
</svg>
