<svg width="20" height="28" viewBox="0 0 20 28" fill="none" xmlns="http://www.w3.org/2000/svg">
<mask id="path-1-inside-1" fill="white">
<path d="M6.90956 21.5406H2.79717C2.62007 21.5406 2.47656 21.3971 2.47656 21.22C2.47656 21.0429 2.62007 20.8994 2.79717 20.8994H6.90956C7.08667 20.8994 7.23017 21.0429 7.23017 21.22C7.23017 21.3971 7.08667 21.5406 6.90956 21.5406Z"/>
</mask>
<path d="M6.90956 21.5406H2.79717C2.62007 21.5406 2.47656 21.3971 2.47656 21.22C2.47656 21.0429 2.62007 20.8994 2.79717 20.8994H6.90956C7.08667 20.8994 7.23017 21.0429 7.23017 21.22C7.23017 21.3971 7.08667 21.5406 6.90956 21.5406Z" fill="#979797"/>
<path d="M6.90956 20.5406H2.79717V22.5406H6.90956V20.5406ZM2.79717 20.5406C3.17235 20.5406 3.47656 20.8448 3.47656 21.22H1.47656C1.47656 21.9494 2.06778 22.5406 2.79717 22.5406V20.5406ZM3.47656 21.22C3.47656 21.5952 3.17235 21.8994 2.79717 21.8994V19.8994C2.06778 19.8994 1.47656 20.4906 1.47656 21.22H3.47656ZM2.79717 21.8994H6.90956V19.8994H2.79717V21.8994ZM6.90956 21.8994C6.53438 21.8994 6.23017 21.5952 6.23017 21.22H8.23017C8.23017 20.4906 7.63895 19.8994 6.90956 19.8994V21.8994ZM6.23017 21.22C6.23017 20.8448 6.53438 20.5406 6.90956 20.5406V22.5406C7.63895 22.5406 8.23017 21.9494 8.23017 21.22H6.23017Z" fill="#979797" mask="url(#path-1-inside-1)"/>
<mask id="path-3-inside-2" fill="white">
<path d="M14.6323 21.5406H10.5198C10.3427 21.5406 10.1992 21.3971 10.1992 21.22C10.1992 21.0429 10.3427 20.8994 10.5198 20.8994H14.6323C14.8094 20.8994 14.953 21.0429 14.953 21.22C14.953 21.3971 14.8094 21.5406 14.6323 21.5406Z"/>
</mask>
<path d="M14.6323 21.5406H10.5198C10.3427 21.5406 10.1992 21.3971 10.1992 21.22C10.1992 21.0429 10.3427 20.8994 10.5198 20.8994H14.6323C14.8094 20.8994 14.953 21.0429 14.953 21.22C14.953 21.3971 14.8094 21.5406 14.6323 21.5406Z" fill="#979797"/>
<path d="M14.6323 20.5406H10.5198V22.5406H14.6323V20.5406ZM10.5198 20.5406C10.895 20.5406 11.1992 20.8448 11.1992 21.22H9.19922C9.19922 21.9494 9.79044 22.5406 10.5198 22.5406V20.5406ZM11.1992 21.22C11.1992 21.5952 10.895 21.8994 10.5198 21.8994V19.8994C9.79044 19.8994 9.19922 20.4906 9.19922 21.22H11.1992ZM10.5198 21.8994H14.6323V19.8994H10.5198V21.8994ZM14.6323 21.8994C14.2572 21.8994 13.953 21.5952 13.953 21.22H15.953C15.953 20.4906 15.3617 19.8994 14.6323 19.8994V21.8994ZM13.953 21.22C13.953 20.8448 14.2572 20.5406 14.6323 20.5406V22.5406C15.3617 22.5406 15.953 21.9494 15.953 21.22H13.953Z" fill="#979797" mask="url(#path-3-inside-2)"/>
<mask id="path-5-inside-3" fill="white">
<path d="M17.489 24.7834V3.45586C17.489 3.27876 17.3455 3.13525 17.1684 3.13525H13.8401C13.663 3.13525 13.5194 3.27876 13.5194 3.45586C13.5194 3.63297 13.663 3.77647 13.8401 3.77647H16.8478V24.4628H0.641218V3.77647H3.59775C3.77485 3.77647 3.91836 3.63297 3.91836 3.45586C3.91836 3.27876 3.77485 3.13525 3.59775 3.13525H0.320609C0.143505 3.13525 0 3.27876 0 3.45586V24.7834C0 24.9605 0.143505 25.104 0.320609 25.104H17.1684C17.3455 25.104 17.489 24.9604 17.489 24.7834Z"/>
</mask>
<path d="M17.489 24.7834V3.45586C17.489 3.27876 17.3455 3.13525 17.1684 3.13525H13.8401C13.663 3.13525 13.5194 3.27876 13.5194 3.45586C13.5194 3.63297 13.663 3.77647 13.8401 3.77647H16.8478V24.4628H0.641218V3.77647H3.59775C3.77485 3.77647 3.91836 3.63297 3.91836 3.45586C3.91836 3.27876 3.77485 3.13525 3.59775 3.13525H0.320609C0.143505 3.13525 0 3.27876 0 3.45586V24.7834C0 24.9605 0.143505 25.104 0.320609 25.104H17.1684C17.3455 25.104 17.489 24.9604 17.489 24.7834Z" fill="#979797"/>
<path d="M16.8478 3.77647H17.8478V2.77647H16.8478V3.77647ZM16.8478 24.4628V25.4628H17.8478V24.4628H16.8478ZM0.641218 24.4628H-0.358782V25.4628H0.641218V24.4628ZM0.641218 3.77647V2.77647H-0.358782V3.77647H0.641218ZM18.489 24.7834V3.45586H16.489V24.7834H18.489ZM18.489 3.45586C18.489 2.72647 17.8978 2.13525 17.1684 2.13525V4.13525C16.7932 4.13525 16.489 3.83104 16.489 3.45586H18.489ZM17.1684 2.13525H13.8401V4.13525H17.1684V2.13525ZM13.8401 2.13525C13.1107 2.13525 12.5194 2.72647 12.5194 3.45586H14.5194C14.5194 3.83104 14.2152 4.13525 13.8401 4.13525V2.13525ZM12.5194 3.45586C12.5194 4.18525 13.1107 4.77647 13.8401 4.77647V2.77647C14.2152 2.77647 14.5194 3.08068 14.5194 3.45586H12.5194ZM13.8401 4.77647H16.8478V2.77647H13.8401V4.77647ZM15.8478 3.77647V24.4628H17.8478V3.77647H15.8478ZM16.8478 23.4628H0.641218V25.4628H16.8478V23.4628ZM1.64122 24.4628V3.77647H-0.358782V24.4628H1.64122ZM0.641218 4.77647H3.59775V2.77647H0.641218V4.77647ZM3.59775 4.77647C4.32714 4.77647 4.91836 4.18525 4.91836 3.45586H2.91836C2.91836 3.08068 3.22257 2.77647 3.59775 2.77647V4.77647ZM4.91836 3.45586C4.91836 2.72647 4.32714 2.13525 3.59775 2.13525V4.13525C3.22257 4.13525 2.91836 3.83104 2.91836 3.45586H4.91836ZM3.59775 2.13525H0.320609V4.13525H3.59775V2.13525ZM0.320609 2.13525C-0.40878 2.13525 -1 2.72647 -1 3.45586H1C1 3.83104 0.695789 4.13525 0.320609 4.13525V2.13525ZM-1 3.45586V24.7834H1V3.45586H-1ZM-1 24.7834C-1 25.5128 -0.40878 26.104 0.320609 26.104V24.104C0.695789 24.104 1 24.4082 1 24.7834H-1ZM0.320609 26.104H17.1684V24.104H0.320609V26.104ZM17.1684 26.104C17.898 26.104 18.489 25.5124 18.489 24.7834H16.489C16.489 24.4084 16.7929 24.104 17.1684 24.104V26.104Z" fill="#979797" mask="url(#path-5-inside-3)"/>
<path d="M2.88868 27.2778L19.7001 26.1712C19.8769 26.1596 20.0106 26.007 19.9989 25.8303L2.88868 27.2778ZM2.88868 27.2778C2.88162 27.2783 2.8747 27.2785 2.86765 27.2785M2.88868 27.2778L2.86765 27.2785M18.4574 4.55819C18.4574 4.55829 18.4574 4.55837 18.4574 4.55848L18.4574 4.55819ZM18.4574 4.55819C18.4574 4.55814 18.4574 4.55806 18.4574 4.55801L18.4574 4.55812L18.4574 4.55819ZM2.86765 27.2785C2.79019 27.2785 2.71503 27.2505 2.65643 27.199L2.86765 27.2785Z" fill="#979797" stroke="#979797"/>
<mask id="path-8-inside-4" fill="white">
<path d="M14.6328 11.0303H2.79717C2.62007 11.0303 2.47656 11.1738 2.47656 11.3509C2.47656 11.528 2.62007 11.6715 2.79717 11.6715H14.6328C14.8099 11.6715 14.9534 11.528 14.9534 11.3509C14.9534 11.1738 14.8099 11.0303 14.6328 11.0303Z"/>
</mask>
<path d="M14.6328 11.0303H2.79717C2.62007 11.0303 2.47656 11.1738 2.47656 11.3509C2.47656 11.528 2.62007 11.6715 2.79717 11.6715H14.6328C14.8099 11.6715 14.9534 11.528 14.9534 11.3509C14.9534 11.1738 14.8099 11.0303 14.6328 11.0303Z" fill="#979797"/>
<path d="M14.6328 10.0303H2.79717V12.0303H14.6328V10.0303ZM2.79717 10.0303C2.06778 10.0303 1.47656 10.6215 1.47656 11.3509H3.47656C3.47656 11.7261 3.17235 12.0303 2.79717 12.0303V10.0303ZM1.47656 11.3509C1.47656 12.0803 2.06778 12.6715 2.79717 12.6715V10.6715C3.17235 10.6715 3.47656 10.9757 3.47656 11.3509H1.47656ZM2.79717 12.6715H14.6328V10.6715H2.79717V12.6715ZM14.6328 12.6715C15.3622 12.6715 15.9534 12.0803 15.9534 11.3509H13.9534C13.9534 10.9757 14.2576 10.6715 14.6328 10.6715V12.6715ZM15.9534 11.3509C15.9534 10.6215 15.3622 10.0303 14.6328 10.0303V12.0303C14.2576 12.0303 13.9534 11.7261 13.9534 11.3509H15.9534Z" fill="#979797" mask="url(#path-8-inside-4)"/>
<mask id="path-10-inside-5" fill="white">
<path d="M14.6328 13.3479H2.79717C2.62007 13.3479 2.47656 13.4914 2.47656 13.6685C2.47656 13.8456 2.62007 13.9891 2.79717 13.9891H14.6328C14.8099 13.9891 14.9534 13.8456 14.9534 13.6685C14.9534 13.4914 14.8099 13.3479 14.6328 13.3479Z"/>
</mask>
<path d="M14.6328 13.3479H2.79717C2.62007 13.3479 2.47656 13.4914 2.47656 13.6685C2.47656 13.8456 2.62007 13.9891 2.79717 13.9891H14.6328C14.8099 13.9891 14.9534 13.8456 14.9534 13.6685C14.9534 13.4914 14.8099 13.3479 14.6328 13.3479Z" fill="#979797"/>
<path d="M14.6328 12.3479H2.79717V14.3479H14.6328V12.3479ZM2.79717 12.3479C2.06778 12.3479 1.47656 12.9391 1.47656 13.6685H3.47656C3.47656 14.0437 3.17235 14.3479 2.79717 14.3479V12.3479ZM1.47656 13.6685C1.47656 14.3979 2.06779 14.9891 2.79717 14.9891V12.9891C3.17235 12.9891 3.47656 13.2933 3.47656 13.6685H1.47656ZM2.79717 14.9891H14.6328V12.9891H2.79717V14.9891ZM14.6328 14.9891C15.3622 14.9891 15.9534 14.3979 15.9534 13.6685H13.9534C13.9534 13.2933 14.2576 12.9891 14.6328 12.9891V14.9891ZM15.9534 13.6685C15.9534 12.9391 15.3622 12.3479 14.6328 12.3479V14.3479C14.2576 14.3479 13.9534 14.0437 13.9534 13.6685H15.9534Z" fill="#979797" mask="url(#path-10-inside-5)"/>
<mask id="path-12-inside-6" fill="white">
<path d="M14.6328 15.6649H2.79717C2.62007 15.6649 2.47656 15.8084 2.47656 15.9855C2.47656 16.1626 2.62007 16.3061 2.79717 16.3061H14.6328C14.8099 16.3061 14.9534 16.1626 14.9534 15.9855C14.9534 15.8084 14.8099 15.6649 14.6328 15.6649Z"/>
</mask>
<path d="M14.6328 15.6649H2.79717C2.62007 15.6649 2.47656 15.8084 2.47656 15.9855C2.47656 16.1626 2.62007 16.3061 2.79717 16.3061H14.6328C14.8099 16.3061 14.9534 16.1626 14.9534 15.9855C14.9534 15.8084 14.8099 15.6649 14.6328 15.6649Z" fill="#979797"/>
<path d="M14.6328 14.6649H2.79717V16.6649H14.6328V14.6649ZM2.79717 14.6649C2.06778 14.6649 1.47656 15.2561 1.47656 15.9855H3.47656C3.47656 16.3607 3.17235 16.6649 2.79717 16.6649V14.6649ZM1.47656 15.9855C1.47656 16.7149 2.06778 17.3061 2.79717 17.3061V15.3061C3.17235 15.3061 3.47656 15.6103 3.47656 15.9855H1.47656ZM2.79717 17.3061H14.6328V15.3061H2.79717V17.3061ZM14.6328 17.3061C15.3622 17.3061 15.9534 16.7149 15.9534 15.9855H13.9534C13.9534 15.6103 14.2576 15.3061 14.6328 15.3061V17.3061ZM15.9534 15.9855C15.9534 15.2561 15.3622 14.6649 14.6328 14.6649V16.6649C14.2576 16.6649 13.9534 16.3607 13.9534 15.9855H15.9534Z" fill="#979797" mask="url(#path-12-inside-6)"/>
<mask id="path-14-inside-7" fill="white">
<path d="M5.79864 8.55195L5.40801 9.93493C5.37441 10.0542 5.41237 10.1822 5.50573 10.2636C5.56524 10.3156 5.64052 10.3427 5.71669 10.3427C5.75991 10.3427 5.80351 10.334 5.84455 10.3162L7.6701 9.52212C8.02187 9.60855 8.38236 9.65228 8.7435 9.65228C11.2223 9.65228 13.239 7.63565 13.239 5.15683C13.239 2.67801 11.2223 0.661377 8.7435 0.661377C6.26468 0.661377 4.24805 2.67801 4.24805 5.15683C4.24805 6.47043 4.81052 7.69593 5.79864 8.55195ZM8.7435 1.3026C10.8686 1.3026 12.5977 3.03158 12.5977 5.15683C12.5977 7.28208 10.8688 9.01107 8.7435 9.01107C8.40122 9.01107 8.05945 8.96528 7.72781 8.87474C7.65728 8.85563 7.58238 8.86089 7.51569 8.89L6.20889 9.45838L6.47256 8.52528C6.5077 8.40024 6.46435 8.26648 6.3624 8.1862C5.42622 7.44919 4.88939 6.34501 4.88939 5.15683C4.88926 3.03158 6.61837 1.3026 8.7435 1.3026Z"/>
</mask>
<path d="M5.79864 8.55195L5.40801 9.93493C5.37441 10.0542 5.41237 10.1822 5.50573 10.2636C5.56524 10.3156 5.64052 10.3427 5.71669 10.3427C5.75991 10.3427 5.80351 10.334 5.84455 10.3162L7.6701 9.52212C8.02187 9.60855 8.38236 9.65228 8.7435 9.65228C11.2223 9.65228 13.239 7.63565 13.239 5.15683C13.239 2.67801 11.2223 0.661377 8.7435 0.661377C6.26468 0.661377 4.24805 2.67801 4.24805 5.15683C4.24805 6.47043 4.81052 7.69593 5.79864 8.55195ZM8.7435 1.3026C10.8686 1.3026 12.5977 3.03158 12.5977 5.15683C12.5977 7.28208 10.8688 9.01107 8.7435 9.01107C8.40122 9.01107 8.05945 8.96528 7.72781 8.87474C7.65728 8.85563 7.58238 8.86089 7.51569 8.89L6.20889 9.45838L6.47256 8.52528C6.5077 8.40024 6.46435 8.26648 6.3624 8.1862C5.42622 7.44919 4.88939 6.34501 4.88939 5.15683C4.88926 3.03158 6.61837 1.3026 8.7435 1.3026Z" fill="#979797"/>
<path d="M5.40801 9.93493L4.44566 9.66311L4.44548 9.66377L5.40801 9.93493ZM5.50573 10.2636L6.16332 9.51024L6.16306 9.51002L5.50573 10.2636ZM5.84455 10.3162L6.24296 11.2334L6.24343 11.2332L5.84455 10.3162ZM7.6701 9.52212L7.90872 8.551L7.58083 8.47044L7.27122 8.60511L7.6701 9.52212ZM7.72781 8.87474L7.99118 7.91005L7.98929 7.90953L7.72781 8.87474ZM7.51569 8.89L7.91454 9.80702L7.91577 9.80648L7.51569 8.89ZM6.20889 9.45838L5.24657 9.18645L4.67281 11.217L6.60774 10.3754L6.20889 9.45838ZM6.47256 8.52528L7.43488 8.7972L7.43527 8.79582L6.47256 8.52528ZM6.3624 8.1862L6.98105 7.40054L6.98097 7.40047L6.3624 8.1862ZM4.88939 5.15683H5.88939V5.15677L4.88939 5.15683ZM4.83629 8.28013L4.44566 9.66311L6.37036 10.2068L6.76099 8.82377L4.83629 8.28013ZM4.44548 9.66377C4.3074 10.1539 4.46311 10.6812 4.8484 11.0172L6.16306 9.51002C6.36163 9.68322 6.44142 9.9545 6.37054 10.2061L4.44548 9.66377ZM4.84815 11.017C5.09322 11.2309 5.40326 11.3427 5.71669 11.3427V9.34275C5.87778 9.34275 6.03726 9.40021 6.16332 9.51024L4.84815 11.017ZM5.71669 11.3427C5.8942 11.3427 6.07367 11.3069 6.24296 11.2334L5.44614 9.39899C5.53336 9.36111 5.62562 9.34275 5.71669 9.34275V11.3427ZM6.24343 11.2332L8.06898 10.4391L7.27122 8.60511L5.44567 9.3992L6.24343 11.2332ZM7.43148 10.4932C7.86106 10.5988 8.30166 10.6523 8.7435 10.6523V8.65228C8.46307 8.65228 8.18268 8.61832 7.90872 8.551L7.43148 10.4932ZM8.7435 10.6523C11.7746 10.6523 14.239 8.18794 14.239 5.15683H12.239C12.239 7.08337 10.67 8.65228 8.7435 8.65228V10.6523ZM14.239 5.15683C14.239 2.12572 11.7746 -0.338623 8.7435 -0.338623V1.66138C10.67 1.66138 12.239 3.23029 12.239 5.15683H14.239ZM8.7435 -0.338623C5.71239 -0.338623 3.24805 2.12572 3.24805 5.15683H5.24805C5.24805 3.23029 6.81696 1.66138 8.7435 1.66138V-0.338623ZM3.24805 5.15683C3.24805 6.7612 3.93701 8.26225 5.14386 9.30777L6.45342 7.79613C5.68404 7.1296 5.24805 6.17966 5.24805 5.15683H3.24805ZM8.7435 2.3026C10.3164 2.3026 11.5977 3.58388 11.5977 5.15683H13.5977C13.5977 2.47927 11.4209 0.302595 8.7435 0.302595V2.3026ZM11.5977 5.15683C11.5977 6.7298 10.3165 8.01107 8.7435 8.01107V10.0111C11.421 10.0111 13.5977 7.83437 13.5977 5.15683H11.5977ZM8.7435 8.01107C8.49032 8.01107 8.23712 7.97719 7.99118 7.91005L7.46444 9.83944C7.88178 9.95337 8.31211 10.0111 8.7435 10.0111V8.01107ZM7.98929 7.90953C7.70207 7.83172 7.39364 7.85215 7.11562 7.97352L7.91577 9.80648C7.77112 9.86963 7.61249 9.87955 7.46633 9.83995L7.98929 7.90953ZM7.11685 7.97298L5.81005 8.54136L6.60774 10.3754L7.91454 9.80702L7.11685 7.97298ZM7.17121 9.7303L7.43488 8.7972L5.51024 8.25335L5.24657 9.18645L7.17121 9.7303ZM7.43527 8.79582C7.57937 8.28306 7.40191 7.73193 6.98105 7.40054L5.74375 8.97187C5.52679 8.80103 5.43603 8.51742 5.50985 8.25473L7.43527 8.79582ZM6.98097 7.40047C6.2849 6.85249 5.88939 6.03755 5.88939 5.15683H3.88939C3.88939 6.65247 4.56754 8.04588 5.74383 8.97193L6.98097 7.40047ZM5.88939 5.15677C5.8893 3.58388 7.17063 2.3026 8.7435 2.3026V0.302595C6.06612 0.302595 3.88923 2.47927 3.88939 5.15689L5.88939 5.15677Z" fill="#979797" mask="url(#path-14-inside-7)"/>
<mask id="path-16-inside-8" fill="white">
<path d="M6.3884 5.97346C5.88672 5.97346 5.47852 5.56526 5.47852 5.06358C5.47852 4.56189 5.88672 4.15369 6.3884 4.15369C6.89009 4.15369 7.29829 4.56189 7.29829 5.06358C7.29829 5.56526 6.89009 5.97346 6.3884 5.97346ZM6.3884 4.7949C6.24028 4.7949 6.11973 4.91533 6.11973 5.06358C6.11973 5.21183 6.24015 5.33225 6.3884 5.33225C6.53665 5.33225 6.65708 5.21183 6.65708 5.06358C6.65708 4.91533 6.53653 4.7949 6.3884 4.7949Z"/>
</mask>
<path d="M6.3884 5.97346C5.88672 5.97346 5.47852 5.56526 5.47852 5.06358C5.47852 4.56189 5.88672 4.15369 6.3884 4.15369C6.89009 4.15369 7.29829 4.56189 7.29829 5.06358C7.29829 5.56526 6.89009 5.97346 6.3884 5.97346ZM6.3884 4.7949C6.24028 4.7949 6.11973 4.91533 6.11973 5.06358C6.11973 5.21183 6.24015 5.33225 6.3884 5.33225C6.53665 5.33225 6.65708 5.21183 6.65708 5.06358C6.65708 4.91533 6.53653 4.7949 6.3884 4.7949Z" fill="#979797"/>
<path d="M6.3884 4.97346C6.439 4.97346 6.47852 5.01298 6.47852 5.06358H4.47852C4.47852 6.11755 5.33443 6.97346 6.3884 6.97346V4.97346ZM6.47852 5.06358C6.47852 5.11417 6.439 5.15369 6.3884 5.15369V3.15369C5.33443 3.15369 4.47852 4.0096 4.47852 5.06358H6.47852ZM6.3884 5.15369C6.33781 5.15369 6.29829 5.11417 6.29829 5.06358H8.29829C8.29829 4.0096 7.44238 3.15369 6.3884 3.15369V5.15369ZM6.29829 5.06358C6.29829 5.01298 6.33781 4.97346 6.3884 4.97346V6.97346C7.44238 6.97346 8.29829 6.11755 8.29829 5.06358H6.29829ZM6.3884 3.7949C5.68831 3.7949 5.11973 4.36273 5.11973 5.06358H7.11973C7.11973 5.46792 6.79226 5.7949 6.3884 5.7949V3.7949ZM5.11973 5.06358C5.11973 5.76411 5.68787 6.33225 6.3884 6.33225V4.33225C6.79244 4.33225 7.11973 4.65954 7.11973 5.06358H5.11973ZM6.3884 6.33225C7.08894 6.33225 7.65707 5.76411 7.65707 5.06358H5.65707C5.65707 4.65954 5.98437 4.33225 6.3884 4.33225V6.33225ZM7.65707 5.06358C7.65707 4.36273 7.0885 3.7949 6.3884 3.7949V5.7949C5.98455 5.7949 5.65707 5.46792 5.65707 5.06358H7.65707Z" fill="#979797" mask="url(#path-16-inside-8)"/>
<mask id="path-18-inside-9" fill="white">
<path d="M8.74583 5.9731C8.24414 5.9731 7.83594 5.5649 7.83594 5.06321C7.83594 4.56152 8.24414 4.15332 8.74583 4.15332C9.24752 4.15332 9.65572 4.56152 9.65572 5.06321C9.65572 5.5649 9.24752 5.9731 8.74583 5.9731ZM8.74583 4.79454C8.5977 4.79454 8.47716 4.91496 8.47716 5.06321C8.47716 5.21146 8.59758 5.33188 8.74583 5.33188C8.89408 5.33188 9.0145 5.21146 9.0145 5.06321C9.0145 4.91496 8.89395 4.79454 8.74583 4.79454Z"/>
</mask>
<path d="M8.74583 5.9731C8.24414 5.9731 7.83594 5.5649 7.83594 5.06321C7.83594 4.56152 8.24414 4.15332 8.74583 4.15332C9.24752 4.15332 9.65572 4.56152 9.65572 5.06321C9.65572 5.5649 9.24752 5.9731 8.74583 5.9731ZM8.74583 4.79454C8.5977 4.79454 8.47716 4.91496 8.47716 5.06321C8.47716 5.21146 8.59758 5.33188 8.74583 5.33188C8.89408 5.33188 9.0145 5.21146 9.0145 5.06321C9.0145 4.91496 8.89395 4.79454 8.74583 4.79454Z" fill="#979797"/>
<path d="M8.74583 4.9731C8.79642 4.9731 8.83594 5.01261 8.83594 5.06321H6.83594C6.83594 6.11718 7.69185 6.9731 8.74583 6.9731V4.9731ZM8.83594 5.06321C8.83594 5.1138 8.79642 5.15332 8.74583 5.15332V3.15332C7.69185 3.15332 6.83594 4.00924 6.83594 5.06321H8.83594ZM8.74583 5.15332C8.69523 5.15332 8.65572 5.1138 8.65572 5.06321H10.6557C10.6557 4.00924 9.7998 3.15332 8.74583 3.15332V5.15332ZM8.65572 5.06321C8.65572 5.01261 8.69523 4.9731 8.74583 4.9731V6.9731C9.7998 6.9731 10.6557 6.11718 10.6557 5.06321H8.65572ZM8.74583 3.79454C8.04573 3.79454 7.47716 4.36236 7.47716 5.06321H9.47716C9.47716 5.46755 9.14968 5.79454 8.74583 5.79454V3.79454ZM7.47716 5.06321C7.47716 5.76374 8.04529 6.33188 8.74583 6.33188V4.33188C9.14986 4.33188 9.47716 4.65917 9.47716 5.06321H7.47716ZM8.74583 6.33188C9.44636 6.33188 10.0145 5.76374 10.0145 5.06321H8.0145C8.0145 4.65917 8.34179 4.33188 8.74583 4.33188V6.33188ZM10.0145 5.06321C10.0145 4.36236 9.44592 3.79454 8.74583 3.79454V5.79454C8.34197 5.79454 8.0145 5.46755 8.0145 5.06321H10.0145Z" fill="#979797" mask="url(#path-18-inside-9)"/>
<mask id="path-20-inside-10" fill="white">
<path d="M11.1013 5.9731C10.5996 5.9731 10.1914 5.5649 10.1914 5.06321C10.1914 4.56152 10.5996 4.15332 11.1013 4.15332C11.603 4.15332 12.0112 4.56152 12.0112 5.06321C12.0112 5.5649 11.603 5.9731 11.1013 5.9731ZM11.1013 4.79454C10.9532 4.79454 10.8326 4.91496 10.8326 5.06321C10.8326 5.21146 10.953 5.33188 11.1013 5.33188C11.2495 5.33188 11.37 5.21146 11.37 5.06321C11.37 4.91496 11.2494 4.79454 11.1013 4.79454Z"/>
</mask>
<path d="M11.1013 5.9731C10.5996 5.9731 10.1914 5.5649 10.1914 5.06321C10.1914 4.56152 10.5996 4.15332 11.1013 4.15332C11.603 4.15332 12.0112 4.56152 12.0112 5.06321C12.0112 5.5649 11.603 5.9731 11.1013 5.9731ZM11.1013 4.79454C10.9532 4.79454 10.8326 4.91496 10.8326 5.06321C10.8326 5.21146 10.953 5.33188 11.1013 5.33188C11.2495 5.33188 11.37 5.21146 11.37 5.06321C11.37 4.91496 11.2494 4.79454 11.1013 4.79454Z" fill="#979797"/>
<path d="M11.1013 4.9731C11.1519 4.9731 11.1914 5.01261 11.1914 5.06321H9.19141C9.19141 6.11718 10.0473 6.9731 11.1013 6.9731V4.9731ZM11.1914 5.06321C11.1914 5.1138 11.1519 5.15332 11.1013 5.15332V3.15332C10.0473 3.15332 9.19141 4.00924 9.19141 5.06321H11.1914ZM11.1013 5.15332C11.0507 5.15332 11.0112 5.1138 11.0112 5.06321H13.0112C13.0112 4.00924 12.1553 3.15332 11.1013 3.15332V5.15332ZM11.0112 5.06321C11.0112 5.01261 11.0507 4.9731 11.1013 4.9731V6.9731C12.1553 6.9731 13.0112 6.11718 13.0112 5.06321H11.0112ZM11.1013 3.79454C10.4012 3.79454 9.83262 4.36236 9.83262 5.06321H11.8326C11.8326 5.46755 11.5051 5.79454 11.1013 5.79454V3.79454ZM9.83262 5.06321C9.83262 5.76374 10.4008 6.33188 11.1013 6.33188V4.33188C11.5053 4.33188 11.8326 4.65917 11.8326 5.06321H9.83262ZM11.1013 6.33188C11.8018 6.33188 12.37 5.76374 12.37 5.06321H10.37C10.37 4.65917 10.6973 4.33188 11.1013 4.33188V6.33188ZM12.37 5.06321C12.37 4.36236 11.8014 3.79454 11.1013 3.79454V5.79454C10.6974 5.79454 10.37 5.46755 10.37 5.06321H12.37Z" fill="#979797" mask="url(#path-20-inside-10)"/>
</svg>
