<svg width="20" height="19" viewBox="0 0 20 19" fill="none" xmlns="http://www.w3.org/2000/svg">
<path d="M20 6H18V4H9.586L7.586 2H2V16H9.447C9.81424 16.8026 10.3886 17.4929 11.111 18H1C0.734784 18 0.48043 17.8946 0.292893 17.7071C0.105357 17.5196 0 17.2652 0 17V1C0 0.734784 0.105357 0.48043 0.292893 0.292893C0.48043 0.105357 0.734784 0 1 0H8.414L10.414 2H19C19.2652 2 19.5196 2.10536 19.7071 2.29289C19.8946 2.48043 20 2.73478 20 3V6ZM11 8H20V13.949C20 14.939 19.499 15.865 18.664 16.414L15.5 18.498L12.336 16.414C11.9266 16.1461 11.5902 15.7807 11.357 15.3506C11.1238 14.9205 11.0012 14.4392 11 13.95V8ZM13 13.949C13 14.265 13.162 14.563 13.436 14.744L15.5 16.104L17.564 14.744C17.6969 14.6581 17.8064 14.5404 17.8825 14.4016C17.9586 14.2628 17.999 14.1073 18 13.949V10H13V13.949Z" fill="#979797"/>
</svg>
