<svg width="19" height="19" viewBox="0 0 19 19" fill="none" xmlns="http://www.w3.org/2000/svg">
<path d="M9.50017 18C4.81307 18 1 14.1869 1 9.49983C1 4.81307 4.81307 1 9.50017 1C14.1869 1 18 4.81307 18 9.49983C18 14.1869 14.1869 18 9.50017 18ZM9.50017 1.68322C5.19004 1.68322 1.68322 5.1897 1.68322 9.49983C1.68322 13.81 5.19004 17.3168 9.50017 17.3168C13.8103 17.3168 17.3168 13.81 17.3168 9.49983C17.3168 5.1897 13.8103 1.68322 9.50017 1.68322Z" fill="#979797" stroke="#979797" stroke-width="0.25"/>
<path d="M3.73028 15.6104C3.64288 15.6104 3.55547 15.5771 3.48875 15.5103C3.35531 15.3769 3.35531 15.1607 3.48875 15.0273L9.15764 9.35839V1.34161C9.15764 1.15279 9.31043 1 9.49925 1C9.68807 1 9.84086 1.15279 9.84086 1.34161V9.49983C9.84086 9.59057 9.80483 9.67731 9.74078 9.74136L3.97181 15.5103C3.90509 15.5771 3.81768 15.6104 3.73028 15.6104Z" fill="#979797" stroke="#979797" stroke-width="0.25"/>
<path d="M16.8545 13.3667C16.8051 13.3667 16.7547 13.356 16.707 13.333L9.3521 9.80784C9.18197 9.72644 9.11024 9.52228 9.19197 9.35214C9.27337 9.18234 9.4762 9.10894 9.64767 9.19201L17.0026 12.7172C17.1727 12.7986 17.2444 13.0027 17.1627 13.1729C17.104 13.2953 16.9819 13.3667 16.8545 13.3667Z" fill="#979797" stroke="#979797" stroke-width="0.25"/>
<path d="M9.50017 9.60167H1.34161C1.15279 9.60167 1 9.44888 1 9.26007C1 9.07125 1.15279 8.91846 1.34161 8.91846H9.50017C9.68899 8.91846 9.84178 9.07125 9.84178 9.26007C9.84178 9.44888 9.68899 9.60167 9.50017 9.60167Z" fill="#979797" stroke="#979797" stroke-width="0.25"/>
</svg>
