<svg width="20" height="19" viewBox="0 0 20 19" fill="none" xmlns="http://www.w3.org/2000/svg">
<path fill-rule="evenodd" clip-rule="evenodd" d="M12.4826 17.3585V12.9946C12.4826 12.621 12.3389 12.2624 12.0832 11.9977C11.8271 11.7334 11.4802 11.5849 11.1186 11.5849C10.411 11.5849 9.58863 11.5849 8.88105 11.5849C8.51919 11.5849 8.17222 11.7334 7.9165 11.9977C7.66078 12.2624 7.51709 12.621 7.51709 12.9946V17.3585H12.4826ZM4.1033 5.84377V15.7676C4.1033 16.1893 4.26561 16.5941 4.55423 16.8924C4.84285 17.1907 5.23451 17.3585 5.64261 17.3585H6.8964V12.9946C6.8964 12.4506 7.10557 11.9288 7.47767 11.5442C7.84977 11.1596 8.3547 10.9434 8.88105 10.9434C9.58863 10.9434 10.411 10.9434 11.1186 10.9434C11.645 10.9434 12.1499 11.1596 12.522 11.5442C12.8941 11.9288 13.1033 12.4506 13.1033 12.9946V17.3585H14.3571C14.7652 17.3585 15.1568 17.1907 15.4454 16.8924C15.7341 16.5941 15.8964 16.1893 15.8964 15.7676V5.84377L9.99984 1.7083L4.1033 5.84377ZM3.48262 6.27904L1.48462 7.68041C1.3428 7.77984 1.14976 7.74167 1.05355 7.59541C0.957348 7.44882 0.994279 7.24899 1.13611 7.14988L9.82573 1.05557C9.93094 0.981477 10.0694 0.981477 10.1746 1.05557L18.8642 7.14988C19.0057 7.24899 19.0426 7.44882 18.9464 7.59541C18.8505 7.74167 18.6572 7.77984 18.5154 7.68041L16.5171 6.27904V15.7676C16.5171 16.3597 16.2896 16.9274 15.8843 17.346C15.4793 17.7649 14.93 18 14.3571 18C12.0109 18 7.98881 18 5.64261 18C5.06971 18 4.52041 17.7649 4.1151 17.346C3.7101 16.9274 3.48262 16.3597 3.48262 15.7676V6.27904Z" fill="#2F2D51" stroke="#2F2D51" stroke-width="0.75"/>
</svg>
