<svg width="625" height="260" viewBox="0 0 625 260" fill="none" xmlns="http://www.w3.org/2000/svg">
<path d="M175.827 233.836L137.899 195.907C137.314 195.322 136.535 195 135.704 195C134.872 195 134.094 195.322 133.508 195.907L127.908 201.507C127.619 201.795 127.39 202.137 127.234 202.514C127.078 202.891 126.999 203.295 127 203.703C127 204.535 127.322 205.313 127.908 205.898L165.835 243.828C166.419 244.413 167.199 244.735 168.031 244.735C168.862 244.735 169.642 244.413 170.226 243.828L175.828 238.226C176.409 237.643 176.735 236.853 176.735 236.03C176.735 235.207 176.409 234.418 175.827 233.836ZM174.762 237.161L169.16 242.763C168.561 243.362 167.498 243.362 166.899 242.763L128.972 204.832C128.673 204.533 128.507 204.131 128.507 203.703C128.507 203.274 128.672 202.872 128.973 202.572L134.572 196.973C134.873 196.673 135.275 196.507 135.704 196.507C136.132 196.507 136.534 196.672 136.833 196.972L137.047 197.186L131.329 202.902L132.538 204.112L138.256 198.395L139.466 199.606L136.875 202.198L138.083 203.408L140.675 200.815L141.886 202.025L139.293 204.618L140.502 205.827L143.095 203.234L144.304 204.444L141.712 207.038L142.923 208.247L145.515 205.655L146.725 206.864L141.006 212.582L142.218 213.792L147.934 208.074L149.145 209.284L146.552 211.877L147.762 213.086L150.354 210.494L151.565 211.704L148.971 214.296L150.181 215.506L152.774 212.913L153.984 214.124L151.391 216.716L152.601 217.925L155.193 215.333L156.403 216.542L150.686 222.261L151.897 223.471L157.614 217.753L158.823 218.962L156.23 221.555L157.44 222.765L160.032 220.173L161.243 221.383L158.65 223.975L159.861 225.184L162.453 222.593L163.662 223.802L161.069 226.394L162.28 227.604L164.872 225.012L166.082 226.221L160.365 231.939L161.575 233.149L167.291 227.431L168.501 228.641L165.909 231.234L167.119 232.445L169.712 229.851L170.922 231.061L168.328 233.653L169.538 234.863L172.13 232.27L173.341 233.481L170.748 236.073L171.959 237.282L174.551 234.69L174.763 234.902C175.062 235.202 175.23 235.609 175.229 236.032C175.229 236.455 175.061 236.861 174.762 237.161Z" fill="#F8C994"/>
<path d="M135.593 207.688C136.675 207.688 137.553 206.811 137.553 205.728C137.553 204.645 136.675 203.768 135.593 203.768C134.51 203.768 133.632 204.645 133.632 205.728C133.632 206.811 134.51 207.688 135.593 207.688Z" fill="#F8C994"/>
<path d="M144.323 216.417C145.405 216.417 146.282 215.54 146.282 214.457C146.282 213.375 145.405 212.498 144.323 212.498C143.241 212.498 142.363 213.375 142.363 214.457C142.363 215.54 143.241 216.417 144.323 216.417Z" fill="#F8C994"/>
<path d="M164.889 236.983C165.971 236.983 166.848 236.106 166.848 235.023C166.848 233.941 165.971 233.064 164.889 233.064C163.807 233.064 162.929 233.941 162.929 235.023C162.929 236.106 163.807 236.983 164.889 236.983Z" fill="#F8C994"/>
<g clip-path="url(#clip0)">
<path d="M248.951 10.3651L225.603 23.8294C223.672 24.9463 223.858 27.803 225.923 28.6505L232.338 31.3052V36.0421C232.338 38.6463 235.661 39.7183 237.198 37.6473L239.657 34.3303L245.937 36.9233C246.268 37.058 246.616 37.1253 246.964 37.1253C247.424 37.1253 247.879 37.0075 248.289 36.7774C249.007 36.3733 249.501 35.6549 249.63 34.8411L252.964 13.1096C253.306 10.859 250.893 9.24825 248.951 10.3651ZM235.032 36.0421V32.4165L237.086 33.264L235.032 36.0421ZM246.964 34.4314L238.332 30.8675L246.201 19.5134C246.801 18.6435 245.668 17.6333 244.871 18.3236L233 28.6674L226.95 26.1642L250.298 12.6943L246.964 34.4314Z" fill="#B2F4DC"/>
</g>
<path d="M1.00001 75.2082C58.84 83.3132 184.467 89.5761 224.255 49.7881" stroke="#B2F4DC" stroke-width="3" stroke-dasharray="10 10"/>
<path d="M599.425 171L598.664 171.795L593.795 176.664L593 177.425L600.944 185.368L595.418 190.894L595.349 191.24L594.139 197.319L593.795 198.941L595.418 198.596L601.497 197.387L601.842 197.318L607.368 191.791L615.277 199.702L616.037 198.907L620.907 194.037L621.702 193.277L613.791 185.368L619.249 179.91C619.672 179.489 620.007 178.989 620.236 178.437C620.465 177.886 620.583 177.295 620.583 176.699C620.583 176.102 620.465 175.511 620.236 174.96C620.007 174.408 619.672 173.908 619.249 173.487C618.829 173.062 618.329 172.724 617.777 172.493C617.226 172.262 616.635 172.142 616.037 172.139C615.439 172.142 614.848 172.262 614.297 172.493C613.745 172.724 613.245 173.062 612.824 173.487L607.368 178.944L599.425 171ZM599.425 174.143L601.565 176.318L599.942 177.943L601.531 179.531L603.155 177.908L605.779 180.533L602.498 183.814L596.109 177.425L599.425 174.143ZM616.036 174.281C616.611 174.281 617.194 174.54 617.694 175.041C618.692 176.039 618.692 177.325 617.694 178.322L616.97 179.047L613.688 175.766L614.414 175.041C614.914 174.54 615.464 174.281 616.037 174.281H616.036ZM612.135 177.321L615.415 180.602L602.05 193.967C601.318 192.562 600.172 191.417 598.767 190.686L612.135 177.321ZM612.238 186.922L614.862 189.547L613.205 191.205L614.794 192.794L616.452 191.136L618.558 193.243L615.243 196.558L608.922 190.238L612.238 186.922ZM597.352 192.448C598.678 193.005 599.731 194.059 600.288 195.385L596.626 196.11L597.352 192.448Z" fill="#E5E4F8"/>
<circle cx="112.51" cy="140.862" r="5.13134" transform="rotate(54.0659 112.51 140.862)" stroke="#D5EBE3" stroke-width="3"/>
<circle cx="63.6111" cy="179.488" r="2.55249" transform="rotate(54.0659 63.6111 179.488)" stroke="#D5EBE3" stroke-width="3"/>
<circle cx="63.8029" cy="194.819" r="2.06567" transform="rotate(54.0659 63.8029 194.819)" stroke="#D5EBE3" stroke-width="2.5"/>
<circle cx="571.631" cy="68.4204" r="5.13134" transform="rotate(-90 571.631 68.4204)" stroke="#F8C994" stroke-width="3"/>
<circle cx="612.525" cy="65.8416" r="2.55249" transform="rotate(-90 612.525 65.8416)" stroke="#F8C994" stroke-width="3"/>
<circle cx="621.366" cy="53.3157" r="2.06567" transform="rotate(-90 621.366 53.3157)" stroke="#F8C994" stroke-width="2.5"/>
<path d="M219.436 161.168V162.668H220.936H223.648H225.148V161.168V146.216V144.716H223.648H221.632H221.259L220.929 144.891L216.945 147.003L215.837 147.59L216.219 148.785L216.795 150.585L217.267 152.058L218.725 151.542L219.436 151.29V161.168ZM228.746 158.077L228.292 158.518V159.152V161.168V162.668H229.792H239.176H240.676V161.168V158.72V157.22H239.176H238.96H238.339L238.099 157.46C238.09 157.46 238.081 157.46 238.072 157.46H236.897C237.088 157.26 237.273 157.066 237.452 156.877C238.397 155.897 239.162 154.908 239.719 153.904L239.719 153.904L239.725 153.894C240.328 152.789 240.628 151.589 240.628 150.32C240.628 149.195 240.359 148.141 239.762 147.223C239.198 146.355 238.436 145.684 237.507 145.216C236.573 144.731 235.552 144.5 234.472 144.5C233.182 144.5 231.963 144.811 230.842 145.432L230.842 145.432L230.831 145.437C229.712 146.068 228.815 146.963 228.144 148.088L227.461 149.232L228.517 150.045L230.389 151.485L230.411 151.501L230.432 151.517L230.6 151.637L231.717 152.435L232.611 151.392L232.755 151.224L233.187 150.72L233.132 150.286C233.133 150.285 233.134 150.283 233.135 150.282C233.32 150.078 233.49 149.965 233.64 149.901C233.848 149.813 234.11 149.756 234.448 149.756C234.819 149.756 234.954 149.826 234.983 149.845C235.002 149.876 235.06 149.998 235.06 150.32C235.06 150.759 234.971 151.167 234.792 151.559C234.593 151.978 234.265 152.478 233.769 153.059C233.244 153.659 232.572 154.363 231.747 155.172C230.897 155.989 229.897 156.958 228.746 158.077ZM234.989 149.849C234.989 149.849 234.988 149.849 234.986 149.847C234.988 149.848 234.989 149.849 234.989 149.849ZM234.981 149.842C234.978 149.839 234.976 149.837 234.977 149.837C234.977 149.836 234.978 149.838 234.981 149.842ZM218.501 187.433L218.513 187.437L218.525 187.441C219.515 187.784 220.537 187.956 221.584 187.956C222.801 187.956 223.936 187.718 224.934 187.177C225.895 186.665 226.679 185.961 227.233 185.053L227.237 185.046L227.241 185.039C227.788 184.12 228.052 183.1 228.052 182.016C228.052 181.125 227.88 180.271 227.478 179.505C227.209 178.973 226.863 178.5 226.436 178.099C226.481 178.048 226.524 177.996 226.567 177.943C227.283 177.059 227.62 176.005 227.62 174.864C227.62 173.843 227.355 172.884 226.792 172.04C226.247 171.222 225.499 170.599 224.6 170.159C223.689 169.705 222.679 169.5 221.608 169.5C220.672 169.5 219.743 169.67 218.827 169.994C217.796 170.359 216.916 170.982 216.195 171.826L215.302 172.872L216.267 173.853L217.827 175.437L218.404 176.022V177.384V179.496V180.636L218.139 180.47L217.312 181.572L217.168 181.764L217.149 181.789L217.132 181.815L215.764 183.807L215.117 184.748L215.853 185.622C216.552 186.453 217.452 187.05 218.501 187.433ZM220.719 182.684C220.507 182.593 220.336 182.486 220.194 182.367L220.159 182.228L220.012 181.641L219.499 181.32L219.307 181.2L219.133 181.091L220.07 180.987C221.251 180.856 221.834 181.01 222.074 181.151L222.081 181.154L222.088 181.158L222.092 181.16C222.164 181.202 222.34 181.302 222.34 181.92C222.34 182.307 222.236 182.499 222.117 182.627L222.115 182.629C222.079 182.668 221.948 182.796 221.464 182.796C221.147 182.796 220.905 182.751 220.719 182.684ZM219.929 175.884L219.579 175.878L220.022 175.375C220.234 175.135 220.441 174.996 220.644 174.916L220.657 174.911L220.67 174.906C220.96 174.786 221.238 174.732 221.512 174.732C221.806 174.732 221.876 174.805 221.89 174.819C221.891 174.82 221.891 174.82 221.891 174.821L221.915 174.845L221.941 174.868C221.956 174.882 221.963 174.892 221.972 174.913C221.982 174.939 222.004 175.011 222.004 175.152C222.004 175.276 221.976 175.389 221.902 175.514C221.892 175.527 221.815 175.614 221.551 175.719C221.295 175.812 220.79 175.899 219.929 175.884Z" stroke="#B7B3F8" stroke-width="3"/>
<path d="M605.557 114.924C605.963 113.407 606.785 112.311 608.021 111.635C609.261 110.948 610.678 110.818 612.274 111.246C613.893 111.68 615.069 112.498 615.802 113.702C616.538 114.894 616.692 116.288 616.265 117.884L615.937 119.106C615.528 120.635 614.706 121.731 613.473 122.395C612.239 123.059 610.824 123.178 609.228 122.75C607.621 122.319 606.444 121.507 605.696 120.311C604.963 119.108 604.809 117.714 605.234 116.129L605.557 114.924ZM608.466 117.105C608.284 117.784 608.33 118.384 608.602 118.906C608.889 119.42 609.35 119.762 609.984 119.932C610.618 120.101 611.177 120.027 611.663 119.708C612.149 119.39 612.486 118.879 612.674 118.177L613.01 116.921C613.192 116.242 613.153 115.643 612.891 115.124C612.63 114.605 612.171 114.258 611.515 114.082C610.892 113.915 610.332 113.989 609.835 114.305C609.341 114.609 608.996 115.129 608.798 115.865L608.466 117.105ZM613.648 131.996C614.058 130.468 614.885 129.373 616.129 128.712C617.377 128.039 618.794 127.915 620.378 128.34C621.986 128.771 623.157 129.582 623.894 130.774C624.644 131.958 624.802 133.359 624.369 134.978L624.041 136.2C623.635 137.717 622.819 138.815 621.594 139.494C620.371 140.161 618.951 140.278 617.332 139.844C615.702 139.407 614.521 138.587 613.788 137.384C613.055 136.18 612.896 134.803 613.311 133.253L613.648 131.996ZM616.553 134.194C616.386 134.817 616.448 135.403 616.737 135.954C617.026 136.505 617.476 136.862 618.087 137.026C619.468 137.396 620.364 136.817 620.773 135.288L621.119 133.998C621.301 133.319 621.254 132.724 620.978 132.213C620.706 131.691 620.252 131.345 619.619 131.176C618.985 131.006 618.419 131.079 617.922 131.394C617.428 131.699 617.085 132.207 616.894 132.921L616.553 134.194ZM607.052 134.742L605.004 132.81L622.254 116.723L624.302 118.654L607.052 134.742Z" fill="#FDE9D2"/>
<circle cx="402" cy="130" r="129.5" stroke="#F8C994" stroke-dasharray="5 5"/>
<circle cx="402" cy="130" r="115" fill="#F6F7FB"/>
<path fill-rule="evenodd" clip-rule="evenodd" d="M365.866 79.1328C365.688 82.0545 365.509 84.9758 365.33 87.8975C366.48 87.5663 373.795 85.4139 373.343 87.5963C373.019 89.1615 370.962 90.8546 369.915 91.9444C368.95 92.9477 367.957 93.9248 366.939 94.8734C368.811 94.157 370.698 93.4785 372.599 92.8437C374.037 92.3635 375.486 91.8946 376.959 91.5347C377.506 91.4009 378.984 90.8554 379.5 91.2274C380.858 92.2047 373.49 99.4034 372.481 100.418C373.908 99.7543 375.369 99.1514 376.856 98.6341C377.929 98.2605 381.244 96.833 382.194 98.052C383.21 99.3562 380.692 102.351 379.994 103.301C378.993 104.662 377.909 105.967 376.771 107.215C381.5 111.463 387.057 115.243 392.971 117.593C397.308 119.316 401.567 119.754 406.143 118.809C410.844 117.838 415.352 115.975 419.638 113.845C422.154 112.593 424.638 111.24 427.004 109.719C426.029 108.533 425.082 107.322 424.162 106.092C422.848 104.336 421.234 102.417 420.485 100.327C419.753 98.2815 422.502 98.6809 423.821 98.792C425.731 98.9529 427.635 99.2944 429.507 99.7027C428.184 98.7823 426.884 97.825 425.611 96.8367C423.951 95.5487 421.738 94.0922 420.652 92.2392C419.696 90.6098 421.793 91.0213 422.762 91.2348C425.073 91.744 427.322 92.6115 429.526 93.4577C431.141 94.0775 432.745 94.7264 434.334 95.4099C433.347 94.5527 432.394 93.6544 431.478 92.7229C430.247 91.471 428.587 89.9421 428.035 88.2181C426.91 84.7073 434.473 87.3556 435.764 87.8975C435.525 84.2605 435.287 80.6235 435.049 76.9866C425.035 79.651 415.022 82.3156 405.009 84.9803C403.927 85.2683 402.572 85.8955 401.444 85.9289C400.421 85.9595 399.187 85.4992 398.19 85.3089L380.07 81.8467C375.335 80.9421 370.601 80.0375 365.866 79.1328Z" fill="#B2F4DC"/>
<path fill-rule="evenodd" clip-rule="evenodd" d="M473.488 204.227C472.407 204.846 471.14 205.323 469.939 205.644C469.234 205.832 468.069 206.414 467.449 205.881C467.151 205.625 467.083 205.044 466.908 204.707C466.63 204.174 466.235 203.713 465.865 203.242C464.969 202.1 464.036 200.998 463.059 199.924C462.597 199.415 461.752 198.226 460.937 198.304C459.921 198.402 459.945 199.808 460.2 200.527C461.011 202.814 463.464 204.808 465.067 206.531C464.66 207.158 462.421 207.083 461.8 206.937C460.851 206.713 460.755 206.037 460.322 205.264C459.309 203.458 457.254 202.447 455.565 201.385C454.949 200.998 453.64 199.925 452.838 200.195C452.077 200.451 452.11 201.422 452.352 202.057C452.718 203.016 453.759 203.681 454.529 204.287C455.555 205.095 456.494 205.974 457.35 206.963C456.117 207.063 454.888 207.237 453.658 207.339C452.171 207.461 450.931 206.645 449.562 206.182C448.289 205.752 447.021 205.389 445.77 204.894C444.366 204.337 442.894 204.144 441.477 203.656C435.916 201.74 430.468 199.332 425.109 196.903C422.555 195.746 420.054 194.589 417.394 193.683C415.455 193.023 412.408 191.708 411.944 189.398C411.7 188.178 412.591 186.865 412.722 185.646C412.877 184.212 412.755 182.633 412.318 181.257C411.933 180.045 411.295 178.922 410.792 177.758C410.206 176.401 410.731 176.423 411.869 176.269C413.231 176.084 414.822 175.317 416.102 174.818C417.578 174.242 419.04 173.438 420.391 172.611C421.614 171.863 422.677 170.898 423.65 169.851C424.64 168.786 425.281 167.524 426.237 166.432C429.769 170.776 433.126 175.185 436.878 179.341C438.65 181.302 440.576 182.924 442.758 184.415C443.669 185.039 444.574 185.75 445.567 186.242C446.808 186.858 448.196 187.241 449.473 187.803C454.366 189.959 459.036 192.316 463.601 195.098C465.81 196.444 467.663 197.987 469.608 199.675C470.213 200.201 475.172 203.264 473.488 204.227ZM416.085 168.645C415.294 169.004 414.541 169.469 413.697 169.699C413.936 168.244 415.294 166.048 417.035 166.29C417.701 166.382 418.202 166.899 417.91 167.611C417.644 168.258 416.648 168.39 416.085 168.645ZM361.042 129.174C360.146 129.669 359.31 129.957 358.785 128.895C359.174 128.817 360.943 128.581 361.042 129.174ZM359.55 126.17C358.857 125.96 359.411 125.739 359.649 125.486C359.835 125.289 360.45 124.597 360.665 124.482C361.615 123.979 362.35 125.852 362.804 126.46C361.728 126.364 360.597 126.488 359.55 126.17ZM366.957 132.656C365.644 132.878 365.79 131.235 365.829 130.403C366.106 130.741 367.981 132.482 366.957 132.656ZM371.309 129.818C369.708 130.088 368.65 127.322 368.937 126.113C369.19 125.047 370.43 124.452 371.418 124.295C372.375 124.142 373.708 124.35 373.992 125.454C374.244 126.43 372.376 129.638 371.309 129.818ZM409.204 171.572C408.054 171.926 406.927 171.971 405.77 172.318C404.458 172.711 403.244 172.676 401.93 172.944C401.395 173.053 399.952 173.833 399.43 173.658C398.914 173.486 398.166 171.882 397.869 171.465C400.195 170.498 402.179 169.25 403.712 167.213C404.931 165.593 406.238 163.166 405.471 161.075C404.606 158.718 401.625 158.206 399.637 159.191C398.696 159.656 397.764 160.235 396.989 160.945C396.102 161.756 395.754 162.642 395.179 163.642C394.598 164.654 394.191 164.091 393.611 163.232C393.115 162.497 393.179 161.756 392.559 161.031C392.243 160.661 391.754 160.304 391.589 159.827C391.484 159.524 391.704 158.987 391.506 158.749C391.227 158.414 390.888 158.807 390.654 158.508C390.484 158.291 390.54 157.796 390.364 157.524C390.212 157.37 390.043 157.238 389.856 157.128C389.629 157.016 389.587 156.876 389.731 156.707C389.551 156.373 389.725 156.26 389.338 155.854C388.736 155.22 388.186 154.613 387.758 153.865C387.562 153.523 387.581 153.015 387.337 152.719C387.003 152.312 386.447 152.374 386.159 151.87C385.903 151.421 386.075 150.637 385.653 150.23C385.43 150.166 385.208 150.104 384.985 150.042C384.817 149.879 384.72 149.682 384.692 149.449C384.457 149.088 384.411 148.664 384.115 148.283C383.548 147.554 382.786 146.88 382.286 146.112C381.76 145.304 382.039 145.167 382.953 144.878C383.777 144.617 384.529 144.375 385.293 143.93C388.824 141.875 392.172 136.424 386.567 134.759C384.487 134.141 382.778 132.479 380.472 133.133C379.472 133.416 378.524 134.019 377.778 134.734C377.263 135.229 376.785 136.552 376.153 136.805C375.015 137.261 375.496 136.122 375.173 135.6C375.019 135.35 374.398 135.062 374.168 134.835C373.899 134.569 373.638 134.233 373.45 133.903C373.102 133.292 372.89 132.951 372.388 132.453C372.199 132.265 371.255 131.294 372.106 131.421C371.761 130.37 372.264 130.212 372.96 129.444C373.777 128.542 374.62 127.289 374.625 126.026C374.635 123.6 371.76 122.513 369.955 123.953C369.587 124.246 367.415 127.075 367.859 125.271C368.099 124.298 370.318 121.758 371.347 122.415C370.194 120.735 367.545 124.815 366.927 125.65C366.401 124.681 366.363 123.923 365.492 123.172C364.783 124.31 365.157 123.067 365.001 122.814C364.663 122.268 364.849 122.892 364.666 122.699C364.438 122.457 364.079 122.267 363.836 121.947C363.42 122.511 363.586 121.904 363.459 121.694C363.161 121.201 363.276 120.916 362.766 120.487C362.395 120.176 361.663 119.692 361.163 119.648C360.587 119.597 360.427 119.818 359.84 119.654C359.093 119.446 358.152 119.127 358.514 120.377C358.777 121.285 359.844 121.801 360.078 122.729C360.314 123.663 359.39 124.604 358.942 125.37C358.367 126.352 357.896 126.272 356.854 126.493C356.188 126.635 355.299 126.938 355.87 127.746C356.278 128.323 357.234 128.202 357.773 128.544C358.528 129.023 358.517 130.205 359.481 130.411C360.543 130.637 361.151 129.455 362.046 129.17C362.682 128.967 364.654 128.99 365.155 129.467C365.838 130.119 365.248 131.363 365.42 132.171C365.675 133.371 366.487 133.444 367.513 133.483C368.776 133.53 369.221 134.743 369.9 135.705C371.492 137.959 372.875 140.362 374.505 142.586C375.227 143.571 376.283 144.447 376.874 145.516C377.604 146.836 376.59 147.597 375.716 148.544C374.574 149.782 373.721 151.191 372.73 152.544C371.85 153.746 370.755 153.447 369.348 153.447C369.662 152.801 370.039 152.397 370.811 152.476C370.004 151.491 369.359 152.618 368.836 153.242C368.079 154.144 367.092 154.362 366.12 154.955C365.775 155.165 363.902 156.526 364.471 156.991C364.536 157.044 367.637 155.003 367.991 154.816C367.991 155.569 367.826 156.352 367.931 157.101C368.009 157.65 368.395 158.223 368.313 158.794C368.157 159.872 366.764 160.721 366.166 161.561C365.715 162.193 365.824 162.692 365.595 163.371C365.386 163.99 365.496 163.802 364.975 163.993C363.915 164.383 362.131 164.173 361.171 163.619C360.575 163.275 360.118 162.732 359.634 162.254C359.269 161.893 358.352 161.276 358.251 160.771C358.077 159.902 359.803 158.286 360.145 157.39C361.109 154.858 359.455 152.891 356.88 152.747C357.674 152.135 358.657 152.597 359.494 152.83C358.064 150.849 355.622 152.479 354.409 153.826C353.58 151.731 353.181 149.521 352.675 147.336C352.33 145.849 351.017 143.194 351.602 141.662C351.886 140.922 352.685 140.509 353.237 139.996C353.865 139.412 354.403 138.715 354.862 137.992C355.944 136.291 356.569 134.144 355.079 132.467C355.532 132.393 355.984 132.319 356.437 132.244C355.701 131.552 354.54 131.89 353.584 131.684C352.978 131.554 351.234 131.639 350.83 131.296C350.343 130.883 350.655 128.985 350.672 128.424C350.712 127.111 350.822 125.849 350.967 124.545C351.104 123.312 351.077 121.981 351.331 120.77C351.538 119.787 352.199 119.488 352.961 118.909C354.783 117.524 356.268 115.84 355.646 113.454C355.866 113.419 356.087 113.384 356.307 113.349C355.594 112.834 354.672 113.021 353.879 112.749C354.607 110.699 356.218 107.096 358.833 106.902C358.923 107.818 358.861 108.908 359.479 109.666C360.183 110.529 361.419 110.617 362.372 110.16C363.237 109.745 364.049 108.866 364.448 107.997C364.718 107.409 364.669 106.415 365.142 105.949C365.778 105.324 370.156 105.701 370.022 106.756C369.943 107.376 368.772 108.419 368.445 108.969C367.846 109.975 367.367 111.063 367.147 112.219C366.813 113.973 367.006 116.29 368.788 117.212C370.815 118.262 373.284 116.927 374.946 115.775C375.859 115.142 376.743 114.443 377.577 113.71C378.021 113.319 378.467 112.917 378.858 112.473C379.147 112.145 379.378 111.617 379.734 111.372C380.574 110.792 381.398 111.775 382.109 112.272C383.268 113.082 384.42 113.85 385.663 114.524C388.186 115.89 390.493 117.701 392.724 119.498C394.968 121.307 397.282 123.167 399.099 125.42C397.998 126.097 398.195 126.273 397.705 127.481C397.357 128.338 396.879 129.068 396.823 130.02C396.728 131.664 397.783 133.065 399.385 133.429C400.281 133.632 401.134 133.469 401.964 133.103C402.609 132.818 403.252 132.118 403.925 131.944C405.178 131.621 406.18 133.987 406.882 134.82C410.001 138.522 413.297 142.078 416.233 145.931C416.558 146.358 417.525 147.191 417.603 147.756C417.716 148.568 416.439 149.341 415.91 149.806C415.632 150.05 412.684 152.823 413.674 153.264C413.956 153.39 414.782 151.688 414.988 151.543C415.762 150.998 415.177 152.066 415.131 152.606C415.015 153.947 415.937 154.679 417.232 154.509C418.615 154.327 419.846 153.236 420.701 152.205C421.773 153.447 423.449 155.324 423.759 156.982C423.957 158.042 423.04 160.636 424.752 160.852C425.013 160.885 425.959 160.183 426.135 160.581C426.282 160.914 425.26 161.482 425.112 161.592C424.483 162.062 424.102 162.566 423.594 163.136C422.997 163.804 422.181 164.367 421.509 165.008C420.802 165.683 419.402 167.516 418.468 166.63C417.999 166.185 418.122 165.603 417.371 165.342C416.686 165.104 415.819 165.406 415.183 165.67C414.467 165.966 412.108 167.05 411.846 167.942C411.485 169.172 413.435 167.693 413.781 167.477C413.386 168.48 413.168 169.933 412.161 170.518C411.325 171.004 410.122 171.29 409.204 171.572ZM395.835 163.983C396.504 161.832 400.452 157.996 402.946 159.196C400.039 159.805 397.731 161.795 395.835 163.983ZM397.311 170.144C396.338 169.602 396.391 168.027 396.051 167.106C395.856 166.577 395.466 166.191 395.581 165.604C395.715 164.917 396.592 164.152 397.059 163.656C398.529 162.095 401.115 159.961 403.48 160.319C406.491 160.775 404.45 164.817 403.425 166.209C402.551 167.395 399.184 171.188 397.311 170.144ZM390.287 167.513C387.032 167.296 383.787 167.005 380.575 166.407C379.436 166.195 378.483 166.226 379.134 164.917C379.349 164.485 380.646 161.777 380.939 161.855C381.113 161.901 381.073 163.762 381.124 163.976C381.354 164.934 381.999 165.827 383.088 165.766C384.869 165.666 386.017 163.364 386.954 162.128C387.705 163.138 388.249 164.26 389.004 165.253C389.365 165.728 390.622 166.832 390.287 167.513ZM371.199 154.732C370.653 155.986 369.554 157.178 368.79 158.314C368.358 157.399 368.054 155.3 369.079 154.624C369.467 154.368 371.544 153.94 371.199 154.732ZM382.491 158.465C382.641 157.982 382.808 157.504 382.994 157.034C383.312 158.036 383.475 158.066 382.491 158.465ZM385.278 159.492C385.673 160.162 386.332 160.821 386.229 161.662C386.15 162.299 385.574 162.952 385.163 163.397C384.482 164.131 382.973 165.542 381.987 164.566C381.163 163.751 381.45 161.51 381.833 160.593C382.38 159.282 384.336 157.896 385.278 159.492ZM383.345 158.119C383.571 158.029 383.095 156.567 383.537 156.421C383.922 157.3 384.285 157.538 383.345 158.119ZM377.123 138.443C376.976 137.903 376.64 137.926 376.761 137.259C376.841 136.822 377.188 136.355 377.451 136.008C377.976 135.318 378.668 134.748 379.416 134.317C380.996 133.408 383.166 133.03 384.581 134.454C383.258 134.663 379.204 135.968 379.178 137.777C380.649 137.494 381.805 136.017 383.28 135.551C384.491 135.169 385.804 135.196 387.009 135.599C390.306 136.704 388.935 139.553 387.074 141.404C385.969 142.503 384.645 143.324 383.197 143.89C382.526 144.152 382.115 144.181 381.456 144.049C381.333 144.024 381.189 143.795 381.041 143.746C380.674 143.625 380.78 144.037 380.477 143.852C380.213 143.69 379.65 142.648 379.47 142.349C379.184 141.874 379.051 141.412 378.7 140.978C378.348 140.545 378.177 139.963 377.852 139.57C377.696 139.381 377.268 139.389 377.153 139.205C376.981 138.928 377.2 138.726 377.123 138.443ZM372.06 159.695C372.809 158.393 374.091 157.287 375.083 156.149C375.144 158.02 373.803 159.301 372.06 159.695ZM373.072 160.296C374.62 159.752 375.473 158.449 375.63 156.869C375.831 154.868 377.087 153.818 377.843 152.021C378.133 151.332 378.471 149.065 379.595 149.714C379.981 149.937 380.21 150.774 380.411 151.152C380.897 152.067 381.45 152.953 381.965 153.851C382.385 154.583 383.014 155.318 382.829 156.198C382.668 156.966 382.148 157.784 381.843 158.507C381.125 160.217 380.18 161.792 379.391 163.463C379.073 164.138 378.696 165.735 377.725 165.727C376.955 165.72 377.041 164.879 376.535 164.591C375.896 164.227 375.169 164.919 374.644 165.206C375.248 164.185 376.305 163.607 377.494 163.799C376.071 162.382 375.11 164.294 373.888 164.72C372.731 165.124 370.678 163.221 369.704 162.681C370.077 162.05 370.414 161.278 371.055 160.863C371.663 160.469 372.409 160.53 373.072 160.296ZM360.491 173.246C360.661 172.43 361.139 171.948 361.443 171.207C361.795 172.105 360.971 172.635 360.491 173.246ZM385.078 178.253C384.994 181 384.77 183.741 384.689 186.489C384.652 187.757 384.427 188.966 384.278 190.219C384.152 191.278 384.216 192.319 383.55 193.224C382.498 194.651 380.454 195.061 378.867 195.59C377.701 195.978 376.522 196.33 375.371 196.762C374.336 197.15 373.501 197.738 372.516 198.199C371.635 198.612 370.684 198.856 369.808 199.296C368.901 199.751 368.184 200.305 367.252 200.71C366.137 201.195 365.218 202.057 364.226 202.742C363.353 203.345 362.429 203.81 361.678 204.568C360.974 205.279 360.082 205.591 359.284 206.222C358.44 206.89 357.557 207.325 356.624 207.848C354.714 208.922 352.137 210.755 349.839 209.712C350.496 208.872 351.842 208.066 351.944 206.909C352.077 205.401 350.765 205.956 350.006 206.438C348.855 207.166 348.219 208.046 347.343 209.018C346.319 210.153 345.026 209.389 343.773 209.07C344.63 208.299 345.479 207.52 346.334 206.748C347.056 206.096 348.161 205.391 348.6 204.489C348.915 203.845 348.899 202.961 348.141 202.626C347.293 202.252 346.334 203.041 345.705 203.511C344.038 204.759 342.939 206.341 341.844 208.078C341.262 209.001 340.994 208.93 339.922 208.746C338.787 208.55 337.651 208.342 336.506 208.205C338.023 206.647 339.718 204.959 340.915 203.137C341.303 202.546 341.81 200.99 340.627 200.847C340.14 200.788 339.17 201.784 338.794 202.053C337.152 203.227 335.573 204.707 334.484 206.421C334.125 206.987 334.012 207.617 333.316 207.663C332.406 207.725 330.716 206.857 329.838 206.588C331.515 204.474 333.181 202.344 335.141 200.479C336.941 198.766 338.737 197.521 340.843 196.207C343.1 194.798 345.202 193.176 347.274 191.512C349.258 189.919 351.33 188.416 353.156 186.638C356.803 183.084 360.051 178.998 362.741 174.677C363.37 173.666 363.963 172.629 364.475 171.553C364.956 170.543 365.178 169.334 365.827 168.416C366.051 168.098 366.367 167.862 366.567 167.531C366.756 167.219 366.692 166.842 366.98 166.566C367.645 165.927 368.856 166.312 369.477 166.76C370.477 167.479 371.286 168.353 372.384 168.955C373.49 169.561 374.685 170.002 375.909 170.299C378.769 170.995 381.604 171.565 384.518 171.988C384.218 173.1 384.954 173.275 385.198 174.275C385.494 175.489 385.115 177.016 385.078 178.253ZM357.539 159.711C356.891 158.748 356.312 157.741 355.675 156.771C355.286 156.18 354.805 155.546 355.137 154.824C355.696 153.606 357.667 153.389 358.737 153.92C361.169 155.127 358.91 158.578 357.539 159.711ZM351.102 137.677C350.878 135.794 351.598 134.458 353.302 133.471C354.516 132.767 355.493 133.729 355.328 135.012C355.075 136.966 352.987 139.14 351.393 140.16C351.289 139.333 351.201 138.505 351.102 137.677ZM350.842 132.289C351.345 131.891 352.69 132.4 353.273 132.434C352.472 133.134 351.671 133.833 350.87 134.533C350.818 134.053 350.379 132.658 350.842 132.289ZM353.544 114.104C357.596 113.577 352.932 117.925 351.757 118.607C351.948 117.682 352.418 114.251 353.544 114.104ZM364.331 106.491C363.787 108.72 359.557 111.151 359.513 107.501C359.496 106.14 360.26 106.25 361.376 106.12C362.012 106.046 364.642 105.217 364.331 106.491ZM349.721 109.943C349.246 111.189 348.866 112.467 348.4 113.715C348.194 114.267 347.951 114.647 347.567 115.085C347.246 115.451 346.863 115.543 346.876 116.122C347.279 116.044 347.594 115.804 347.919 115.573C347.84 116.72 347.435 117.954 347.239 119.097C347.003 120.468 346.808 121.84 346.735 123.23C346.578 126.253 346.576 129.265 346.643 132.289C346.676 133.831 346.692 135.373 346.775 136.912C346.816 137.678 346.863 138.447 346.958 139.209C346.996 139.516 347.219 140.17 347.082 140.458C346.54 141.589 344.143 138.483 343.102 138.939C343.252 138.078 342.906 138.267 342.33 137.844C342.05 137.639 341.868 137.29 341.577 137.107C341.489 137.012 341.392 136.927 341.286 136.853C341.165 136.689 341.038 136.706 340.905 136.906C339.732 136.204 339.429 134.71 338.799 133.705C338.475 133.188 338.162 133.107 338.107 132.393C338.059 131.77 338.153 131.136 338.128 130.51C338.099 129.805 338.058 129.027 337.86 128.344C337.63 127.551 337.314 127.616 336.699 127.193C336.889 127.11 337.014 126.971 337.074 126.776C336.878 126.811 336.28 127.054 336.132 126.879C335.84 126.535 336.529 126.489 336.71 126.352C335.938 126.009 336.104 125.728 336.382 125.099C336.461 124.922 336.537 124.656 336.604 124.506C336.75 124.179 336.834 124.386 336.883 123.979C336.929 123.592 336.585 122.829 336.484 122.416C336.314 121.722 336.22 121.123 336.372 120.401C336.496 119.816 336.829 119.287 336.852 118.686C336.858 118.517 336.601 118.461 336.598 118.298C336.593 118.059 336.815 117.955 336.873 117.735C337.02 117.171 336.954 116.575 337.206 116.041C337.434 115.56 337.893 114.939 338.218 114.52C338.443 114.229 338.995 113.902 339.056 113.519C339.096 113.265 338.7 113.294 338.718 113.102C338.742 112.843 338.959 112.759 339.019 112.567C339.184 112.038 339.225 111.531 339.65 111.126C340.185 110.616 340.417 110.829 340.439 109.989C340.45 109.578 340.122 109.515 340.298 109.042C340.393 108.786 340.675 108.634 340.855 108.452C341.391 107.912 341.751 107.433 342.132 106.766C342.469 106.177 343.007 105.834 343.352 105.325C343.801 104.662 343.129 104.333 344.042 104.146C343.912 103.734 343.774 103.401 344.115 103.052C344.331 102.833 344.877 102.967 345.067 102.713C345.286 102.421 344.963 101.729 345.292 101.539C345.559 101.386 345.96 101.86 346.381 101.625C346.701 101.446 347.185 100.457 347.082 100.094C347.91 100.56 347.704 100.239 348.1 99.6412C348.189 99.5072 348.458 99.4775 348.535 99.3421C348.688 99.0717 348.653 98.7961 348.874 98.5762C349.241 98.2102 349.842 98.3042 350.247 98.0428C350.581 97.8269 350.563 97.5941 350.83 97.3903C351.057 97.2163 351.431 97.1828 351.653 97.0025C352.087 96.6492 352.091 96.2761 352.634 95.9717C353.277 95.6115 353.846 95.305 354.43 94.8274C354.812 94.5162 355.173 93.9643 355.619 93.759C356.236 93.4749 356.716 93.4549 357.32 93.0497C357.756 92.7566 358.168 92.2732 358.596 92.0262C358.919 91.8403 359.145 91.8804 359.552 91.765C360.285 91.5573 360.463 90.8672 361.06 90.5863C361.471 90.3933 362.068 90.57 362.518 90.4686C363.92 90.1539 365.305 89.4752 366.711 89.0992C368.428 88.6405 370.157 88.2387 371.887 87.8333C370.297 89.9881 368.272 91.9322 366.219 93.6437C365.544 94.2055 361.85 96.7666 363.842 97.8603C364.641 98.2992 366.377 96.8814 367.023 96.5349C368.322 95.8369 369.668 95.2782 371.029 94.7137C373.229 93.8008 376.096 92.1774 378.541 92.308C377.052 94.1344 375.194 95.6007 373.491 97.2142C371.926 98.6971 369.569 100.088 370.307 102.515C368.109 101.956 366.134 101.295 363.849 101.441C362.825 101.507 361.801 101.383 360.782 101.527C359.674 101.684 358.631 102.054 357.566 102.38C356.724 102.637 355.793 102.657 355.018 103.085C354.643 103.292 354.18 103.587 353.844 103.844C353.395 104.186 353.293 104.413 352.941 104.864C351.684 106.473 350.468 107.982 349.721 109.943ZM342.847 140.401C342.778 140.122 342.716 139.868 342.637 139.55C343.337 139.981 343.337 139.981 342.847 140.401ZM337.56 131.53C337.474 131.649 337.111 131.688 337.006 131.585C336.875 131.457 337.22 130.958 337.275 130.853C337.411 130.957 337.725 131.301 337.56 131.53ZM336.062 128.302C336.155 127.961 336.248 127.621 336.34 127.281C336.454 127.596 336.967 127.945 336.978 128.246C336.985 128.445 336.164 128.346 336.062 128.302ZM336.36 128.768C337.162 129.297 337.246 129.92 337.27 130.832C336.31 130.514 336.447 129.584 336.36 128.768ZM350.318 92.7761C350.237 92.9954 349.893 93.6787 349.641 93.2008C349.561 93.0478 350.151 92.839 350.318 92.7761ZM350.088 92.0312C350.286 91.8525 350.686 92.0749 350.911 91.9304C351.068 91.829 351.016 91.7263 351.09 91.6663C351.104 91.6542 351.318 91.2213 351.406 91.1231C351.561 90.9504 351.898 90.8427 352.086 90.6869C352.612 90.2511 352.909 89.6782 353.239 89.0955C353.634 88.3996 353.76 88.3191 354.396 88.0005C354.835 87.7809 355.175 87.5121 355.532 87.1387C355.944 86.7087 355.913 86.401 356.251 85.931C356.418 85.699 356.658 85.6703 356.853 85.4834C357.086 85.2596 357.204 84.9465 357.42 84.7206C357.513 84.6229 357.812 84.6232 357.868 84.5395C357.94 84.4336 357.996 84.0102 358.063 83.9323C358.192 84.1061 358.321 84.2799 358.449 84.4536C358.956 83.5616 359.326 82.8246 360.175 82.2309C361.065 81.6074 361.834 80.6954 362.755 80.1372C362.962 80.0119 363.384 79.9589 363.542 79.7741C363.809 79.4613 363.578 79.183 363.773 78.9173C363.994 78.6161 364.422 78.8599 364.704 78.7301C365.06 78.5658 365.161 78.0859 365.62 78.1388C364.113 79.9215 364.132 82.6954 364.052 84.922C364.017 85.8815 364.621 86.3651 363.729 87.0692C362.97 87.6682 361.9 87.4905 361.003 87.8846C359.877 88.3796 358.672 88.6429 357.522 89.0744C356.334 89.5205 355.378 90.3017 354.233 90.8185C353.224 91.274 352.535 91.9217 351.612 92.4841C351.269 92.6932 350.738 92.9967 350.329 92.7469C350.073 92.5902 349.754 92.333 350.088 92.0312ZM367.107 77.0832C367.173 76.8299 368.459 76.1643 368.775 75.9471C369.25 75.6206 369.953 74.8234 370.483 75.1401C370.667 74.4045 371.384 73.5859 372.017 73.43C372.719 73.2568 373.925 72.6544 374.616 72.1286C374.817 71.9751 374.884 71.7505 375.122 71.6065C375.535 71.3555 375.946 71.4924 376.344 71.1504C376.405 71.0983 376.956 70.1881 376.978 70.1968C377.006 70.2945 377.032 70.3932 377.054 70.4925C377.473 70.2605 377.845 70.0759 378.106 69.78C378.165 69.7128 377.782 69.5383 377.903 69.4053C378.051 69.2426 378.382 69.4245 378.531 69.27C378.066 71.5817 378.412 74.5572 380.757 75.7291C377.968 76.0306 375.244 75.192 372.421 75.707C371.07 75.9537 369.696 76.3584 368.466 76.98C367.713 77.361 366.75 78.7254 366 78.063C366.298 77.6662 366.752 77.4197 367.107 77.0832ZM380.64 70.4327C381.683 69.157 383.265 68.6523 384.858 69.1091C386.723 69.6441 385.937 70.9474 385.655 72.3945C385.117 71.6054 383.951 70.8226 382.958 70.7989C381.55 70.7655 382.082 71.9382 382.927 72.3584C383.696 72.7402 385.014 72.8466 385.564 73.5409C386.099 74.2165 385.894 75.3213 385.98 76.118C385.564 76.0561 385.148 75.9943 384.731 75.9324C385.081 74.073 383.543 73.9829 382.11 73.4587C380.661 72.9292 379.453 71.8845 380.64 70.4327ZM385.311 65.854V67.5796C384.732 67.2489 384.152 66.9185 383.571 66.5878C384.152 66.3432 384.732 66.0986 385.311 65.854ZM389.973 79.6425C391.91 80.1672 393.833 80.7225 395.695 81.4465C396.371 81.7096 397.111 81.8025 397.774 82.0995C398.405 82.382 398.499 82.3525 398.275 82.9055C397.647 84.4544 396.157 84.1869 394.853 83.9499C392.811 83.579 390.811 83.0648 388.794 82.5808C386.823 82.1082 384.811 81.7983 382.869 81.2059C380.877 80.5982 378.936 80.0227 376.887 79.6214C376.289 79.5042 371.558 79.0703 371.594 78.5759C374.574 78.1888 377.641 78.5701 380.634 78.6103C383.744 78.6522 386.957 78.8247 389.973 79.6425ZM387.345 73.6507C387.382 72.5856 387.396 71.5172 387.529 70.4585C388.415 71.5525 389.215 71.88 390.332 70.8545C391.402 69.8729 391.641 69.3611 392.997 70.2839C394.173 71.0843 395.285 71.0475 396.534 70.3469C397.295 69.9195 398.519 68.1734 399.32 68.5328C399.701 68.7042 399.981 69.3948 400.366 69.6489C400.849 69.9672 401.593 70.1881 402.156 70.3116C403.486 70.603 404.279 69.7473 405.114 68.8321C406.325 67.5049 406.289 68.2758 407.412 69.196C408.665 70.2226 409.712 69.721 410.846 68.845C411.536 70.869 411.795 73.0793 411.99 75.2012C412.056 75.9176 412.302 76.935 411.658 77.4416C411.205 77.7989 410.242 77.8128 409.696 78.0103C407.743 78.7162 405.868 79.7175 404.235 80.9995C403.599 81.4989 403.044 82.1106 402.175 81.9968C401.347 81.8884 400.542 81.1948 399.875 80.737C399.152 80.2404 398.421 79.6764 397.575 79.3997C397.081 79.2375 396.288 79.2962 395.855 78.999C395.05 78.4463 395.997 76.9966 395.797 76.0235C395.645 75.2847 395.22 73.7441 394.202 74.1773C392.688 74.8215 393.569 77.3368 394.402 78.1219C392.698 77.8194 390.812 77.3776 389.169 76.8163C387.9 76.3826 387.299 74.9498 387.345 73.6507ZM415.915 78.8381C419.412 77.8563 422.684 77.1941 426.323 77.0153C427.934 76.9361 429.494 76.9861 431.087 77.0006C432.004 77.009 432.703 76.2694 431.97 75.4187C430.956 74.2407 427.863 74.6891 426.493 74.6362C422.82 74.4943 419.452 74.9118 415.973 76.1227C416.341 75.445 417.224 75.3571 417.83 75.0066C418.573 74.5764 419.078 73.8679 419.396 73.0814C420.222 71.0362 419.39 69.1088 418.526 67.2405C420.224 67.6971 421.979 68.6968 423.685 68.9506C424.043 69.0038 424.272 68.9696 424.589 69.0999C424.783 69.1797 424.844 69.4559 425.085 69.5162C425.201 69.5454 425.481 69.2826 425.612 69.3197C426.132 69.4667 425.721 69.5056 426.05 69.7184C426.31 69.8871 426.289 70.1044 426.768 70.0246C426.98 69.9896 427.209 69.6615 427.321 69.6525C427.464 69.641 427.431 69.4677 427.649 69.5183C428.045 69.6104 428.01 70.1209 428.142 70.3721C428.283 70.6396 428.083 70.9953 428.51 71.1417C428.83 71.2513 428.91 70.9137 429.182 70.938C429.347 70.9527 429.689 71.1904 429.835 71.3353C430.305 71.8018 430.948 72.3171 431.579 72.6207C431.517 72.5583 431.877 72.4079 431.791 72.3726C431.733 72.3492 432.111 72.4403 432.105 72.439C432.469 72.5219 432.662 73.0817 432.846 73.2857C433.185 73.6599 433.711 74.0548 434.186 74.2199C435.007 74.5056 434.982 74.1641 435.282 75.1399C435.866 74.222 436.09 75.7591 436.814 75.9284C437.189 76.0161 437.145 75.8555 437.486 76.0517C437.72 76.1862 437.876 76.5982 438.052 76.797C438.128 76.5103 438.203 76.2233 438.279 75.9369C438.8 76.9247 439.925 78.4913 441.16 78.208C441.16 78.4776 441.049 78.7999 441.258 79.03C441.403 79.1909 441.639 79.0082 441.753 79.1017C441.853 79.1833 442.091 79.5082 442.167 79.5616C442.317 79.6669 442.59 79.7438 442.721 79.8489C442.836 79.9413 442.893 80.3828 443.02 80.5424C443.26 80.8423 443.674 80.9018 443.87 81.2615C443.915 80.9068 443.96 80.5519 444.004 80.1972C444.393 80.4976 444.426 80.7309 444.522 81.1704C444.658 81.7962 444.477 81.6495 444.909 81.9136C445.333 82.1735 445.554 82.1443 445.943 82.595C446.325 83.0368 446.328 83.3091 446.878 82.8489C446.98 83.1893 447.013 83.6298 447.286 83.8907C447.493 84.0879 448.347 84.0963 448.428 84.5621C446.824 83.208 447.88 85.2646 448.429 84.5655C448.545 85.3138 449.093 85.5555 449.718 86.0884C450.302 86.585 450.397 86.5489 450.596 87.3833C450.592 87.3649 450.889 87.5494 450.911 87.5863C450.343 87.6674 451.224 88.3025 451.373 88.4186C451.481 88.5034 451.623 88.3009 451.803 88.4381C452.01 88.595 452.178 88.9517 452.346 89.1669C452.801 89.7501 453.138 90.2511 453.618 90.7253C454.135 91.2371 454.387 91.8841 454.883 92.4823C455.434 93.1466 455.732 93.9104 456.193 94.6315C456.631 95.3174 457.213 95.868 457.72 96.4959C458.528 97.4954 458.803 99.6965 460.31 99.7544C460.222 99.8458 460.345 100.528 460.359 100.654C460.431 101.273 460.383 101.869 460.75 102.431C460.834 101.79 461.169 102.037 461.46 102.373C461.943 102.933 461.519 102.792 461.544 103.359C461.575 104.046 461.653 103.515 461.915 104.115C462.12 104.585 462.232 104.889 462.342 105.411C461.491 105.478 461.101 104.783 460.786 104.109C460.655 103.827 460.609 103.363 460.376 103.143C460.129 102.908 459.788 102.89 459.534 102.628C459.045 102.125 458.833 101.341 458.257 100.852C457.606 100.299 457.462 100.038 456.924 99.3766C456.329 98.6454 455.507 98.132 454.882 97.4248C454.257 96.7163 454.308 97.1031 453.522 96.8466C452.687 96.5736 451.336 93.9472 450.284 94.9588C450.326 94.2971 449.335 93.6747 448.834 93.4349C448.617 93.3314 448.365 93.4251 448.148 93.2698C447.913 93.1013 447.896 92.7764 447.659 92.5742C447.66 92.5744 447.296 92.6623 447.222 92.6252C447.072 92.5491 447.071 92.28 446.939 92.1916C446.572 91.9465 446.135 91.6895 445.745 91.4807C444.799 90.9733 443.963 90.3485 443.05 89.7377C442.269 89.2142 441.322 88.269 440.418 87.9931C439.628 87.7522 439.132 87.8749 438.486 87.3923C438.133 87.1295 438.237 87.0413 437.671 86.8778C437.132 86.7222 436.83 86.8022 436.544 86.2309C436.045 85.2311 436.36 83.2799 436.264 82.1588C436.161 80.9689 436.039 79.7496 435.729 78.5927C435.362 77.2254 434.877 76.5106 433.411 76.8326C430.505 77.4713 427.634 78.079 424.715 78.6398C418.898 79.7573 413.18 81.5808 407.491 83.1998C407.058 83.3233 404.64 83.8768 405.134 82.6266C405.362 82.05 406.892 81.8352 407.404 81.654C410.216 80.6588 413.041 79.6448 415.915 78.8381ZM414.938 76.2936C414.513 76.4555 414.088 76.6175 413.663 76.7797V75.5983C414.088 75.83 414.513 76.0617 414.938 76.2936ZM413.172 70.047C413.541 70.3487 414.292 69.6225 414.606 69.4754C415.142 69.2242 415.824 69.0085 416.423 69.0601C417.528 69.1557 418.336 70.2434 418.134 71.3461C417.791 73.2118 415.133 74.0941 413.667 74.8234C413.62 74.1623 413.406 73.3674 413.87 72.7955C414.272 72.2989 415.053 72.335 415.425 71.8068C416.359 70.4793 413.826 70.359 413.26 71.4145C413.037 70.74 412.813 70.0654 412.59 69.3908C413.129 69.3016 412.892 69.8184 413.172 70.047ZM415.787 66.3951C415.259 66.736 414.732 67.077 414.204 67.418C413.943 66.2376 414.834 66.0823 415.787 66.3951ZM463.846 107.477C463.155 107.807 462.982 107.02 462.486 106.986C463.072 106.625 463.072 106.625 463.846 107.477ZM466.655 124.666C466.741 125.798 466.673 126.942 466.824 128.069C466.939 128.926 467.286 129.724 467.323 130.591C467.404 132.49 466.763 134.424 465.468 135.816C464.243 137.132 462.491 138.266 460.837 138.819C460.092 139.068 459.314 139.621 458.591 139.825C457.79 140.052 457.03 139.56 456.369 140.442C455.929 136.656 456.251 132.701 456.216 128.891C456.181 125.073 456.222 121.254 455.576 117.478C455.001 114.114 453.867 110.331 451.777 107.579C450.928 106.462 449.883 105.546 448.781 104.69C448.209 104.245 447.637 103.77 447 103.419C446.019 102.879 445.184 102.953 444.118 102.799C442.592 102.579 441.173 102.393 439.641 102.823C438.215 103.223 436.645 103.679 435.368 104.374C434.096 105.066 432.618 105.352 431.297 105.972C430.399 106.394 428.533 107.804 427.536 107.55C426.571 107.304 425.142 105.667 424.526 104.933C423.739 103.996 423.087 102.909 422.389 101.9C422.144 101.546 421.644 100.999 421.58 100.544C421.469 99.7547 421.785 100.013 422.539 100.101C424.478 100.328 426.302 100.688 428.16 101.298C429.085 101.602 430.893 102.831 431.818 102.094C433.23 100.97 431.084 99.0385 430.298 98.3895C428.96 97.2837 427.403 96.4625 425.976 95.4799C424.459 94.4356 422.454 93.324 421.479 91.7161C424.328 92.5573 427.175 93.5207 429.941 94.6052C431.207 95.1012 432.458 95.6255 433.646 96.2853C434.314 96.6557 435.663 97.6578 436.467 97.1778C438.215 96.1344 434.201 93.1042 433.621 92.4849C432.721 91.5226 431.84 90.5694 430.85 89.6963C430.183 89.1074 429.134 88.6932 428.824 87.8243C429.932 88.2253 430.827 89.0107 431.865 89.5444C432.408 89.824 432.903 89.9849 433.503 90.0705C434.142 90.1621 434.219 90.264 434.722 90.5181C435.115 90.7163 435.518 90.9812 435.958 91.116C436.272 91.2121 436.82 91.2287 437.095 91.4067C437.235 91.6068 437.38 91.8035 437.529 91.9967C437.697 92.046 437.861 92.1026 438.024 92.1671C438.267 92.3841 438.411 92.6832 438.648 92.907C440.366 94.5315 442.664 95.6942 444.59 97.0552C446.412 98.3427 448.346 99.5075 450.096 100.913C452.11 102.53 454.2 104.268 455.913 106.208C456.881 107.304 457.677 108.547 458.49 109.759C459.079 110.636 459.935 111.364 460.444 112.269C461.554 114.242 462.475 116.375 463.669 118.316C464.886 120.293 466.472 122.259 466.655 124.666ZM450.284 136.113C450.616 134.744 452.488 133.145 453.685 132.542C453.082 134.034 451.475 135.051 450.284 136.113ZM453.371 140.889C452.351 143.007 447.863 143.249 448.472 140.116C448.77 138.58 450.037 137.638 451.123 136.634C451.626 136.169 452.856 134.508 453.634 134.776C453.598 135.97 453.528 137.169 453.53 138.364C453.532 139.161 453.733 140.14 453.371 140.889ZM452.074 116.485C452.488 117.415 452.901 118.189 452.133 119.021C451.786 119.396 450.657 120.218 450.146 120.035C448.505 119.45 451.633 116.903 452.074 116.485ZM442.153 108.21C442.548 108.189 442.932 108.248 443.322 108.224C443.711 108.199 443.752 108.13 444.113 108.18C444.151 108.235 444.189 108.29 444.227 108.345C444.276 108.716 444.471 108.757 444.811 108.467C445.284 108.572 445.592 108.642 446.045 108.898C444.823 109.779 443.337 110.803 441.839 111.098C439.472 111.565 440.126 108.322 442.153 108.21ZM405.87 128.016C405.624 128.51 404.918 127.276 404.744 127.046C405.069 127.045 406.118 127.518 405.87 128.016ZM424.886 115.02C426.725 113.947 428.909 113.005 430.884 112.206C431.232 113.879 429.538 116.039 428.495 117.184C427.651 118.11 426.634 119.07 425.49 119.603C424.254 120.179 422.903 119.926 422.962 118.31C422.985 117.719 423.119 116.768 423.359 116.228C423.67 115.532 424.256 115.388 424.886 115.02ZM400.029 84.5842C400.303 84.5682 403.276 84.1838 403.26 84.5537C403.213 85.6656 400.328 84.7925 400.029 84.5842ZM379.005 106.053C380.575 104.116 383.11 102.024 383.148 99.3163C383.202 95.3316 378.78 97.3198 376.557 97.4854C377.732 96.3303 383.64 91.4844 380.146 89.7632C379.141 89.2685 377.714 89.7519 376.706 90.011C374.918 90.471 373.255 91.2674 371.498 91.8217C372.754 90.4854 374.922 88.9668 374.851 86.9431C374.765 84.4797 372.743 85.0753 370.994 85.4368C370.322 85.5758 367.321 86.7698 366.757 85.9591C366.55 85.6622 366.884 85.2849 366.955 85.0205C367.08 84.5526 367.041 84.3894 367.046 83.9115C367.054 82.9473 367.695 81.7093 367.172 80.8125C367.053 81.0163 366.951 81.2283 366.866 81.4487C366.693 80.9268 366.809 80.3734 366.637 79.8515C371.002 80.9679 375.443 81.579 379.835 82.5318C382.059 83.0142 384.152 83.8449 386.406 84.2188C388.679 84.5955 390.913 85.1724 393.19 85.5318C395.268 85.8596 397.259 86.4054 399.317 86.8241C401.323 87.2322 403.38 86.3378 405.338 85.8849C409.724 84.8707 414.108 83.8317 418.499 82.8475C423.566 81.7114 428.837 80.7401 433.687 78.8455C433.781 81.3707 433.983 83.8912 434.292 86.3991C432.15 85.3865 428.971 84.0661 426.806 85.8781C425.939 86.6029 425.672 87.8546 426.015 88.9191C426.387 90.0779 427.529 90.616 428.283 91.4883C425.99 90.9004 420.074 86.7553 419.02 90.9451C418.277 93.9043 421.905 95.8158 423.679 97.4814C421.917 97.1365 419.558 95.7281 418.523 97.9917C417.629 99.9485 418.706 102.078 419.809 103.692C420.407 104.566 421.079 105.389 421.714 106.236C422.05 106.685 422.378 107.139 422.732 107.574C423.086 108.01 423.754 108.467 424.002 108.937C424.501 109.883 423.493 109.941 422.709 110.283C421.73 110.71 420.89 111.428 419.994 111.999C417.944 113.308 416.153 114.524 413.73 114.942C411.236 115.373 408.835 115.822 406.374 116.423C403.92 117.022 401.917 117.597 399.409 116.823C398.266 116.47 397.334 116.157 396.122 116.223C394.848 116.293 394.103 116.227 393.056 115.438C388.549 112.043 383.657 109.258 379.005 106.053ZM370.88 102.645C372.622 101.772 374.375 100.893 376.174 100.142C377.664 99.5204 379.925 98.7961 381.556 99.0686C381.096 100.249 380.257 101.218 379.358 102.087C378.562 102.856 377.568 104.016 376.606 104.553C375.731 105.04 374.714 104.269 373.852 103.945C372.905 103.59 371.601 103.425 370.88 102.645ZM371.318 107.055C372.186 106.694 374.051 107.904 374.841 108.219C376.392 108.838 377.952 109.484 379.319 110.46C377.65 112.389 375.759 114.153 373.512 115.393C372.034 116.208 369.543 117.143 368.148 115.663C366.396 113.802 368.502 110.011 369.743 108.417C369.784 108.69 369.825 108.962 369.866 109.235C370.262 108.602 370.564 107.368 371.318 107.055ZM403.184 123.568C402.101 123.796 401.733 123.59 401.018 122.76C400.535 122.199 400.06 121.616 399.515 121.111C398.959 120.596 397.586 119.354 399.336 120.069C400.93 120.721 402.297 121.047 404.051 120.791C406.058 120.5 407.928 119.651 409.906 119.222C408.822 120.171 407.745 121.129 406.659 122.075C405.511 123.075 404.642 123.261 403.184 123.568ZM403.432 131.2C401.058 132.986 396.281 132.793 397.889 128.863C398.133 128.267 398.475 127.705 398.87 127.197C399.002 127.027 399.237 126.675 399.425 126.561C399.95 126.243 399.804 126.204 400.309 126.735C400.744 127.193 404.147 130.934 403.432 131.2ZM402.728 124.372C402.945 124.302 403.861 123.771 404.07 124.065C404.281 124.362 402.485 125.391 402.728 124.372ZM420.004 151.609C419.471 152.886 415.2 154.734 415.996 152.161C416.348 151.021 416.681 150.158 418.01 150.071C418.777 150.021 420.474 150.485 420.004 151.609ZM427.665 134.308C428.368 133.284 430.689 131.9 431.68 133.426C432.158 134.162 430.999 134.538 430.298 134.349C429.922 134.248 429.614 134.023 429.205 134.006C428.679 133.984 428.165 134.397 427.665 134.308ZM429.528 135.324C429.05 135.808 426.167 138.234 425.7 137.859C426.642 136.513 427.723 135.01 429.528 135.324ZM424.82 159.873C423.819 159.93 424.318 158.421 424.415 157.818C424.658 158.238 425.932 159.811 424.82 159.873ZM427.363 157.169C427.04 156.593 426.167 155.735 426.364 154.994C426.515 154.427 427.877 153.665 428.448 153.99C429.205 154.422 428.107 157.265 427.363 157.169ZM451.119 151.126C450.69 152.602 450.247 152.221 448.904 152.507C447.557 152.794 446.625 153.938 445.439 154.551C445.851 153.68 446.107 152.619 446.797 151.912C446.956 151.749 447.934 151.427 447.377 151.049C446.89 150.718 446.19 151.791 445.981 152.083C444.953 153.521 444.235 155.278 443.642 156.933C443.35 157.746 443.116 158.574 442.978 159.427C442.855 160.188 442.988 160.984 442.862 161.725C442.66 162.918 441.04 162.924 440.065 163.232C439.183 163.51 438.304 163.812 437.388 163.962C436.594 164.092 435.77 163.855 435.001 164.012C434.168 164.181 433.793 164.675 432.846 164.564C432.074 164.473 431.352 164.117 430.569 164.082C429.836 164.049 429.106 164.302 428.378 164.096C427.643 163.888 427.679 163.807 427.846 163.085C427.95 163.28 428.055 163.475 428.16 163.67C428.452 163.44 428.655 162.74 428.834 162.411C429.113 161.902 429.339 161.726 429.236 161.091C429.084 160.155 428.24 159.488 428.048 158.597C427.848 157.668 428.536 156.907 428.942 156.131C429.497 155.069 429.49 154.281 429.025 153.182C429.375 153.275 429.726 153.368 430.078 153.461C429.596 152.416 427.965 152.84 427.147 153.149C426.735 153.304 426.084 153.915 425.641 153.9C425.033 153.879 424.716 153.079 424.455 152.639C423.699 151.365 422.836 150.108 421.941 148.925C421.695 148.6 421.373 148.391 421.458 148.02C421.53 147.706 422.235 147.26 422.464 147.066C423.322 146.341 424.414 145.939 425.22 145.175C426.438 144.021 427.842 143.195 429.087 142.063C430.384 140.885 431.721 139.803 433.072 138.69C434.441 137.562 435.627 136.233 436.987 135.094C437.339 135.732 438.021 138.017 438.801 138.194C439.711 138.4 439.684 137.324 439.639 136.676C439.574 135.753 439.062 134.856 439.005 133.975C438.943 133.033 439.85 132.611 440.534 132.066C441.591 131.224 443.93 129.307 442.673 127.728C441.59 126.368 438.068 128.975 437.097 129.759C436.272 130.425 435.634 131.028 434.705 131.553C434.052 131.922 432.956 133.343 432.182 133.211C431.261 133.056 430.901 132.05 429.775 132.083C428.674 132.115 427.738 132.908 427.056 133.704C425.512 135.504 424.982 137.912 423.575 139.788C422.882 140.713 421.982 141.477 421.23 142.352C420.404 143.312 420.229 144.419 419.414 145.359C417.083 142.254 414.543 139.313 412.085 136.31C410.858 134.81 409.656 133.293 408.455 131.772C408.004 131.202 407.497 130.667 407.084 130.068C406.52 129.248 406.621 128.59 406.4 127.675C406.302 127.27 405.841 126.785 405.965 126.397C406.13 125.877 407.294 125.468 407.714 125.256C409.427 124.386 410.981 123.298 412.579 122.236C415.538 120.268 418.531 118.423 421.678 116.742C421.624 117.467 421.152 118.217 421.469 118.943C421.616 118.525 421.85 116.664 422.408 116.584C422.301 116.599 422.389 118.971 422.475 119.31C422.733 120.321 423.48 121.012 424.549 121.005C426.585 120.992 428.41 118.777 429.54 117.31C430.305 116.316 431.04 115.161 431.31 113.918C431.552 112.801 431.285 112.025 432.446 111.458C434.827 110.295 437.227 109.347 439.774 108.731C439.66 109.828 439.342 111.179 440.339 111.968C441.44 112.84 442.881 112.063 443.917 111.487C444.944 110.916 446.527 109.348 447.733 109.803C448.92 110.251 449.745 111.739 450.409 112.727C450.994 113.598 451.631 114.226 450.954 115.196C450.194 116.284 449.7 117.345 449.091 118.527C448.857 118.981 448.634 119.277 448.799 119.742C448.853 119.894 449.463 120.793 449.628 120.921C450.685 121.744 452.112 120.18 452.866 119.586C453.132 122.143 453.191 124.688 453.299 127.252C453.377 129.131 454.105 130.98 452.563 132.353C451.022 133.725 449.736 135.135 448.797 136.993C448.295 137.986 447.845 139.005 447.302 139.977C446.94 140.627 446.175 141.58 446.643 142.344C447.137 141.875 447.284 141.163 447.695 140.635C447.942 141.731 448.19 142.948 449.35 143.413C450.685 143.947 452.011 143.022 453.193 142.507C452.769 145.439 451.943 148.288 451.119 151.126ZM449.754 154.496C448.839 156.454 448.011 158.814 446.32 160.256C445.948 160.572 444.37 161.808 443.77 161.601C443.26 161.425 443.541 160.395 443.629 159.954C444.08 157.713 444.86 156.304 446.676 154.875C447.428 154.283 448.393 153.527 449.363 153.381C450.407 153.224 450.106 153.744 449.754 154.496ZM475.59 200.964C473.216 197.734 469.859 195.225 466.687 192.799C465.25 191.7 463.667 190.876 462.215 189.776C460.574 188.534 458.907 187.335 457.069 186.398C453.584 184.622 449.782 183.384 446.493 181.284C444.889 180.26 443.134 179.27 441.626 178.121C440.963 177.615 440.378 176.969 439.78 176.391C439.224 175.853 438.029 175.073 437.808 174.286C438.734 174.135 439.26 173.237 440.086 173.145C440.358 173.115 442.063 173.566 441.83 172.739C442.449 172.723 442.521 172.714 443.039 172.579C443.254 172.523 443.508 172.61 443.725 172.533C444.057 172.416 444.283 172.078 444.619 171.948C444.857 171.856 445.742 171.959 445.877 171.844C446.243 171.531 445.854 171.558 445.635 171.167C446.347 171.149 446.836 171.509 447.55 171.127C447.768 171.01 447.951 170.741 448.162 170.602C448.536 170.355 448.671 170.738 448.927 170.226C449.166 170.933 449.16 170.737 449.737 170.529C450.312 170.322 450.727 170.172 451.382 170.121C452.946 169.997 454.515 170.187 456.072 170.076C456.642 170.035 457.129 169.905 457.695 169.98C458.193 170.046 458.043 170.392 458.457 169.925C458.553 169.817 458.242 169.52 458.391 169.364C458.457 169.295 458.671 169.343 458.753 169.308C459.481 168.99 459.484 169.434 459.613 170.013C460.04 169.913 460.475 169.822 460.846 169.572C460.659 169.404 460.345 169.22 460.526 168.914C461.142 169.148 461.545 169.04 461.237 169.716C461.856 169.92 461.972 169.654 462.529 169.595C462.858 169.561 463.317 169.765 463.591 169.502C463.891 169.215 463.418 168.904 463.968 168.657C464.081 168.714 464.164 168.801 464.219 168.917C464.516 169.006 464.463 169.123 464.059 169.267C465.14 169.828 464.886 169.201 465.34 168.538C465.445 168.385 465.915 167.911 466.129 168.14C466.454 168.488 465.791 168.598 465.933 168.944C466.179 169.543 467.039 168.775 467.302 168.472C467.502 168.242 467.583 167.803 467.798 167.631C468.097 167.393 468.527 167.761 468.901 167.695C470.61 167.396 472.224 165.098 470.936 163.56C470.59 163.147 470.297 163.229 469.885 162.968C469.478 162.71 469.249 162.264 468.922 161.896C468.175 161.055 467.261 160.425 466.217 160.023C463.796 159.089 461.187 158.407 458.644 157.906C457.467 157.674 456.213 157.318 455.007 157.321C454.297 157.322 453.227 157.875 452.563 157.61C451.272 157.096 453.167 154.462 453.48 153.612C454.399 151.113 455.092 148.448 455.547 145.825C455.636 145.311 455.601 144.646 455.786 144.157C455.999 143.595 456.044 143.674 456.499 143.628C457.319 143.545 458.217 143.976 459.072 143.827C460.019 143.662 461.043 143.739 461.999 143.446C462.439 143.311 462.847 143.165 463.136 142.794C463.227 142.677 463.126 142.576 463.183 142.495C463.201 142.469 463.528 142.116 463.539 142.096C463.536 141.914 463.551 141.732 463.586 141.553C463.918 141.828 463.755 142.405 464.313 142.419C464.413 141.804 464.414 141.68 464.818 141.333C464.787 141.36 465.122 141.075 465.079 141.106C465.099 140.996 465.139 140.894 465.199 140.799C465.388 140.708 465.588 140.659 465.798 140.654C466.234 140.205 466.053 139.966 466.053 139.361C466.405 139.544 466.757 139.727 467.11 139.91C467.195 138.12 468.285 137.14 469.009 135.689C469.318 135.071 469.632 134.588 469.706 133.842C469.748 133.412 469.637 133.032 469.815 132.627C469.977 132.259 470.339 132.061 470.49 131.66C470.787 130.872 470.565 129.865 470.581 129.046C470.604 127.911 470.717 126.779 470.754 125.644C470.827 123.415 470.603 121.126 470.27 118.923C470.11 117.87 469.844 116.848 469.634 115.805C469.462 114.948 469.05 114.145 468.902 113.348C468.841 113.017 468.936 112.719 468.836 112.353C468.704 111.872 468.484 111.398 468.321 110.925C467.939 109.821 467.561 108.718 467.131 107.63C466.299 105.523 465.324 103.479 464.398 101.412C463.507 99.4243 462.769 97.3751 461.615 95.5191C460.479 93.691 459.255 91.8938 458.003 90.1439C456.698 88.3217 455.048 86.7559 453.783 84.9168C451.408 81.4637 448.094 78.6182 444.627 76.2686C437.474 71.4198 429.743 66.5786 421.165 64.9161C419.873 64.6658 418.563 64.492 417.246 64.4596C416.428 64.4393 415.074 64.8345 414.3 64.5578C413.433 64.2479 413.512 63.2742 413.295 62.5104C413.016 61.5286 412.386 60.8854 411.672 60.1913C410.919 59.4607 410.236 58.6074 409.298 58.1105C408.347 57.6074 407.225 57.4191 406.171 57.2669C405.23 57.1308 403.825 57.258 402.965 56.848C402.183 56.4744 402.569 56.0855 403.302 56.4054C403.356 56.0821 403.399 55.8733 403.606 55.6234C403.71 55.4979 404.202 55.3217 404.214 55.2045C404.228 55.0674 403.815 54.6766 403.756 54.4997C403.63 54.1187 403.702 53.5911 403.852 53.2335C404.591 53.8904 404.805 54.1814 405.63 53.5534C405.979 53.2883 406.086 53.1714 406.489 53.0376C406.599 53.0013 406.844 53.1135 406.94 53.0505C407.304 52.8104 406.969 52.867 407.142 52.5832C407.099 52.6548 407.405 51.9005 407.39 52.0582C407.428 51.6564 407.546 51.7799 407.304 51.2862C406.829 50.3204 405.619 50.2809 406.235 49.1788C406.478 48.7451 406.692 48.7883 406.76 48.1596C406.797 47.8215 406.751 47.4339 406.75 47.0901C406.747 46.3868 406.879 45.8945 406.22 45.5364C405.587 45.192 405.002 45.5698 404.745 44.7157C404.476 43.8194 404.747 42.6704 403.776 42.0567C403.067 41.6083 402.042 41.9917 401.258 41.7723C400.473 41.5527 399.75 40.7489 398.953 41.3661C398.387 41.8047 398.086 42.8832 397.019 42.3C396.537 42.0369 396.272 41.1538 395.968 40.6586C395.484 39.8692 395.096 39.5841 394.351 40.3529C393.892 40.8271 392.924 41.9814 392.864 42.6378C392.799 43.3624 393.432 43.6651 392.638 44.0938C391.848 44.5203 391.405 44.2075 390.764 45.0732C390.129 45.9321 390.621 46.4066 389.884 47.2283C388.964 48.2554 388.474 48.6988 388.487 50.0827C388.496 51.0319 387.657 51.8518 388.146 52.7522C388.695 53.7614 390.295 54.1811 391.265 54.5919C390.941 55.1903 390.497 55.5739 390.875 56.1901C391.217 56.748 392.186 56.8638 392.786 56.7625C393.189 56.6945 393.204 56.7556 393.522 56.4718C393.73 56.2859 393.444 56.0539 393.873 55.951C394.329 55.8409 395.057 56.7351 395.354 56.9586C394.692 57.8177 392.874 57.9783 391.912 58.4138C391.326 58.6795 390.787 59.0723 390.19 59.3098C389.648 59.5252 388.989 59.4752 388.498 59.8085C387.651 60.3841 387.298 61.8101 386.778 62.6484C386.19 63.5973 385.62 64.0381 384.491 64.235C383.083 64.4807 381.949 64.5794 380.636 65.1926C379.032 65.9414 377.452 66.7321 375.877 67.5394C373.337 68.8413 370.977 70.1778 368.618 71.7526C366.15 73.4003 363.75 75.1201 361.369 76.8418C359.014 78.5445 357.037 80.6393 354.991 82.6985C353.337 84.3631 351.886 86.1598 350.238 87.8238C348.294 89.7888 346.863 92.2687 345.06 94.3532C344.073 95.4936 343.13 96.6149 342.511 97.9583C342.009 99.0472 341.136 100.116 340.554 101.258C339.81 102.719 339.105 104.156 338.27 105.569C337.927 106.148 337.519 106.645 337.158 107.199C336.694 107.907 336.722 108.591 336.597 109.408C336.467 109.209 336.337 109.009 336.206 108.81C335.97 109.326 335.685 109.833 335.481 110.361C335.35 110.698 335.371 111.176 335.24 111.471C335.075 111.84 334.875 111.791 334.67 112.099C334.451 112.429 334.38 112.871 334.149 113.225C333.151 114.752 332.767 116.69 332.254 118.432C331.566 120.77 331.674 123.457 331.712 125.867C331.751 128.413 331.891 130.959 332.273 133.478C332.62 135.76 333.361 137.948 334.522 139.949C335.533 141.692 336.928 142.707 338.714 143.6C339.535 144.01 340.296 143.884 341.157 143.949C342.1 144.021 342.744 144.277 343.741 144.052C344.22 143.943 344.447 143.595 344.827 143.479C345.063 143.407 345.19 143.524 345.416 143.497C345.739 143.458 346.411 143.299 346.762 143.337C347.853 143.456 347.67 145.106 347.777 145.948C347.942 147.245 348.063 148.557 348.286 149.846C348.755 152.557 349.766 155.09 350.364 157.754C347.593 158.093 345.217 158.61 342.62 159.658C340.014 160.71 337.38 161.067 334.638 161.59C332.073 162.079 329.606 162.993 327.553 164.65C326.591 165.426 325.591 166.334 326.298 167.611C326.75 168.429 327.564 168.636 328.267 169.111C328.409 168.932 327.998 168.551 327.923 168.445C328.514 168.566 328.496 168.842 328.928 169.082C329.305 169.292 329.614 169.285 330.027 169.433C331.035 169.795 331.531 170.699 332.528 170.953C332.841 171.033 333.251 171.224 333.572 171.278C333.957 171.343 334.246 171.175 334.636 171.246C334.847 171.385 335.075 171.484 335.32 171.543C335.48 171.469 335.639 171.39 335.795 171.307C336.356 171.365 336.702 171.718 337.158 172.008C337.189 171.643 337.145 171.264 337.49 171.025C337.625 171.38 337.407 171.605 337.775 171.85C338.242 172.16 338.855 171.773 339.273 171.577C339.391 172.757 342.124 172.688 342.99 172.671C344.19 172.648 345.388 172.172 346.599 172.437C347.216 172.573 347.875 172.714 348.49 172.89C349.23 173.101 350.124 173.29 350.853 173.557C351.143 173.663 351.498 174.003 351.806 173.98C352.051 173.962 352.117 173.6 352.403 173.61C352.726 173.622 352.835 173.982 353.115 174.091C353.534 174.252 353.919 173.944 354.317 174.1C354.46 174.156 354.654 174.396 354.837 174.474C355.115 174.592 355.665 174.594 355.974 174.651C356.413 174.732 356.806 174.678 357.182 174.705C357.485 174.726 357.478 174.93 357.623 174.943C357.789 174.958 358.079 174.386 358.302 174.303C358.628 174.181 359.218 174.472 359.55 174.523C357.146 177.781 354.247 180.662 351.105 183.183C347.716 185.904 344.245 188.621 340.611 191.007C337.311 193.174 334.116 195.048 331.558 198.106C329.401 200.685 325.967 203.444 326.496 207.182C327.025 210.917 331.08 212.437 334.33 213.15C338.417 214.047 342.624 213.686 346.723 214.19C348.47 214.405 350.412 214.291 352.171 214.107C354.249 213.891 356.03 212.535 357.816 211.554C361.029 209.791 363.777 207.431 366.941 205.612C370.904 203.334 374.825 200.921 379.169 199.396C381.19 198.686 383.271 197.877 384.902 196.417C385.144 196.2 385.325 195.872 385.599 195.693C386.065 195.389 386.19 195.697 386.46 195.605C386.668 195.534 386.87 195.309 387.05 195.242C387.506 195.071 387.709 195.142 388.22 195.142C387.782 194.889 387.381 194.238 387.835 193.708C388.614 192.799 388.748 194.251 389.04 194.587C389.288 194.269 389.193 193.985 389.13 193.623C389.339 193.762 389.549 193.9 389.759 194.038C389.614 193.338 389.752 192.692 390.123 192.082C390.465 191.519 390.549 191.598 390.644 190.818C391.707 191.789 391.915 189.433 392.011 188.574C392.103 187.742 392.012 187.144 392.559 186.415C393.147 185.633 394.042 185.139 394.788 184.532C395.967 183.572 397.265 182.36 398.895 183.28C400.182 184.007 400.883 185.789 402.091 186.704C402.823 187.26 403.596 187.316 404.063 188.177C404.441 188.873 404.563 189.707 404.92 190.421C405.783 192.154 407.026 194.137 408.444 195.466C409.764 196.703 411.459 196.697 413.003 197.464C414.532 198.224 416.121 199.047 417.74 199.598C419.508 200.199 421.414 200.455 423.135 201.183C424.02 201.558 424.812 202.122 425.705 202.481C426.668 202.868 427.683 203.141 428.659 203.495C432.526 204.9 436.311 206.622 440.373 207.401C442.175 207.746 443.843 208.684 445.658 208.882C446.437 208.966 447.072 209.074 447.834 209.268C449.029 209.574 448.776 209.736 449.216 210.733C449.941 212.374 451.71 211.402 453.073 211.443C455.256 211.509 457.405 211.156 459.584 211.139C463.395 211.11 467.065 210.681 470.752 209.429C474.453 208.173 478.667 205.146 475.59 200.964Z" fill="black"/>
<path fill-rule="evenodd" clip-rule="evenodd" d="M431.538 72.7805C431.59 72.8327 431.713 72.8644 431.538 72.7805V72.7805Z" fill="black"/>
<path fill-rule="evenodd" clip-rule="evenodd" d="M364.409 142.656C365.236 141.817 368.758 141.987 369.024 143.487C369.321 145.162 366.174 147.692 365.023 148.401C363.54 149.314 361.732 149.485 361.994 147.193C362.193 145.462 363.23 143.85 364.409 142.656ZM367.317 140.929C367.424 141.393 366.633 141.236 366.415 141.125C366.312 140.914 367.21 140.464 367.317 140.929ZM361.244 144.001C361.946 144.064 362.751 142.937 363.281 142.553C363.515 142.915 361.971 144.905 361.801 145.359C361.376 146.494 361.14 147.927 361.719 149.059C363.41 152.366 367.737 147.644 368.82 145.994C369.577 144.84 370.101 143.41 369.031 142.279C368.651 141.876 368.022 141.765 367.668 141.382C367.202 140.879 367.569 140.229 366.632 140.339C365.986 140.414 365.211 140.997 364.583 141.208C363.826 141.462 363.145 141.726 362.484 142.196C362.335 142.303 360.376 143.923 361.244 144.001Z" fill="black"/>
<path fill-rule="evenodd" clip-rule="evenodd" d="M410.889 145.111C410.447 147.383 408.196 149.714 405.827 149.804C403.468 149.894 402.704 147.422 403.12 145.452C403.475 143.772 404.928 140.853 407 141.175C408.628 141.427 411.267 143.163 410.889 145.111ZM409.386 141.313C407.891 140.156 405.824 139.62 404.09 140.539C403.522 140.84 401.253 142.168 401.943 143.067C402.874 142.345 403.678 141.344 404.888 141.104C404.684 142.042 403.522 142.886 403.113 143.799C402.634 144.866 402.372 146.087 402.451 147.26C402.59 149.347 403.988 150.968 406.152 150.681C408.133 150.418 409.865 148.9 410.81 147.193C412.072 144.913 411.361 142.841 409.386 141.313Z" fill="black"/>
<path fill-rule="evenodd" clip-rule="evenodd" d="M395.495 150.276C394.43 151.853 392.806 153.336 390.928 153.823C388.498 154.454 389.181 152.445 389.907 151.003C390.549 149.729 391.651 147.536 393.329 147.548C393.899 147.551 394.959 147.827 395.458 148.131C396.442 148.732 396.056 149.446 395.495 150.276ZM393.227 146.81C393.609 146.384 395.301 144.559 395.528 145.982C396.014 145.418 395.631 144.951 395.009 144.891C394.258 144.819 393.437 145.655 392.896 146.07C391.781 146.925 390.923 147.8 390.184 148.998C389.37 150.318 387.293 153.302 389.11 154.613C391.075 156.029 393.934 153.413 395.164 152.064C395.951 151.202 396.993 149.935 396.694 148.669C396.327 147.115 394.519 146.952 393.227 146.81Z" fill="black"/>
<path fill-rule="evenodd" clip-rule="evenodd" d="M384.844 121.395C383.745 122.649 381.512 124.477 379.671 124.262C377.993 124.065 378.648 122.181 379.242 121.27C380.134 119.9 381.33 118.613 383.057 118.538C383.803 118.506 384.769 118.521 385.346 119.086C386.135 119.857 385.425 120.733 384.844 121.395ZM384.727 117.91C383.439 117.465 382.933 117.296 381.682 118.003C380.677 118.571 379.785 119.374 379.096 120.285C378.063 121.65 377.022 124.72 379.673 125.103C382.58 125.525 389.496 119.559 384.727 117.91Z" fill="black"/>
<path fill-rule="evenodd" clip-rule="evenodd" d="M388.69 125.742C387.853 126.596 386.809 127.293 385.617 127.531C386.122 126.406 387.247 123.948 388.582 123.606C389.197 123.448 389.898 123.655 389.847 124.355C389.811 124.862 389.019 125.404 388.69 125.742ZM389.766 122.768C389.074 122.421 389.292 122.184 388.486 122.456C387.851 122.671 387.051 123.043 386.522 123.472C386.234 123.705 385.335 124.535 385.445 124.957C385.645 125.724 386.314 124.549 386.49 124.323C386.792 124.569 385.249 126.777 385.157 127.14C384.815 128.494 385.877 128.637 386.918 128.194C388.322 127.597 392.48 124.128 389.766 122.768Z" fill="black"/>
<path fill-rule="evenodd" clip-rule="evenodd" d="M410.35 159.183C410.454 158.286 410.601 157.338 411.424 156.834C412.166 156.38 412.935 156.445 413.044 157.377C413.147 158.242 412.299 159.778 411.614 160.25C410.659 160.907 410.475 160.088 410.35 159.183ZM411.576 161.225C413.536 160.078 414.771 154.819 411.159 156.293C409.106 157.131 409.861 162.229 411.576 161.225Z" fill="black"/>
<path fill-rule="evenodd" clip-rule="evenodd" d="M394.839 139.417C395.149 138.784 395.502 138.574 396.129 138.296C395.711 138.691 395.284 139.055 394.839 139.417ZM395.292 137.856C394.848 138.301 393.831 138.98 393.973 139.745C394.103 140.444 394.636 140.404 395.12 140.186C396.134 139.73 396.699 137.734 397.76 137.547C396.583 136.801 396.308 136.836 395.292 137.856Z" fill="black"/>
<path fill-rule="evenodd" clip-rule="evenodd" d="M395.448 98.2101C395.504 100.336 395.554 102.462 395.601 104.588C395.617 105.335 395.439 106.4 395.663 107.116C395.762 107.431 396.657 108.797 396.975 108.886C398.087 109.195 397.689 106.409 397.697 105.722C397.724 103.408 397.69 101.09 397.681 98.775C397.676 97.5821 398.013 87.5789 396.465 87.6276C396.198 87.6362 395.541 88.78 395.442 89.0091C395.131 89.7293 395.246 90.7967 395.253 91.5642C395.274 93.7785 395.389 95.996 395.448 98.2101Z" fill="black"/>
<path fill-rule="evenodd" clip-rule="evenodd" d="M404.82 104.407C404.907 104.995 404.861 105.975 405.523 106.28C406.099 106.545 406.319 106.23 406.535 105.737C407.03 104.604 406.851 102.872 406.842 101.7C406.824 99.3787 406.562 97.0667 406.382 94.7537C406.302 93.7389 406.467 92.7195 406.34 91.6576C406.285 91.1915 406.229 89.3168 405.365 89.4041C404.584 89.4829 404.655 91.4478 404.612 91.9541C404.258 96.1683 404.196 100.2 404.82 104.407Z" fill="black"/>
<path fill-rule="evenodd" clip-rule="evenodd" d="M441.689 152.802C441.358 154.494 435.956 160.388 434.596 157.092C433.789 155.136 435.539 153.007 436.902 151.875C437.746 151.174 438.801 150.486 439.952 150.699C440.928 150.879 441.899 151.727 441.689 152.802ZM438.9 149.766C438.518 149.856 435.329 152.095 435.3 152.066C435.023 151.788 437.034 148.79 437.241 148.527C438.946 146.367 440.078 148.003 441.144 149.701C440.918 148.687 440.293 147.214 439.249 146.785C437.931 146.244 436.902 147.58 436.268 148.541C435.372 149.9 434.878 151.374 434.38 152.907C434.142 153.638 433.871 154.301 433.469 154.96C433.072 155.61 432.378 156.327 432.48 157.15C433.045 156.836 433.344 156.222 433.7 155.716C434.097 155.877 433.96 157.142 434.041 157.464C434.243 158.273 434.796 158.906 435.651 159.045C437.244 159.304 438.964 157.83 440.03 156.829C441.152 155.774 442.361 154.327 442.351 152.704C442.341 151.007 440.672 149.346 438.9 149.766Z" fill="black"/>
<path fill-rule="evenodd" clip-rule="evenodd" d="M443.219 122.569C442.315 123.953 440.729 125.612 439.05 125.933C437.818 126.169 437.006 125.256 437.501 124.023C437.919 122.981 439.343 122.323 440.277 121.865C441.017 121.501 444.47 120.655 443.219 122.569ZM442.554 120.306C440.702 120.236 439.209 121.575 437.828 122.644C438.14 121.416 438.845 120.081 439.838 119.282C441.19 118.195 442.472 118.87 443.895 119.414C443.544 118.306 441.968 117.907 440.964 118.064C439.694 118.262 438.782 119.345 438.14 120.394C437.374 121.644 437.112 123.118 436.211 124.291C435.798 124.828 433.243 126.837 433.822 127.659C434.776 126.645 435.731 125.633 436.685 124.619C436.932 125.817 437.205 127.18 438.734 127.064C439.955 126.971 441.347 125.933 442.24 125.14C443.393 124.115 445.662 120.424 442.554 120.306Z" fill="black"/>
<path fill-rule="evenodd" clip-rule="evenodd" d="M416.613 132.12C415.829 132.481 414.102 132.971 413.663 131.887C413.054 130.382 415.015 127.742 415.948 126.739C416.522 126.122 416.911 125.803 417.712 126.202C418.351 126.521 419.289 127.427 419.534 128.124C420.061 129.62 417.84 131.556 416.613 132.12ZM418.413 124.891C419.052 125.035 419.13 125.847 418.331 125.535C417.733 125.302 417.594 124.707 418.413 124.891ZM419.215 126.034C418.977 125.306 419.462 124.165 418.287 124.112C417.621 124.083 416.402 124.759 415.821 125.034C415.015 125.416 414.257 125.998 413.836 126.817C413.447 127.577 413.725 127.777 414.319 127.146C414.392 127.196 412.976 130.848 412.963 131.214C412.908 132.886 414.092 133.987 415.754 133.691C417.282 133.418 418.659 132.169 419.5 130.908C419.925 130.269 420.275 129.539 420.307 128.757C420.356 127.557 419.556 127.075 419.215 126.034Z" fill="black"/>
<path fill-rule="evenodd" clip-rule="evenodd" d="M426.544 125.42C425.9 124.179 427.393 122.089 428.731 122.701C431.516 123.973 427.39 127.048 426.544 125.42ZM429.046 123.8C428.747 123.812 426.858 124.542 427.136 125.036C427.517 125.715 428.896 124.073 429.046 123.8Z" fill="black"/>
<path fill-rule="evenodd" clip-rule="evenodd" d="M337.7 121.505C337.626 120.976 336.44 121.744 336.447 122.085C336.643 121.692 337.856 122.607 337.7 121.505Z" fill="black"/>
<path fill-rule="evenodd" clip-rule="evenodd" d="M402.525 81.5462C404.034 81.4353 402.111 73.8222 401.011 74.4955C399.819 75.2252 401.14 81.6478 402.525 81.5462Z" fill="black"/>
<path fill-rule="evenodd" clip-rule="evenodd" d="M405.343 77.991C406.756 78.1935 406.532 74.9471 405.771 74.3662C404.368 73.2937 403.626 77.7451 405.343 77.991Z" fill="black"/>
<defs>
<clipPath id="clip0">
<rect width="28.7358" height="28.7358" fill="white" transform="translate(224.255 10)"/>
</clipPath>
</defs>
</svg>
