<svg width="25" height="18" viewBox="0 0 25 18" fill="none" xmlns="http://www.w3.org/2000/svg">
<path d="M3.07148 12V14C3.07148 15.054 4.22521 16 5.50039 16H9.14374V18H5.50039C4.21202 18 2.97641 17.5786 2.0654 16.8284C1.15438 16.0783 0.642578 15.0609 0.642578 14V12H3.07148ZM18.8594 7L24.203 18H21.5858L20.1273 15H15.1601L13.704 18H11.0881L16.4305 7H18.8594ZM17.6449 9.885L16.1305 13H19.1569L17.6449 9.885ZM0.642578 0H7.92929C8.6325 0.0002061 9.32062 0.167979 9.9106 0.483072C10.5006 0.798166 10.9672 1.24711 11.2542 1.77574C11.5411 2.30437 11.6362 2.89009 11.5278 3.46221C11.4195 4.03433 11.1124 4.56841 10.6436 5C11.1124 5.43159 11.4195 5.96567 11.5278 6.53779C11.6362 7.10991 11.5411 7.69563 11.2542 8.22426C10.9672 8.75288 10.5006 9.20183 9.9106 9.51693C9.32062 9.83202 8.6325 9.99979 7.92929 10H0.642578V0ZM7.92929 6H3.07148V8H7.92929C8.25138 8 8.56029 7.89464 8.78804 7.70711C9.01579 7.51957 9.14374 7.26522 9.14374 7C9.14374 6.73478 9.01579 6.48043 8.78804 6.29289C8.56029 6.10536 8.25138 6 7.92929 6ZM17.6449 0C18.9333 0 20.1689 0.421427 21.0799 1.17157C21.9909 1.92172 22.5027 2.93913 22.5027 4V6H20.0738V4C20.0738 3.46957 19.8179 2.96086 19.3624 2.58579C18.9069 2.21071 18.2891 2 17.6449 2H14.0016V0H17.6449ZM7.92929 2H3.07148V4H7.92929C8.25138 4 8.56029 3.89464 8.78804 3.70711C9.01579 3.51957 9.14374 3.26522 9.14374 3C9.14374 2.73478 9.01579 2.48043 8.78804 2.29289C8.56029 2.10536 8.25138 2 7.92929 2Z" fill="black"/>
</svg>
