<svg width="20" height="20" viewBox="0 0 20 20" fill="none" xmlns="http://www.w3.org/2000/svg">
<path d="M15.9062 8.73438C15.8317 8.73438 15.7601 8.76401 15.7074 8.81675C15.6546 8.8695 15.625 8.94103 15.625 9.01562V17.4531C15.625 17.9959 15.2467 18.4375 14.7812 18.4375H2.38094C1.92953 18.4375 1.5625 17.9847 1.5625 17.4292V6.22141C1.5625 5.67719 1.94922 5.21875 2.40625 5.21875H8.45312C8.52772 5.21875 8.59925 5.18912 8.652 5.13637C8.70474 5.08363 8.73438 5.01209 8.73438 4.9375C8.73438 4.86291 8.70474 4.79137 8.652 4.73863C8.59925 4.68588 8.52772 4.65625 8.45312 4.65625H2.40625C1.63141 4.65625 1 5.35938 1 6.22141V17.4292C1 18.2969 1.62016 19 2.38094 19H14.7812C15.5561 19 16.1875 18.3067 16.1875 17.4531V9.01562C16.1875 8.94103 16.1579 8.8695 16.1051 8.81675C16.0524 8.76401 15.9808 8.73438 15.9062 8.73438Z" fill="#2F2D51" stroke="#2F2D51" stroke-width="0.5"/>
<path d="M5.92187 8.49112C5.87916 8.51578 5.84368 8.55124 5.819 8.59394C5.79432 8.63664 5.7813 8.68508 5.78125 8.7344V14.9219C5.78179 14.9707 5.79504 15.0186 5.8197 15.0608C5.84436 15.1029 5.87957 15.1379 5.92187 15.1624C5.96389 15.1883 6.012 15.2028 6.06137 15.2043C6.11074 15.2058 6.15963 15.1942 6.20312 15.1708L12.1094 12.0771C12.1547 12.0532 12.1927 12.0174 12.2192 11.9735C12.2457 11.9297 12.2597 11.8794 12.2597 11.8282C12.2597 11.7769 12.2457 11.7266 12.2192 11.6828C12.1927 11.6389 12.1547 11.6031 12.1094 11.5792L6.20312 8.48549C6.15988 8.46166 6.11112 8.44963 6.06175 8.45062C6.01238 8.45161 5.96413 8.46557 5.92187 8.49112ZM6.34375 9.19424L11.3627 11.8282L6.34375 14.4536V9.19424Z" fill="#2F2D51" stroke="#2F2D51" stroke-width="0.5"/>
<path d="M18.9353 5.60266L15.2256 1.10828C15.1992 1.07653 15.166 1.051 15.1286 1.0335C15.0912 1.016 15.0504 1.00696 15.009 1.00703L9.18155 1C9.12831 1.00013 9.07621 1.01537 9.03129 1.04395C8.98637 1.07252 8.95049 1.11326 8.92781 1.16142C8.90512 1.20958 8.89658 1.26319 8.90316 1.31602C8.90974 1.36884 8.93118 1.41872 8.96498 1.45984L10.1631 2.91109C10.1571 2.9195 10.152 2.92844 10.1476 2.93781L9.43748 4.44109C9.04795 5.26797 10.1125 7.00469 11.9111 7.85266C12.6143 8.18735 13.3823 8.36399 14.1611 8.37016C14.2708 8.37016 14.3819 8.37016 14.4901 8.35891C15.3086 8.29844 15.9161 8.01297 16.1144 7.59391L16.8175 6.08922C16.8175 6.08078 16.8175 6.07094 16.8273 6.06109H18.7187C18.772 6.06096 18.8241 6.04572 18.869 6.01715C18.9139 5.98857 18.9498 5.94784 18.9725 5.89967C18.9952 5.85151 19.0037 5.7979 18.9971 5.74508C18.9905 5.69225 18.9691 5.64237 18.9353 5.60125V5.60266ZM15.6081 7.35344C15.5237 7.53344 15.1258 7.74859 14.4522 7.79781C13.6595 7.84142 12.8686 7.68575 12.1515 7.345C10.5442 6.58562 9.73701 5.12453 9.94655 4.68156L10.5625 3.39062L12.6719 5.95422C12.6982 5.98622 12.7312 6.01202 12.7687 6.02977C12.8061 6.04751 12.847 6.05677 12.8884 6.05687H16.2156L15.6081 7.35344ZM13.0234 5.5L9.7792 1.5625H14.8769L18.1211 5.5H13.0234Z" fill="#2F2D51" stroke="#2F2D51" stroke-width="0.5"/>
</svg>
