<svg width="19" height="19" viewBox="0 0 19 19" fill="none" xmlns="http://www.w3.org/2000/svg">
<path d="M17.2251 6.17811C17.2251 6.49366 17.2251 6.80741 17.2251 7.12297C17.2251 7.87489 17.2251 8.62861 17.2251 9.38053C17.2251 10.2911 17.2251 11.1999 17.2251 12.1105C17.2251 12.8967 17.2251 13.6829 17.2251 14.4709C17.2251 14.8513 17.2079 15.2372 17.2251 15.6177C17.2251 15.6231 17.2251 15.6285 17.2251 15.6339C17.3529 15.5131 17.4788 15.3941 17.6066 15.2733C16.4048 15.1867 15.1915 15.2625 14.0107 15.486C12.8317 15.7096 11.6852 16.0901 10.6131 16.6058C10.1629 16.8222 9.72415 17.062 9.30637 17.3271C9.43419 17.3271 9.56391 17.3271 9.69172 17.3271C8.8142 16.7879 7.88326 16.3371 6.90081 15.9963C5.77148 15.6033 4.58301 15.367 3.385 15.2751C2.71922 15.2246 2.05154 15.2246 1.38577 15.2733C1.51358 15.3941 1.63949 15.5131 1.7673 15.6339C1.7673 15.3184 1.7673 15.0046 1.7673 14.689C1.7673 13.9371 1.7673 13.1834 1.7673 12.4315C1.7673 11.5209 1.7673 10.6121 1.7673 9.70149C1.7673 8.91531 1.7673 8.12913 1.7673 7.34115C1.7673 6.96068 1.78447 6.5748 1.7673 6.19434C1.7673 6.18893 1.7673 6.18352 1.7673 6.17811C1.63949 6.29892 1.51358 6.41793 1.38577 6.53874C1.96761 6.49727 2.55326 6.49186 3.137 6.52431C3.42506 6.54054 3.71121 6.56579 3.99736 6.60005C4.01453 6.60185 4.02979 6.60365 4.04696 6.60546C4.04123 6.60546 3.9821 6.59644 4.02788 6.60365C4.06031 6.60906 4.09465 6.61267 4.12708 6.61628C4.20338 6.6271 4.27969 6.63791 4.356 6.65054C4.49716 6.67217 4.64024 6.69742 4.7814 6.72447C5.35179 6.83266 5.91455 6.97691 6.46396 7.15542C6.5994 7.2005 6.73676 7.24738 6.87029 7.29607C6.93324 7.31951 6.99429 7.34115 7.05724 7.36459C7.08777 7.37721 7.11829 7.38803 7.15072 7.40065C7.1717 7.40787 7.19269 7.41688 7.21176 7.42409C7.24419 7.43672 7.2461 7.43852 7.21367 7.42409C7.47884 7.53228 7.74209 7.64588 7.99963 7.7703C8.45174 7.98668 8.88287 8.23552 9.31019 8.49157C9.42083 8.55828 9.58489 8.55828 9.69554 8.49157C10.058 8.26797 10.4262 8.0552 10.8077 7.86407C11.0633 7.73604 11.3247 7.61703 11.5879 7.50524C11.649 7.47999 11.71 7.45475 11.7711 7.4295C11.8111 7.41328 11.7615 7.43311 11.7558 7.43491C11.7768 7.4259 11.7959 7.41868 11.8169 7.41147C11.8531 7.39705 11.8893 7.38442 11.9256 7.37C12.0591 7.31951 12.1946 7.27082 12.33 7.22394C12.8756 7.03641 13.4365 6.88314 14.003 6.76594C14.2835 6.70824 14.5677 6.65955 14.8519 6.61988C14.8844 6.61447 14.9168 6.61087 14.9511 6.60726C15.0274 6.59644 14.9054 6.61267 14.9817 6.60365C15.058 6.59464 15.1362 6.58562 15.2125 6.57661C15.3556 6.56218 15.4986 6.54956 15.6436 6.53874C16.2979 6.49186 16.9561 6.49186 17.6085 6.53874C17.8088 6.55317 17.9996 6.36203 17.99 6.17811C17.9805 5.97074 17.8222 5.8337 17.6085 5.81747C16.4124 5.73092 15.2049 5.80666 14.0278 6.02664C12.8527 6.24663 11.7119 6.62529 10.6436 7.13559C10.182 7.35557 9.74132 7.60441 9.30828 7.87128C9.43609 7.87128 9.56581 7.87128 9.69363 7.87128C8.80466 7.33574 7.87754 6.87774 6.88555 6.53513C5.76003 6.14565 4.57919 5.90944 3.385 5.81928C2.71922 5.76879 2.05154 5.76879 1.38577 5.81747C1.17974 5.8319 1.00424 5.97074 1.00424 6.17811C1.00424 6.49366 1.00424 6.80741 1.00424 7.12297C1.00424 7.87489 1.00424 8.62861 1.00424 9.38053C1.00424 10.2911 1.00424 11.1999 1.00424 12.1105C1.00424 12.8967 1.00424 13.6829 1.00424 14.4709C1.00424 14.8531 0.994701 15.2372 1.00424 15.6177C1.00424 15.6231 1.00424 15.6285 1.00424 15.6339C1.00424 15.8178 1.17974 16.009 1.38577 15.9945C1.96761 15.9531 2.55326 15.9477 3.137 15.9801C3.42506 15.9963 3.71121 16.0216 3.99736 16.0558C4.01453 16.0576 4.02979 16.0595 4.04696 16.0613C3.96874 16.0522 4.02788 16.0595 4.04505 16.0613C4.07748 16.0649 4.10991 16.0703 4.14425 16.0739C4.22055 16.0847 4.29686 16.0955 4.37317 16.1081C4.51433 16.1298 4.65741 16.155 4.79857 16.1821C5.36896 16.2903 5.93172 16.4345 6.48113 16.6148C6.61657 16.6599 6.75202 16.7068 6.88746 16.7555C6.95041 16.7789 7.01146 16.8006 7.0725 16.824C7.10875 16.8384 7.145 16.851 7.18124 16.8655C7.1965 16.8709 7.21176 16.8781 7.22702 16.8835C7.28235 16.9051 7.17361 16.8619 7.22893 16.8835C7.49982 16.9953 7.76689 17.1107 8.03015 17.2387C8.47082 17.4515 8.89623 17.6913 9.31019 17.9456C9.41702 18.0123 9.58871 18.0141 9.69554 17.9456C10.0446 17.7238 10.409 17.52 10.781 17.3325C11.0366 17.2045 11.2961 17.0836 11.5612 16.9719C11.628 16.943 11.6929 16.916 11.7596 16.8889C11.8264 16.8619 11.7234 16.9033 11.7921 16.8763C11.834 16.8601 11.8741 16.8438 11.9161 16.8276C12.0496 16.7771 12.185 16.7266 12.3205 16.6797C12.8661 16.4904 13.425 16.3371 13.9935 16.2199C14.2739 16.1622 14.5582 16.1117 14.8424 16.0721C14.8748 16.0667 14.9073 16.0631 14.9416 16.0576C14.953 16.0558 15.0236 16.0468 14.974 16.054C14.9282 16.0595 14.9836 16.0522 14.9893 16.0522C15.0599 16.0432 15.1324 16.036 15.2029 16.027C15.3517 16.0108 15.5005 15.9981 15.6493 15.9873C16.3037 15.9404 16.9618 15.9404 17.6142 15.9873C17.8203 16.0017 17.9958 15.8106 17.9958 15.6267C17.9958 15.3111 17.9958 14.9974 17.9958 14.6818C17.9958 13.9299 17.9958 13.1762 17.9958 12.4243C17.9958 11.5137 17.9958 10.6049 17.9958 9.69428C17.9958 8.9081 17.9958 8.12192 17.9958 7.33394C17.9958 6.95166 18.0053 6.56759 17.9958 6.18712C17.9958 6.18171 17.9958 6.1763 17.9958 6.17089C17.9958 5.98156 17.8203 5.80125 17.6142 5.81026C17.4006 5.82649 17.2251 5.97615 17.2251 6.17811Z" fill="#2F2D51"/>
<path d="M11.6165 3.72581C11.6165 3.78531 11.6146 3.84301 11.6089 3.90252C11.607 3.93137 11.6032 3.96022 11.6013 3.98907C11.5917 4.07382 11.6127 3.93137 11.5975 4.01612C11.5765 4.13152 11.5479 4.24692 11.5097 4.35872C11.5002 4.38577 11.4735 4.50478 11.4487 4.5174C11.4468 4.5174 11.4811 4.44888 11.462 4.48674C11.4544 4.50117 11.4487 4.5156 11.441 4.53002C11.4277 4.55887 11.4124 4.58772 11.3972 4.61657C11.3418 4.71935 11.2789 4.81672 11.2083 4.91049C11.2007 4.92131 11.1454 4.99704 11.1778 4.95016C11.2102 4.90328 11.153 4.97721 11.1454 4.98802C11.1072 5.0295 11.069 5.07097 11.029 5.11064C10.9889 5.15031 10.947 5.18818 10.9031 5.22604C10.8821 5.24407 10.8592 5.26211 10.8382 5.28014C10.8249 5.29096 10.8134 5.29997 10.8001 5.31079C10.7943 5.3162 10.7867 5.31981 10.781 5.32522C10.7581 5.34145 10.7676 5.33423 10.8096 5.30538C10.8001 5.33423 10.7047 5.37751 10.6761 5.39374C10.6246 5.42619 10.5692 5.45685 10.5158 5.4857C10.4643 5.51275 10.4128 5.53799 10.3594 5.56143C10.3403 5.57045 10.2602 5.59209 10.3117 5.58127C10.3594 5.57045 10.3232 5.57586 10.3098 5.58127C10.2907 5.58848 10.2697 5.59569 10.2507 5.6029C10.1343 5.64257 10.0141 5.67503 9.89202 5.69847C9.8615 5.70388 9.83288 5.70929 9.80236 5.7147C9.7127 5.72913 9.85768 5.71109 9.7871 5.7165C9.72033 5.72372 9.65547 5.72913 9.5887 5.73093C9.45898 5.73454 9.33117 5.72913 9.20336 5.7165C9.13277 5.70929 9.28539 5.72913 9.1881 5.7147C9.15757 5.70929 9.12896 5.70568 9.09844 5.69847C9.03548 5.68585 8.97253 5.67142 8.91148 5.6552C8.85807 5.64077 8.80466 5.62454 8.75315 5.60651C8.7398 5.6029 8.66349 5.58307 8.65777 5.57225C8.65777 5.57045 8.73026 5.6029 8.6902 5.58487C8.67112 5.57586 8.65204 5.56864 8.63297 5.55963C8.52614 5.51275 8.42312 5.45865 8.32583 5.39915C8.29531 5.38112 8.1923 5.33423 8.18276 5.30358C8.18848 5.32341 8.23999 5.34685 8.19993 5.3162C8.19039 5.30899 8.18085 5.30178 8.17131 5.29456C8.14651 5.27473 8.11981 5.25309 8.09501 5.23326C8.00535 5.15752 7.92141 5.07458 7.84319 4.98802C7.83175 4.9754 7.77833 4.90688 7.81076 4.95016C7.8451 4.99704 7.78978 4.92131 7.78024 4.91049C7.744 4.8618 7.70966 4.81312 7.67723 4.76263C7.64671 4.71575 7.61809 4.66706 7.59138 4.61657C7.57803 4.59133 7.56468 4.56608 7.55323 4.54084C7.54751 4.53002 7.54369 4.5192 7.53797 4.50838C7.50745 4.44527 7.52462 4.51019 7.54179 4.5174C7.51889 4.50658 7.48837 4.38396 7.48074 4.35872C7.46166 4.30102 7.44449 4.24332 7.42923 4.18381C7.41588 4.12791 7.40253 4.07202 7.39299 4.01612C7.37773 3.92957 7.3968 4.06661 7.39108 4.00169C7.38726 3.96924 7.38345 3.93498 7.38154 3.90252C7.372 3.78171 7.372 3.65909 7.38345 3.53648C7.38536 3.50763 7.38917 3.47878 7.39299 3.44992C7.40062 3.3796 7.38154 3.51664 7.39299 3.44812C7.40443 3.38321 7.41779 3.3201 7.43496 3.25518C7.44831 3.20469 7.46357 3.15421 7.48074 3.10372C7.49028 3.07487 7.51889 2.94684 7.5456 2.93422C7.53225 2.94143 7.51317 3.00094 7.53606 2.95405C7.54178 2.94323 7.5456 2.93242 7.55132 2.9216C7.56277 2.89635 7.57612 2.87111 7.58948 2.84586C7.61809 2.79357 7.64861 2.74128 7.68104 2.68899C7.71157 2.64211 7.744 2.59522 7.77643 2.55014C7.78787 2.53572 7.81077 2.48884 7.82793 2.48343C7.82603 2.48343 7.7688 2.55195 7.81458 2.49966C7.82603 2.48703 7.83556 2.47441 7.84701 2.46359C7.92522 2.37524 8.00916 2.29409 8.09882 2.21836C8.11981 2.20033 8.1427 2.1823 8.16559 2.16427C8.17704 2.15525 8.25525 2.10116 8.20565 2.13361C8.15987 2.16427 8.23236 2.11558 8.24762 2.10476C8.27433 2.08673 8.30294 2.0687 8.32965 2.05247C8.43075 1.98936 8.53758 1.93346 8.64823 1.88658C8.65967 1.88117 8.67112 1.87756 8.68257 1.87215C8.73216 1.85052 8.66921 1.86674 8.66158 1.88117C8.6673 1.87035 8.73407 1.85412 8.74552 1.85052C8.80466 1.83068 8.8657 1.81085 8.92865 1.79462C8.98588 1.78019 9.04502 1.76577 9.10416 1.75495C9.12896 1.74954 9.15567 1.74593 9.18046 1.74233C9.18046 1.74233 9.22816 1.73151 9.23197 1.73511C9.22434 1.7297 9.14803 1.74413 9.20908 1.73872C9.33689 1.7261 9.46661 1.72069 9.59443 1.72429C9.65547 1.7261 9.71842 1.73151 9.77947 1.73692C9.87867 1.74774 9.72606 1.7279 9.79473 1.73872C9.82907 1.74413 9.86341 1.74954 9.89774 1.75675C10.0198 1.78019 10.14 1.81265 10.2564 1.85232C10.2659 1.85593 10.3346 1.87215 10.3403 1.88297C10.3403 1.88117 10.2526 1.84691 10.3193 1.87396C10.3308 1.87937 10.3422 1.88297 10.3537 1.88838C10.4109 1.91363 10.4681 1.94067 10.5215 1.96952C10.5731 1.99657 10.6227 2.02542 10.6723 2.05427C10.6971 2.0687 10.7219 2.08493 10.7447 2.10116C10.7581 2.11017 10.8439 2.16607 10.7963 2.13542C10.7505 2.10476 10.8211 2.15525 10.8363 2.16607C10.8592 2.1841 10.8802 2.20213 10.9031 2.22017C10.9489 2.25983 10.9946 2.30131 11.0385 2.34278C11.0786 2.38245 11.1186 2.42392 11.1549 2.4654C11.1663 2.47802 11.1988 2.50507 11.2026 2.52129C11.1969 2.49244 11.1606 2.469 11.1892 2.50507C11.2007 2.52129 11.214 2.53752 11.2255 2.55375C11.2961 2.64752 11.3571 2.74669 11.4124 2.84947C11.4239 2.87111 11.4353 2.89275 11.4449 2.91438C11.4525 2.92881 11.4792 3.00995 11.4658 2.95946C11.4525 2.90537 11.4773 2.99012 11.483 3.00635C11.4945 3.037 11.5059 3.06765 11.5173 3.0965C11.5555 3.2083 11.586 3.3237 11.6051 3.43911C11.6204 3.53107 11.6013 3.38681 11.607 3.45353C11.6108 3.48238 11.6127 3.51123 11.6165 3.54008C11.6127 3.59959 11.6165 3.6627 11.6165 3.72581C11.6185 3.91514 11.7921 4.09546 11.9981 4.08644C12.2041 4.07743 12.3815 3.92776 12.3796 3.72581C12.3758 3.17404 12.2022 2.61686 11.8607 2.16787C11.5078 1.70266 11.0328 1.35645 10.4643 1.1581C9.35788 0.772223 8.03587 1.11122 7.28807 1.97313C6.8989 2.42392 6.66808 2.95586 6.61848 3.53648C6.57269 4.08825 6.72149 4.66165 7.02672 5.13588C7.31859 5.59028 7.75735 5.97255 8.27051 6.19254C8.84281 6.43777 9.46471 6.50809 10.0828 6.39449C11.2178 6.18352 12.1621 5.26752 12.3376 4.18381C12.3624 4.03235 12.3796 3.88088 12.3796 3.72581C12.3815 3.53648 12.2041 3.35616 11.9981 3.36518C11.7901 3.37419 11.6165 3.52385 11.6165 3.72581Z" fill="#2F2D51"/>
<path d="M9.12325 8.18324C9.12325 8.4988 9.12325 8.81255 9.12325 9.1281C9.12325 9.88002 9.12325 10.6337 9.12325 11.3857C9.12325 12.2963 9.12325 13.2051 9.12325 14.1157C9.12325 14.9018 9.12325 15.688 9.12325 16.476C9.12325 16.8583 9.11371 17.2423 9.12325 17.6228C9.12325 17.6282 9.12325 17.6336 9.12325 17.639C9.12325 17.8284 9.29875 18.0087 9.50478 17.9997C9.71081 17.9907 9.88631 17.841 9.88631 17.639C9.88631 17.3235 9.88631 17.0097 9.88631 16.6942C9.88631 15.9423 9.88631 15.1885 9.88631 14.4366C9.88631 13.526 9.88631 12.6172 9.88631 11.7066C9.88631 10.9204 9.88631 10.1343 9.88631 9.34629C9.88631 8.96402 9.89585 8.57994 9.88631 8.19947C9.88631 8.19406 9.88631 8.18865 9.88631 8.18324C9.88631 7.99391 9.71081 7.8136 9.50478 7.82261C9.29684 7.83163 9.12325 7.98129 9.12325 8.18324Z" fill="#2F2D51"/>
<path d="M11.6165 3.72581C11.6165 3.78531 11.6146 3.84301 11.6089 3.90252C11.607 3.93137 11.6032 3.96022 11.6013 3.98907C11.5917 4.07382 11.6127 3.93137 11.5975 4.01612C11.5765 4.13152 11.5479 4.24692 11.5097 4.35872C11.5002 4.38577 11.4735 4.50478 11.4487 4.5174C11.4468 4.5174 11.4811 4.44888 11.462 4.48674C11.4544 4.50117 11.4487 4.5156 11.441 4.53002C11.4277 4.55887 11.4124 4.58772 11.3972 4.61657C11.3418 4.71935 11.2789 4.81672 11.2083 4.91049C11.2007 4.92131 11.1454 4.99704 11.1778 4.95016C11.2102 4.90328 11.153 4.97721 11.1454 4.98802C11.1072 5.0295 11.069 5.07097 11.029 5.11064C10.9889 5.15031 10.947 5.18818 10.9031 5.22604C10.8821 5.24407 10.8592 5.26211 10.8382 5.28014C10.8249 5.29096 10.8134 5.29997 10.8001 5.31079C10.7943 5.3162 10.7867 5.31981 10.781 5.32522C10.7581 5.34145 10.7676 5.33423 10.8096 5.30538C10.8001 5.33423 10.7047 5.37751 10.6761 5.39374C10.6246 5.42619 10.5692 5.45685 10.5158 5.4857C10.4643 5.51275 10.4128 5.53799 10.3594 5.56143C10.3403 5.57045 10.2602 5.59209 10.3117 5.58127C10.3594 5.57045 10.3232 5.57586 10.3098 5.58127C10.2907 5.58848 10.2697 5.59569 10.2507 5.6029C10.1343 5.64257 10.0141 5.67503 9.89202 5.69847C9.8615 5.70388 9.83288 5.70929 9.80236 5.7147C9.7127 5.72913 9.85768 5.71109 9.7871 5.7165C9.72033 5.72372 9.65547 5.72913 9.5887 5.73093C9.45898 5.73454 9.33117 5.72913 9.20336 5.7165C9.13277 5.70929 9.28539 5.72913 9.18809 5.7147C9.15757 5.70929 9.12896 5.70568 9.09844 5.69847C9.03548 5.68585 8.97253 5.67142 8.91148 5.6552C8.85807 5.64077 8.80466 5.62454 8.75315 5.60651C8.7398 5.6029 8.66349 5.58307 8.65777 5.57225C8.65777 5.57045 8.73026 5.6029 8.6902 5.58487C8.67112 5.57586 8.65204 5.56864 8.63297 5.55963C8.52614 5.51275 8.42312 5.45865 8.32583 5.39915C8.29531 5.38112 8.1923 5.33423 8.18276 5.30358C8.18848 5.32341 8.23999 5.34685 8.19993 5.3162C8.19039 5.30899 8.18085 5.30178 8.17131 5.29456C8.14651 5.27473 8.11981 5.25309 8.09501 5.23326C8.00535 5.15752 7.92141 5.07458 7.84319 4.98802C7.83175 4.9754 7.77833 4.90688 7.81076 4.95016C7.8451 4.99704 7.78978 4.92131 7.78024 4.91049C7.744 4.8618 7.70966 4.81312 7.67723 4.76263C7.64671 4.71575 7.61809 4.66706 7.59138 4.61657C7.57803 4.59133 7.56468 4.56608 7.55323 4.54084C7.54751 4.53002 7.54369 4.5192 7.53797 4.50838C7.50745 4.44527 7.52462 4.51019 7.54179 4.5174C7.51889 4.50658 7.48837 4.38396 7.48074 4.35872C7.46166 4.30102 7.44449 4.24332 7.42923 4.18381C7.41588 4.12791 7.40253 4.07202 7.39299 4.01612C7.37773 3.92957 7.3968 4.06661 7.39108 4.00169C7.38726 3.96924 7.38345 3.93498 7.38154 3.90252C7.372 3.78171 7.372 3.65909 7.38345 3.53648C7.38536 3.50763 7.38917 3.47877 7.39299 3.44992C7.40062 3.3796 7.38154 3.51664 7.39299 3.44812C7.40443 3.38321 7.41779 3.3201 7.43496 3.25518C7.44831 3.20469 7.46357 3.15421 7.48074 3.10372C7.49028 3.07487 7.51889 2.94684 7.5456 2.93422C7.53225 2.94143 7.51317 3.00094 7.53606 2.95405C7.54178 2.94323 7.5456 2.93242 7.55132 2.9216C7.56277 2.89635 7.57612 2.87111 7.58948 2.84586C7.61809 2.79357 7.64861 2.74128 7.68104 2.68899C7.71157 2.64211 7.744 2.59522 7.77643 2.55014C7.78787 2.53572 7.81077 2.48884 7.82793 2.48343C7.82603 2.48343 7.7688 2.55195 7.81458 2.49966C7.82603 2.48703 7.83556 2.47441 7.84701 2.46359C7.92522 2.37524 8.00916 2.29409 8.09882 2.21836C8.11981 2.20033 8.1427 2.1823 8.16559 2.16427C8.17704 2.15525 8.25525 2.10116 8.20565 2.13361C8.15987 2.16427 8.23236 2.11558 8.24762 2.10476C8.27433 2.08673 8.30294 2.0687 8.32965 2.05247C8.43075 1.98936 8.53758 1.93346 8.64823 1.88658C8.65967 1.88117 8.67112 1.87756 8.68257 1.87215C8.73216 1.85052 8.66921 1.86674 8.66158 1.88117C8.6673 1.87035 8.73407 1.85412 8.74552 1.85052C8.80466 1.83068 8.8657 1.81085 8.92865 1.79462C8.98588 1.78019 9.04502 1.76577 9.10416 1.75495C9.12896 1.74954 9.15567 1.74593 9.18046 1.74233C9.18046 1.74233 9.22816 1.73151 9.23197 1.73511C9.22434 1.7297 9.14803 1.74413 9.20908 1.73872C9.33689 1.7261 9.46661 1.72069 9.59443 1.72429C9.65547 1.7261 9.71842 1.73151 9.77947 1.73692C9.87867 1.74774 9.72606 1.7279 9.79473 1.73872C9.82907 1.74413 9.86341 1.74954 9.89774 1.75675C10.0198 1.78019 10.14 1.81265 10.2564 1.85232C10.2659 1.85593 10.3346 1.87215 10.3403 1.88297C10.3403 1.88117 10.2526 1.84691 10.3193 1.87396C10.3308 1.87937 10.3422 1.88297 10.3537 1.88838C10.4109 1.91363 10.4681 1.94067 10.5215 1.96952C10.5731 1.99657 10.6227 2.02542 10.6723 2.05427C10.6971 2.0687 10.7219 2.08493 10.7447 2.10116C10.7581 2.11017 10.8439 2.16607 10.7963 2.13542C10.7505 2.10476 10.8211 2.15525 10.8363 2.16607C10.8592 2.1841 10.8802 2.20213 10.9031 2.22017C10.9489 2.25983 10.9946 2.30131 11.0385 2.34278C11.0786 2.38245 11.1186 2.42392 11.1549 2.4654C11.1663 2.47802 11.1988 2.50507 11.2026 2.52129C11.1969 2.49244 11.1606 2.469 11.1892 2.50507C11.2007 2.52129 11.214 2.53752 11.2255 2.55375C11.2961 2.64752 11.3571 2.74669 11.4124 2.84947C11.4239 2.87111 11.4353 2.89275 11.4449 2.91438C11.4525 2.92881 11.4792 3.00995 11.4658 2.95946C11.4525 2.90537 11.4773 2.99012 11.483 3.00635C11.4945 3.037 11.5059 3.06765 11.5173 3.0965C11.5555 3.2083 11.586 3.3237 11.6051 3.43911C11.6204 3.53107 11.6013 3.38681 11.607 3.45353C11.6108 3.48238 11.6127 3.51123 11.6165 3.54008C11.6127 3.59959 11.6165 3.6627 11.6165 3.72581ZM11.6165 3.72581C11.6185 3.91514 11.7921 4.09546 11.9981 4.08644C12.2041 4.07743 12.3815 3.92776 12.3796 3.72581M11.6165 3.72581C11.6165 3.52385 11.7901 3.37419 11.9981 3.36518C12.2041 3.35616 12.3815 3.53648 12.3796 3.72581M12.3796 3.72581C12.3758 3.17404 12.2022 2.61686 11.8607 2.16787C11.5078 1.70266 11.0328 1.35645 10.4643 1.1581C9.35788 0.772223 8.03587 1.11122 7.28807 1.97313C6.8989 2.42392 6.66808 2.95586 6.61848 3.53648C6.57269 4.08825 6.72149 4.66165 7.02672 5.13588C7.31859 5.59028 7.75735 5.97255 8.27051 6.19254C8.84281 6.43777 9.46471 6.50809 10.0828 6.39449C11.2178 6.18352 12.1621 5.26752 12.3376 4.18381C12.3624 4.03235 12.3796 3.88088 12.3796 3.72581ZM17.2251 6.17811C17.2251 6.49366 17.2251 6.80741 17.2251 7.12297C17.2251 7.87489 17.2251 8.62861 17.2251 9.38053C17.2251 10.2911 17.2251 11.1999 17.2251 12.1105C17.2251 12.8967 17.2251 13.6829 17.2251 14.4709C17.2251 14.8513 17.2079 15.2372 17.2251 15.6177C17.2251 15.6231 17.2251 15.6285 17.2251 15.6339C17.3529 15.5131 17.4788 15.3941 17.6066 15.2733C16.4048 15.1867 15.1915 15.2625 14.0107 15.486C12.8317 15.7096 11.6852 16.0901 10.6131 16.6058C10.1629 16.8222 9.72415 17.062 9.30637 17.3271C9.43419 17.3271 9.56391 17.3271 9.69172 17.3271C8.8142 16.7879 7.88326 16.3371 6.90081 15.9963C5.77148 15.6033 4.58301 15.367 3.385 15.2751C2.71922 15.2246 2.05154 15.2246 1.38577 15.2733C1.51358 15.3941 1.63949 15.5131 1.7673 15.6339C1.7673 15.3184 1.7673 15.0046 1.7673 14.689C1.7673 13.9371 1.7673 13.1834 1.7673 12.4315C1.7673 11.5209 1.7673 10.6121 1.7673 9.70149C1.7673 8.91531 1.7673 8.12913 1.7673 7.34115C1.7673 6.96068 1.78447 6.5748 1.7673 6.19434C1.7673 6.18893 1.7673 6.18352 1.7673 6.17811C1.63949 6.29892 1.51358 6.41793 1.38577 6.53874C1.96761 6.49727 2.55326 6.49186 3.137 6.52431C3.42506 6.54054 3.71121 6.56579 3.99736 6.60005C4.01453 6.60185 4.02979 6.60365 4.04696 6.60546C4.04123 6.60546 3.9821 6.59644 4.02788 6.60365C4.06031 6.60906 4.09465 6.61267 4.12708 6.61628C4.20338 6.6271 4.27969 6.63791 4.356 6.65054C4.49716 6.67217 4.64024 6.69742 4.7814 6.72447C5.35179 6.83266 5.91455 6.97691 6.46396 7.15542C6.5994 7.2005 6.73676 7.24738 6.87029 7.29607C6.93324 7.31951 6.99429 7.34115 7.05724 7.36459C7.08777 7.37721 7.11829 7.38803 7.15072 7.40065C7.1717 7.40787 7.19269 7.41688 7.21176 7.42409C7.24419 7.43672 7.2461 7.43852 7.21367 7.42409C7.47884 7.53228 7.74209 7.64588 7.99963 7.7703C8.45174 7.98668 8.88287 8.23552 9.31019 8.49157C9.42083 8.55828 9.58489 8.55828 9.69554 8.49157C10.058 8.26797 10.4262 8.0552 10.8077 7.86407C11.0633 7.73604 11.3247 7.61703 11.5879 7.50524C11.649 7.47999 11.71 7.45475 11.7711 7.4295C11.8111 7.41328 11.7615 7.43311 11.7558 7.43491C11.7768 7.4259 11.7959 7.41868 11.8169 7.41147C11.8531 7.39705 11.8893 7.38442 11.9256 7.37C12.0591 7.31951 12.1946 7.27082 12.33 7.22394C12.8756 7.03641 13.4365 6.88314 14.003 6.76594C14.2835 6.70824 14.5677 6.65955 14.8519 6.61988C14.8844 6.61447 14.9168 6.61087 14.9511 6.60726C15.0274 6.59644 14.9054 6.61267 14.9817 6.60365C15.058 6.59464 15.1362 6.58562 15.2125 6.57661C15.3556 6.56218 15.4986 6.54956 15.6436 6.53874C16.2979 6.49186 16.9561 6.49186 17.6085 6.53874C17.8088 6.55317 17.9996 6.36203 17.99 6.17811C17.9805 5.97074 17.8222 5.8337 17.6085 5.81747C16.4124 5.73092 15.2049 5.80666 14.0278 6.02664C12.8527 6.24663 11.7119 6.62529 10.6436 7.13559C10.182 7.35557 9.74132 7.60441 9.30828 7.87128C9.43609 7.87128 9.56581 7.87128 9.69363 7.87128C8.80466 7.33574 7.87754 6.87774 6.88555 6.53513C5.76003 6.14565 4.57919 5.90944 3.385 5.81928C2.71922 5.76879 2.05154 5.76879 1.38577 5.81747C1.17974 5.8319 1.00424 5.97074 1.00424 6.17811C1.00424 6.49366 1.00424 6.80741 1.00424 7.12297C1.00424 7.87489 1.00424 8.62861 1.00424 9.38053C1.00424 10.2911 1.00424 11.1999 1.00424 12.1105C1.00424 12.8967 1.00424 13.6829 1.00424 14.4709C1.00424 14.8531 0.994701 15.2372 1.00424 15.6177C1.00424 15.6231 1.00424 15.6285 1.00424 15.6339C1.00424 15.8178 1.17974 16.009 1.38577 15.9945C1.96761 15.9531 2.55326 15.9477 3.137 15.9801C3.42506 15.9963 3.71121 16.0216 3.99736 16.0558C4.01453 16.0576 4.02979 16.0595 4.04696 16.0613C3.96874 16.0522 4.02788 16.0595 4.04505 16.0613C4.07748 16.0649 4.10991 16.0703 4.14425 16.0739C4.22055 16.0847 4.29686 16.0955 4.37317 16.1081C4.51433 16.1298 4.65741 16.155 4.79857 16.1821C5.36896 16.2903 5.93172 16.4345 6.48113 16.6148C6.61657 16.6599 6.75202 16.7068 6.88746 16.7555C6.95041 16.7789 7.01146 16.8006 7.0725 16.824C7.10875 16.8384 7.145 16.851 7.18124 16.8655C7.1965 16.8709 7.21176 16.8781 7.22702 16.8835C7.28235 16.9051 7.17361 16.8619 7.22893 16.8835C7.49982 16.9953 7.76689 17.1107 8.03015 17.2387C8.47082 17.4515 8.89623 17.6913 9.31019 17.9456C9.41702 18.0123 9.58871 18.0141 9.69554 17.9456C10.0446 17.7238 10.409 17.52 10.781 17.3325C11.0366 17.2045 11.2961 17.0836 11.5612 16.9719C11.628 16.943 11.6929 16.916 11.7596 16.8889C11.8264 16.8619 11.7234 16.9033 11.7921 16.8763C11.834 16.8601 11.8741 16.8438 11.9161 16.8276C12.0496 16.7771 12.185 16.7266 12.3205 16.6797C12.8661 16.4904 13.425 16.3371 13.9935 16.2199C14.2739 16.1622 14.5582 16.1117 14.8424 16.0721C14.8748 16.0667 14.9073 16.0631 14.9416 16.0576C14.953 16.0558 15.0236 16.0468 14.974 16.054C14.9282 16.0594 14.9836 16.0522 14.9893 16.0522C15.0599 16.0432 15.1324 16.036 15.2029 16.027C15.3517 16.0108 15.5005 15.9981 15.6493 15.9873C16.3037 15.9404 16.9618 15.9404 17.6142 15.9873C17.8203 16.0017 17.9958 15.8106 17.9958 15.6267C17.9958 15.3111 17.9958 14.9974 17.9958 14.6818C17.9958 13.9299 17.9958 13.1762 17.9958 12.4243C17.9958 11.5137 17.9958 10.6049 17.9958 9.69428C17.9958 8.9081 17.9958 8.12192 17.9958 7.33394C17.9958 6.95166 18.0053 6.56759 17.9958 6.18712C17.9958 6.18171 17.9958 6.1763 17.9958 6.17089C17.9958 5.98156 17.8203 5.80125 17.6142 5.81026C17.4006 5.82649 17.2251 5.97615 17.2251 6.17811ZM9.12325 8.18324C9.12325 8.4988 9.12325 8.81255 9.12325 9.1281C9.12325 9.88002 9.12325 10.6337 9.12325 11.3857C9.12325 12.2963 9.12325 13.2051 9.12325 14.1157C9.12325 14.9018 9.12325 15.688 9.12325 16.476C9.12325 16.8583 9.11371 17.2423 9.12325 17.6228C9.12325 17.6282 9.12325 17.6336 9.12325 17.639C9.12325 17.8284 9.29875 18.0087 9.50478 17.9997C9.71081 17.9907 9.88631 17.841 9.88631 17.639C9.88631 17.3235 9.88631 17.0097 9.88631 16.6942C9.88631 15.9423 9.88631 15.1885 9.88631 14.4366C9.88631 13.526 9.88631 12.6172 9.88631 11.7066C9.88631 10.9204 9.88631 10.1343 9.88631 9.34629C9.88631 8.96402 9.89585 8.57994 9.88631 8.19947C9.88631 8.19406 9.88631 8.18865 9.88631 8.18324C9.88631 7.99391 9.71081 7.8136 9.50478 7.82261C9.29684 7.83163 9.12325 7.98129 9.12325 8.18324Z" stroke="#2F2D51" stroke-width="0.2"/>
</svg>
