<svg width="64" height="78" viewBox="0 0 64 78" fill="none" xmlns="http://www.w3.org/2000/svg">
<path fill-rule="evenodd" clip-rule="evenodd" d="M16.5455 5.00466C0.79399 11.1527 -7.33981 32.0762 8.79317 53.1568C56.0814 114.929 100.969 -27.9457 16.5455 5.00466Z" fill="#4D2456"/>
<path d="M20.5732 15.4496C20.5732 13.2731 20.5732 11.1078 20.5732 8.94251C20.5732 7.74207 21.5381 6.63139 22.7385 6.4631C26.1828 5.9919 29.627 5.5207 33.0713 5.0495C34.2717 4.88122 35.2365 5.72265 35.2365 6.92308C35.2365 9.08836 35.2365 11.2649 35.2365 13.4301C35.2365 14.6306 34.2717 15.7413 33.0713 15.8983C30.9845 16.19 28.8978 16.4705 26.7998 16.7622C27.1027 18.7031 27.3944 20.644 27.6861 22.5849C26.295 20.801 24.9038 19.006 23.5014 17.2109C23.2546 17.2558 22.9966 17.2895 22.7385 17.3231C21.5381 17.4802 20.5732 16.65 20.5732 15.4496Z" fill="#4D2456"/>
<path d="M20.293 15.4496V8.94251C20.293 8.26937 20.5622 7.62989 20.9998 7.13625C21.4373 6.64261 22.0319 6.29482 22.7051 6.20507L33.0378 4.78025C33.15 4.76903 33.2622 4.75781 33.3632 4.75781C33.9129 4.75781 34.4065 4.94854 34.788 5.27389C35.1582 5.59924 35.4162 6.05922 35.4836 6.59774C35.506 6.69871 35.5172 6.8109 35.5172 6.92309V13.4301C35.5172 14.1033 35.248 14.7428 34.8104 15.2364C34.3729 15.73 33.767 16.0778 33.1051 16.1676L27.1141 16.9978L27.9556 22.5512C27.978 22.6971 27.877 22.8317 27.7312 22.8541C27.619 22.8766 27.518 22.8205 27.4619 22.7307L23.3894 17.5026L22.7724 17.5924C22.6602 17.6036 22.548 17.6148 22.447 17.6148C21.8973 17.6148 21.4037 17.4241 21.0222 17.0988C20.652 16.7734 20.3939 16.3134 20.3154 15.7749C20.3042 15.6627 20.293 15.5617 20.293 15.4496ZM20.8427 8.94251V15.4496C20.8427 15.5393 20.8427 15.6178 20.8539 15.6964C20.91 16.1115 21.1007 16.4481 21.3812 16.6837C21.6617 16.9305 22.0319 17.0651 22.447 17.0651C22.5368 17.0651 22.6153 17.0651 22.7051 17.0539L23.468 16.9417C23.5577 16.9305 23.6587 16.9753 23.7148 17.0539L27.26 21.5976L26.5308 16.7958C26.5195 16.65 26.6205 16.5154 26.7664 16.4929L33.0378 15.6291C33.5651 15.5617 34.0475 15.2813 34.3953 14.8774C34.7543 14.4735 34.9675 13.9686 34.9675 13.4301V6.92309C34.9675 6.83334 34.9563 6.74358 34.9563 6.66505C34.9002 6.26116 34.7094 5.92459 34.429 5.67777C34.1485 5.44217 33.7783 5.29633 33.3632 5.29633C33.2734 5.29633 33.1949 5.30755 33.1051 5.31876L22.7724 6.73236C22.2451 6.8109 21.7627 7.09137 21.4149 7.49526C21.0559 7.89914 20.8427 8.404 20.8427 8.94251Z" fill="#FBBE07"/>
<path d="M44.1218 20.1168C44.1218 17.9515 44.1218 15.775 44.1218 13.6097C44.1218 12.4093 43.1457 11.2762 41.9453 11.0742C38.501 10.5133 35.0568 9.95234 31.6125 9.38017C30.4233 9.18945 29.4473 9.99722 29.4473 11.1977C29.4473 13.3741 29.4473 15.5394 29.4473 17.7047C29.4473 18.9051 30.4233 20.0383 31.6125 20.2402C31.8706 20.2739 32.1286 20.3187 32.3867 20.3636C31.7135 21.1826 31.0516 21.9904 30.3897 22.8094C32.1511 22.1699 33.9124 21.5416 35.6851 20.9021C37.7718 21.2499 39.8585 21.5865 41.9453 21.9343C43.1457 22.125 44.1218 21.3172 44.1218 20.1168Z" fill="#FBBE07"/>
<path d="M18.1609 37.3155C17.241 37.3155 16.3995 36.9453 15.6479 36.2273C14.9972 35.5766 14.6718 34.8473 14.6718 34.0283C14.6718 33.2206 14.9523 32.424 15.502 31.6163L15.6815 31.3133L15.2215 31.0104C14.1669 30.2812 13.6396 29.3949 13.6396 28.3403C13.6396 28.0262 13.6845 27.7008 13.7855 27.3642C14.3464 25.2438 15.704 23.9088 17.8468 23.359C18.1385 23.2917 18.4414 23.2693 18.7331 23.2693C19.395 23.2693 20.0457 23.4264 20.6852 23.7629C21.1788 24.021 21.5715 24.3912 21.8744 24.8624C22.1325 25.3785 22.2559 25.8609 22.2559 26.3209C22.2559 26.9604 21.9866 27.5437 21.4257 28.0374C20.7301 28.6656 19.9111 28.9798 18.9575 28.9798C18.3853 28.9798 17.9253 28.8003 17.5775 28.4413C17.3532 28.1832 17.241 27.914 17.241 27.6447C17.241 27.1623 17.499 26.8257 18.0039 26.6574C18.0824 26.6238 18.1721 26.6126 18.2507 26.6126C18.4302 26.6126 18.5985 26.6687 18.7668 26.7696C18.935 26.8706 19.0809 26.9155 19.2267 26.9155C19.4511 26.9155 19.6867 26.8257 19.9335 26.635C20.1243 26.4892 20.2252 26.3433 20.2252 26.175C20.2252 26.0292 20.1467 25.8833 19.9896 25.7263C19.6082 25.4121 19.2043 25.2551 18.7668 25.2551C18.5985 25.2551 18.4302 25.2775 18.2507 25.3224C16.9493 25.7038 16.1303 26.5452 15.7713 27.8354C15.7376 27.9925 15.7152 28.1384 15.7152 28.2618C15.7152 29.0471 16.2761 29.5183 17.398 29.6866C17.9365 29.7651 18.2843 29.8324 18.4526 29.8773C18.8453 30.0456 19.0697 30.2363 19.1033 30.4383C19.137 30.6402 19.1594 30.7748 19.1594 30.8197C19.1594 31.2572 18.8789 31.6163 18.3292 31.8855C17.7234 32.1772 17.2634 32.5923 16.9605 33.1308C16.781 33.445 16.6912 33.7367 16.6912 34.0171C16.6912 34.2191 16.7698 34.4435 16.938 34.6678C17.2746 35.0829 17.6785 35.2849 18.1497 35.2849C18.2843 35.2849 18.4414 35.2737 18.5872 35.24C19.5745 34.9034 20.0569 34.3761 20.0569 33.6581L20.0457 33.3215C20.113 32.6708 20.4496 32.3343 21.033 32.3118C21.2574 32.3118 21.4705 32.3904 21.6613 32.5362C21.9305 32.7606 22.0651 33.142 22.0651 33.6581C22.0651 33.8713 22.0427 34.0844 21.9978 34.2976C21.65 35.7449 20.775 36.6873 19.3501 37.1136C18.935 37.2482 18.5424 37.3155 18.1609 37.3155ZM24.3651 37.4165C24.2416 37.4165 24.107 37.3941 23.9612 37.3492C23.5348 37.1809 23.3217 36.878 23.3217 36.4404C23.3217 36.1039 24.0397 34.3874 25.4645 31.3133C23.9724 27.7345 23.1422 25.8384 23.0075 25.6365C22.8168 25.3336 22.7271 25.0643 22.7271 24.8287C22.7271 24.537 22.8505 24.2902 23.0973 24.0771C23.2992 23.9312 23.5236 23.8527 23.7704 23.8527C24.2416 23.8751 24.6231 24.2005 24.926 24.84C25.487 26.1526 26.0479 27.4764 26.5864 28.8003C26.7884 28.5198 27.4054 27.2296 28.4263 24.9297C28.6732 24.2902 29.021 23.9761 29.4922 23.9761C29.6717 23.9761 29.8399 24.0322 30.0082 24.1332C30.3224 24.3351 30.4682 24.6044 30.4682 24.9297C30.4682 25.1877 30.3672 25.5468 30.1541 25.9843C29.4136 27.5774 28.6171 29.3612 27.7532 31.347L29.3912 34.6903C29.739 35.3746 29.9185 35.8458 29.9185 36.1263C29.9185 36.4853 29.739 36.777 29.3912 36.9677C29.2229 37.0463 29.0658 37.0799 28.9312 37.0799C28.5834 37.0799 28.2917 36.8892 28.0449 36.4965C27.7869 36.0366 27.54 35.5654 27.3269 35.0942C27.1025 34.623 26.8669 34.1518 26.6089 33.6918C25.8347 35.4083 25.4309 36.3395 25.3972 36.4741C25.1167 37.1024 24.7689 37.4165 24.3651 37.4165ZM37.7606 38.2691C37.424 38.2579 37.1772 38.1457 36.9977 37.9438C36.8182 37.7306 36.7284 37.4726 36.7172 37.1472L36.6948 35.6439C36.1899 35.8122 35.6738 35.958 35.169 36.1039C34.8661 36.1824 34.5295 36.2273 34.1817 36.2273C33.8788 36.2273 33.5759 36.1936 33.273 36.1263C32.0838 35.8234 31.4779 35.1278 31.4779 34.0171C31.4779 33.602 31.6013 33.1757 31.8594 32.7494C32.6223 31.605 33.9125 30.9655 35.7412 30.8421L36.964 30.786C36.9977 30.3822 37.0089 29.9895 37.0089 29.5968C36.9416 27.0052 36.5602 25.715 35.8646 25.715C35.6065 25.715 35.3036 25.8609 34.9558 26.175C33.9125 27.0725 33.1608 28.1832 32.6896 29.4846C32.4876 30.1802 32.1286 30.5168 31.6013 30.5168C31.534 30.5168 31.4667 30.5168 31.4106 30.5056C30.917 30.3485 30.6702 30.0007 30.6702 29.4734C30.6702 29.2827 30.6926 29.1032 30.7599 28.9237C31.3209 27.2296 32.2745 25.816 33.632 24.6717C34.4285 24.021 35.2026 23.6844 35.9543 23.6732C36.7172 23.6732 37.3791 24.021 37.9401 24.7165C38.6693 25.7711 39.0396 27.353 39.0396 29.4734C39.0396 29.8997 38.961 31.7621 38.8264 35.0717C38.804 35.9805 38.7591 36.7209 38.7142 37.2931C38.6245 37.9214 38.2991 38.2467 37.7606 38.2691ZM34.0695 34.2079L34.2827 34.1854C35.1914 34.0844 36.0216 33.8713 36.7621 33.5684L36.7845 32.9177C36.4816 32.8616 36.2348 32.8391 36.0777 32.8391C35.427 32.8391 34.7988 32.985 34.2154 33.2655C33.8227 33.4786 33.632 33.703 33.632 33.9274C33.632 34.1069 33.7778 34.2079 34.0695 34.2079ZM50.4381 36.9341C49.8435 36.9116 49.5294 36.5863 49.4957 35.958C49.4957 34.8698 49.5518 33.142 49.6528 30.7524L49.6752 29.6641C49.6752 28.6432 49.5967 28.1271 49.4284 28.1271C49.0357 28.1271 48.5982 29.7539 48.0933 33.0186L47.8128 34.9371C47.7007 35.6663 47.3416 36.0366 46.7695 36.0366C46.1076 35.9805 45.771 35.5654 45.771 34.7688C45.6588 29.3164 45.4456 26.5789 45.1539 26.5789C44.9857 26.5789 44.7613 26.9604 44.4808 27.7345C43.8637 29.4622 43.516 32.065 43.415 35.5541C43.3813 36.3843 43.0448 36.8219 42.4053 36.8892C41.9004 36.8892 41.5638 36.6536 41.3956 36.1712C41.2721 35.7336 41.1824 35.2961 41.1151 34.8473C40.4868 31.706 40.1054 28.733 39.9707 25.9394C39.9707 25.715 40.0156 25.5019 40.0941 25.2775C40.1727 25.0643 40.2961 24.896 40.4644 24.7839C40.6327 24.6717 40.8122 24.6156 41.0029 24.6156C41.5526 24.638 41.8668 24.9409 41.9565 25.5355L42.2482 28.6432C42.9101 26.6013 43.4262 25.356 43.7852 24.896C44.2228 24.4024 44.694 24.1556 45.21 24.1556C45.8046 24.1668 46.3095 24.4809 46.7022 25.1092C46.9714 25.6028 47.2182 26.3545 47.4426 27.3642C47.667 26.9267 47.8689 26.5789 48.0597 26.3209C48.5309 25.5243 49.0582 25.1316 49.6416 25.1316C50.1464 25.1316 50.5727 25.356 50.9205 25.8048C51.2908 26.3994 51.4927 27.0501 51.5151 27.7569C51.5712 28.43 51.5937 29.1705 51.5937 29.9895C51.5824 31.8294 51.56 33.6132 51.5151 35.3185C51.5151 36.3956 51.1561 36.9341 50.4381 36.9341Z" fill="white"/>
<path d="M18.6101 56.5338C18.1838 56.5338 17.836 56.3094 17.5443 55.8607C17.4433 55.6363 17.376 55.4231 17.3423 55.1987C16.6468 52.6632 16.299 50.0155 16.299 47.2444C16.299 45.5167 16.4 43.6992 16.6019 41.8032L16.0297 41.7471C15.379 41.5676 15.0312 41.1749 15.0088 40.5579C15.0088 39.5369 16.1307 39.0321 18.3745 39.0321C19.1598 39.0321 19.9452 39.1218 20.7305 39.3126C23.0753 39.9969 24.5786 41.5339 25.2293 43.9012C25.3191 44.3163 25.364 44.7201 25.364 45.124C25.364 45.8533 25.2181 46.5713 24.9264 47.2669C23.9728 49.5556 22.3573 51.1711 20.0798 52.1023C19.8666 52.2032 19.6086 52.3267 19.2832 52.4725C19.6647 54.2451 19.8554 55.1763 19.8554 55.266C19.8554 55.5465 19.7769 55.7933 19.6198 56.0065C19.373 56.3543 19.0364 56.5338 18.6101 56.5338ZM19.0252 49.8024C19.1037 49.7912 19.1823 49.7575 19.2608 49.7126C20.7081 49.118 21.7627 48.1195 22.4358 46.7059C22.7163 46.1225 22.8509 45.5616 22.8509 45.0455C22.8509 44.0807 22.4021 43.2168 21.4934 42.4651C20.8651 41.8929 20.1359 41.6125 19.3057 41.6125C19.1486 42.1959 19.0252 43.0373 18.9242 44.1592C18.8345 45.2699 18.7896 46.3693 18.7896 47.4464C18.7896 48.5234 18.8345 49.2975 18.9355 49.7799L19.0252 49.8024ZM34.6758 57.106C34.2607 57.0835 33.9465 56.9489 33.7334 56.7021C33.509 56.444 33.3968 56.1187 33.3856 55.726L33.3631 53.8637C32.7349 54.0768 32.1066 54.2563 31.4783 54.4358C31.0969 54.5368 30.693 54.5929 30.2555 54.5929C29.8965 54.5929 29.5262 54.548 29.1448 54.4583C27.6751 54.0993 26.9346 53.2242 26.9346 51.8555C26.9346 51.3506 27.0917 50.8345 27.3946 50.3072C28.337 48.8936 29.9413 48.1083 32.1739 47.9512L33.6885 47.8839C33.7334 47.3903 33.7558 46.8966 33.7558 46.4142C33.6661 43.228 33.1949 41.6349 32.331 41.6349C32.0169 41.6349 31.6354 41.8256 31.2203 42.1959C29.9413 43.3065 28.9989 44.664 28.4155 46.2908C28.1687 47.1322 27.7312 47.5586 27.0917 47.5586C27.0019 47.5586 26.9234 47.5473 26.8449 47.5361C26.239 47.3454 25.9249 46.9191 25.9249 46.2684C25.9249 46.0328 25.9698 45.8084 26.0371 45.584C26.7439 43.5085 27.9219 41.7583 29.5823 40.3447C30.5696 39.5369 31.5232 39.1331 32.4432 39.1218C33.3856 39.1218 34.2046 39.5482 34.8889 40.412C35.7865 41.7022 36.2464 43.6543 36.2464 46.2684C36.2464 46.7844 36.1567 49.0956 35.9772 53.1681C35.9547 54.29 35.9099 55.1987 35.8538 55.9055C35.7304 56.6684 35.3377 57.0723 34.6758 57.106ZM30.1208 52.1023L30.3901 52.0798C31.512 51.9452 32.5329 51.6872 33.4417 51.3169L33.4641 50.4979C33.0939 50.4419 32.8022 50.4194 32.589 50.4194C31.7925 50.4194 31.0296 50.5877 30.3003 50.9355C29.8179 51.2047 29.5823 51.474 29.5823 51.7433C29.5823 51.9789 29.7618 52.1023 30.1208 52.1023ZM40.4199 55.5465C39.4439 55.5465 38.8268 55.0417 38.5576 54.0207C38.1761 52.3491 37.9854 50.4755 37.9742 48.4112C37.9742 46.5601 38.0751 44.6977 38.2995 42.8353C38.3556 42.5436 38.3893 42.2183 38.3893 41.8481L38.0303 41.8705C37.0542 41.8705 36.5606 41.4666 36.5493 40.6701C36.5493 40.1316 36.8186 39.7501 37.3571 39.5145C37.6376 39.3911 38.1761 39.335 38.9727 39.335C41.3062 39.335 43.3705 40.1203 45.1768 41.7022C46.8148 43.127 47.6225 44.8211 47.6225 46.7844C47.6225 47.3566 47.5664 47.9512 47.4318 48.5571C46.8372 51.0589 45.4685 53.0559 43.3481 54.5256C42.473 55.1314 41.4969 55.4792 40.4199 55.5465ZM40.9248 52.9549C43.2471 52.1023 44.6383 50.3409 45.087 47.6595C45.1319 47.3678 45.1544 47.0986 45.1544 46.8293C45.1544 45.5952 44.6607 44.5294 43.6734 43.6431C42.933 42.9924 42.0018 42.51 40.9023 42.2183C40.6106 43.9797 40.4648 45.7523 40.4648 47.5361C40.4648 49.3424 40.6106 51.1487 40.9248 52.9549ZM51.2126 56.0065C50.4049 56.0065 49.9112 55.367 49.6981 54.088C49.3278 51.6647 49.1259 49.1517 49.1147 46.5264C49.1147 44.7089 49.2942 43.6319 49.6644 43.3178C49.8888 43.127 50.158 43.0261 50.4722 43.0261C51.2575 43.0485 51.6502 43.5085 51.6726 44.406C51.6951 45.124 51.7175 45.8533 51.7175 46.5937V47.121C51.7175 49.7575 51.9194 52.1808 52.3458 54.4134C52.3794 54.5705 52.3906 54.7163 52.3906 54.8509C52.3906 55.4007 52.1214 55.7709 51.5829 55.9616C51.4482 55.9953 51.3248 56.0065 51.2126 56.0065ZM50.7751 41.9827C50.259 41.9715 49.8664 41.7134 49.5747 41.2198C49.4512 40.9842 49.3951 40.7486 49.3951 40.513C49.3951 39.9184 49.642 39.4584 50.1132 39.1218C50.3376 38.976 50.5619 38.8975 50.7975 38.8975C50.9883 38.8975 51.179 38.9536 51.3585 39.0545C51.8409 39.3013 52.0877 39.7613 52.0877 40.4345C52.0653 40.8384 51.9867 41.1413 51.8409 41.3432C51.5492 41.7695 51.2014 41.9827 50.7751 41.9827Z" fill="#FBBE07"/>
<path d="M35.9091 13.6994C35.7633 13.6657 35.6623 13.5311 35.6848 13.3852C35.7072 13.2394 35.853 13.1384 35.9989 13.1608L41.0026 13.9798C41.1484 14.0023 41.2494 14.1369 41.227 14.294C41.2045 14.4398 41.0587 14.5408 40.9128 14.5183L35.9091 13.6994Z" fill="#4D2456"/>
<path d="M31.8261 15.4496C31.6803 15.4271 31.5793 15.2813 31.6129 15.1354C31.6354 14.9896 31.7812 14.8886 31.9271 14.9223L41.0033 16.5602C41.1491 16.5827 41.2501 16.7173 41.2277 16.8744C41.194 17.0202 41.0594 17.11 40.9135 17.0875L31.8261 15.4496Z" fill="#4D2456"/>
<path d="M31.8261 18.0299C31.6803 18.0075 31.5793 17.8616 31.6129 17.7158C31.6354 17.5699 31.7812 17.469 31.9271 17.4914L41.0033 19.1294C41.1491 19.163 41.2501 19.2977 41.2277 19.4435C41.194 19.5894 41.0594 19.6903 40.9135 19.6679L31.8261 18.0299Z" fill="#4D2456"/>
<path d="M33.0595 8.02265C33.2054 8.00021 33.34 8.10119 33.3624 8.24703C33.3849 8.4041 33.2839 8.53873 33.1268 8.56117L23.0521 9.97477C22.9063 9.9972 22.7716 9.89623 22.7492 9.75039C22.7268 9.60454 22.8277 9.45869 22.9848 9.43625L33.0595 8.02265Z" fill="#FBBE07"/>
<path d="M28.0895 11.265C28.2353 11.2538 28.37 11.3548 28.3924 11.5006C28.4148 11.6465 28.3139 11.7811 28.168 11.8035L23.0521 12.5552C22.9063 12.5776 22.7717 12.4767 22.7492 12.3308C22.7268 12.1738 22.8277 12.0391 22.9736 12.0167L28.0895 11.265Z" fill="#FBBE07"/>
<path d="M26.3057 14.0585C26.4627 14.0361 26.5973 14.1371 26.6198 14.2829C26.6422 14.4288 26.5413 14.5746 26.3954 14.5971L23.0633 15.1356C22.9175 15.158 22.7717 15.057 22.7492 14.9112C22.7268 14.7541 22.8277 14.6195 22.9736 14.5971L26.3057 14.0585Z" fill="#FBBE07"/>
<path d="M17.6901 75.4826V75.2919C17.6901 74.5963 17.4657 74.0242 16.8599 74.0242C16.299 74.0242 15.9512 74.5963 15.9512 75.4153C15.9512 76.268 16.2877 76.784 16.8599 76.784C17.2414 76.784 17.4882 76.5484 17.6116 76.2343L17.3536 76.0885C17.275 76.3016 17.1292 76.4699 16.8711 76.4699C16.4897 76.4699 16.299 76.0548 16.299 75.4826H17.6901ZM17.3423 75.1909H16.299C16.299 74.888 16.4448 74.3271 16.8487 74.3271C17.1853 74.3271 17.3423 74.6749 17.3423 75.1909ZM19.7769 76.7055L19.0701 75.3368L19.6983 74.1139H19.3169L18.8681 75.09L18.4194 74.1139H18.0267L18.6662 75.3368L17.9706 76.7055H18.352L18.8681 75.6173L19.3842 76.7055H19.7769ZM21.6504 76.7055C21.6392 76.5933 21.628 76.2904 21.628 76.1558V75.0675C21.628 74.3944 21.4148 74.0242 20.8651 74.0242C20.6183 74.0242 20.3266 74.1588 20.1695 74.3832L20.349 74.6076C20.4724 74.4393 20.6407 74.3271 20.8427 74.3271C21.1231 74.3271 21.3027 74.529 21.3027 74.9778V75.1124H21.1007C20.6744 75.1124 20.0798 75.2583 20.0798 76.0099C20.0798 76.5484 20.4051 76.7728 20.6968 76.7728C21.0334 76.7728 21.2466 76.5821 21.3251 76.2231H21.3363C21.3363 76.3465 21.3363 76.5933 21.3475 76.7055H21.6504ZM21.3139 75.5612C21.3139 75.9651 21.1792 76.4924 20.7866 76.4924C20.5959 76.4924 20.4051 76.3353 20.4051 75.9763C20.4051 75.4826 20.7641 75.3817 21.1007 75.3817H21.3139V75.5612ZM22.7387 74.6188H22.7275C22.7275 74.4505 22.7275 74.2373 22.7163 74.1139H22.3797C22.3909 74.2149 22.4021 74.5402 22.4021 74.7646V76.7055H22.7387V75.2134C22.7387 74.7422 22.9406 74.3271 23.2772 74.3271C23.6362 74.3271 23.6811 74.7085 23.6811 75.0339V76.7055H24.0289V75.2134C24.0289 74.7422 24.2196 74.3271 24.5674 74.3271C24.9264 74.3271 24.9713 74.7085 24.9713 75.0339V76.7055H25.3191V75.0339C25.3191 74.5515 25.2293 74.0242 24.6684 74.0242C24.2981 74.0242 24.0738 74.3159 23.984 74.6188H23.9728C23.9279 74.3046 23.7708 74.0242 23.3894 74.0242C23.0416 74.0242 22.8172 74.271 22.7387 74.6188ZM27.3048 74.3383C27.1702 74.1476 26.9571 74.0242 26.6654 74.0242C26.2615 74.0242 25.9473 74.3271 25.9473 74.7646C25.9473 75.2134 26.2054 75.3817 26.4634 75.4714C26.7102 75.5724 26.9458 75.6734 26.9458 76.0099C26.9458 76.3016 26.7775 76.4924 26.5419 76.4924C26.3176 76.4924 26.1493 76.3689 26.0371 76.1894L25.8351 76.4138C25.9922 76.6382 26.2503 76.784 26.5419 76.784C26.9683 76.784 27.2824 76.4924 27.2824 75.9875C27.2824 75.5275 26.9795 75.3368 26.699 75.2246C26.4185 75.1236 26.2839 75.0227 26.2839 74.7534C26.2839 74.4841 26.441 74.3046 26.6654 74.3046C26.8561 74.3046 27.0019 74.4056 27.0917 74.5627L27.3048 74.3383ZM29.257 73.3174C29.257 73.1715 29.1672 73.0593 29.0326 73.0593C28.9092 73.0593 28.8082 73.1715 28.8082 73.3174C28.8082 73.4632 28.9092 73.5642 29.0326 73.5642C29.1672 73.5642 29.257 73.4632 29.257 73.3174ZM29.2121 77.087V74.1139H28.8643V77.0645C28.8643 77.3674 28.797 77.6367 28.5277 77.6367C28.4828 77.6367 28.4155 77.6367 28.3707 77.6143L28.337 77.9284C28.4043 77.9508 28.4828 77.962 28.5502 77.962C29.0214 77.962 29.2121 77.6143 29.2121 77.087ZM29.9862 74.1139V75.7856C29.9862 76.268 30.0759 76.784 30.6369 76.784C30.9735 76.784 31.1978 76.5484 31.2988 76.2007H31.31C31.31 76.3689 31.3213 76.5709 31.3325 76.7055H31.669C31.6578 76.6045 31.6466 76.268 31.6466 76.0548V74.1139H31.2988V75.606C31.2988 76.0772 31.0857 76.4811 30.7379 76.4811C30.3901 76.4811 30.334 76.0997 30.334 75.7856V74.1139H29.9862ZM33.666 74.3383C33.5314 74.1476 33.3182 74.0242 33.0266 74.0242C32.6227 74.0242 32.3085 74.3271 32.3085 74.7646C32.3085 75.2134 32.5666 75.3817 32.8246 75.4714C33.0714 75.5724 33.307 75.6734 33.307 76.0099C33.307 76.3016 33.1387 76.4924 32.9031 76.4924C32.6788 76.4924 32.5217 76.3689 32.3983 76.1894L32.1963 76.4138C32.3534 76.6382 32.6114 76.784 32.9031 76.784C33.3295 76.784 33.6436 76.4924 33.6436 75.9875C33.6436 75.5275 33.3407 75.3368 33.0602 75.2246C32.7797 75.1236 32.6451 75.0227 32.6451 74.7534C32.6451 74.4841 32.8022 74.3046 33.0266 74.3046C33.2173 74.3046 33.3743 74.4056 33.4529 74.5627L33.666 74.3383ZM35.0909 76.7055L35.0796 76.425C35.0235 76.4475 34.945 76.4699 34.8889 76.4699C34.6982 76.4699 34.6197 76.3353 34.6197 76.0212V74.3944H35.0796V74.1139H34.6197V73.3959H34.2719V74.1139H33.9353V74.3944H34.2831V76.0885C34.2831 76.5036 34.4177 76.7728 34.7767 76.7728C34.8889 76.7728 35.0123 76.7392 35.0909 76.7055ZM38.1537 76.6719V74.1139H37.8171V74.5515H37.8059C37.7273 74.2373 37.503 74.0242 37.1888 74.0242C36.6503 74.0242 36.3698 74.5963 36.3698 75.3929C36.3698 76.2007 36.6615 76.784 37.1888 76.784C37.5478 76.784 37.7273 76.5484 37.8059 76.2343H37.8171V76.6719C37.8171 77.2328 37.7049 77.6479 37.2449 77.6479C36.9869 77.6479 36.7625 77.5021 36.6279 77.2889L36.4035 77.5245C36.5718 77.7938 36.8971 77.962 37.2337 77.962C37.9517 77.962 38.1537 77.4011 38.1537 76.6719ZM37.8171 75.4041C37.8171 76.0099 37.6376 76.4811 37.2674 76.4811C36.8859 76.4811 36.7176 76.0099 36.7176 75.4041C36.7176 74.7983 36.8859 74.3271 37.2674 74.3271C37.6376 74.3271 37.8171 74.7983 37.8171 75.4041ZM40.6106 75.4153C40.6106 74.5851 40.2741 74.0242 39.7131 74.0242C39.1297 74.0242 38.8044 74.5851 38.8044 75.4153C38.8044 76.2343 39.1521 76.784 39.7131 76.784C40.2741 76.784 40.6106 76.2343 40.6106 75.4153ZM40.2628 75.4041C40.2628 76.0099 40.0833 76.4811 39.7131 76.4811C39.3317 76.4811 39.1634 76.0099 39.1634 75.4041C39.1634 74.7983 39.3317 74.3271 39.7131 74.3271C40.0833 74.3271 40.2628 74.7983 40.2628 75.4041ZM42.1028 76.7055L42.0915 76.425C42.0467 76.4475 41.9681 76.4699 41.9008 76.4699C41.7213 76.4699 41.6316 76.3353 41.6316 76.0212V74.3944H42.0915V74.1139H41.6316V73.3959H41.295V74.1139H40.9584V74.3944H41.295V76.0885C41.295 76.5036 41.4296 76.7728 41.7886 76.7728C41.912 76.7728 42.0354 76.7392 42.1028 76.7055ZM45.1319 75.4826V75.2919C45.1319 74.5963 44.9075 74.0242 44.2905 74.0242C43.7295 74.0242 43.3817 74.5963 43.3817 75.4153C43.3817 76.268 43.7183 76.784 44.3017 76.784C44.6831 76.784 44.93 76.5484 45.0534 76.2343L44.7953 76.0885C44.7056 76.3016 44.5597 76.4699 44.3129 76.4699C43.9202 76.4699 43.7407 76.0548 43.7295 75.4826H45.1319ZM44.7841 75.1909H43.7407C43.7407 74.888 43.8866 74.3271 44.2793 74.3271C44.627 74.3271 44.7841 74.6749 44.7841 75.1909ZM47.1064 76.7055C47.0952 76.5933 47.084 76.2904 47.084 76.1558V75.0675C47.084 74.3944 46.8708 74.0242 46.3323 74.0242C46.0743 74.0242 45.7826 74.1588 45.6255 74.3832L45.8163 74.6076C45.9284 74.4393 46.108 74.3271 46.2987 74.3271C46.5792 74.3271 46.7587 74.529 46.7587 74.9778V75.1124H46.5567C46.1304 75.1124 45.5358 75.2583 45.5358 76.0099C45.5358 76.5484 45.8724 76.7728 46.1528 76.7728C46.4894 76.7728 46.7026 76.5821 46.7811 76.2231H46.7923C46.7923 76.3465 46.8035 76.5933 46.8148 76.7055H47.1064ZM46.7699 75.5612C46.7699 75.9651 46.6465 76.4924 46.2426 76.4924C46.0519 76.4924 45.8611 76.3353 45.8611 75.9763C45.8611 75.4826 46.2201 75.3817 46.5567 75.3817H46.7699V75.5612ZM49.0249 74.3383C48.9015 74.1476 48.6883 74.0242 48.3854 74.0242C47.9928 74.0242 47.6786 74.3271 47.6786 74.7646C47.6786 75.2134 47.9254 75.3817 48.1947 75.4714C48.4415 75.5724 48.6771 75.6734 48.6771 76.0099C48.6771 76.3016 48.5088 76.4924 48.2732 76.4924C48.0489 76.4924 47.8806 76.3689 47.7684 76.1894L47.5552 76.4138C47.7123 76.6382 47.9815 76.784 48.262 76.784C48.6996 76.784 49.0025 76.4924 49.0025 75.9875C49.0025 75.5275 48.7108 75.3368 48.4303 75.2246C48.1498 75.1236 48.004 75.0227 48.004 74.7534C48.004 74.4841 48.1723 74.3046 48.3854 74.3046C48.5874 74.3046 48.7332 74.4056 48.823 74.5627L49.0249 74.3383ZM50.0122 73.3174C50.0122 73.1715 49.9224 73.0593 49.7878 73.0593C49.6532 73.0593 49.5522 73.1715 49.5522 73.3174C49.5522 73.4632 49.6532 73.5642 49.7878 73.5642C49.9112 73.5642 50.0122 73.4632 50.0122 73.3174ZM49.9561 76.7055V74.1139H49.6195V76.7055H49.9561ZM52.357 75.4826V75.2919C52.357 74.5963 52.1326 74.0242 51.5155 74.0242C50.9546 74.0242 50.6068 74.5963 50.6068 75.4153C50.6068 76.268 50.9434 76.784 51.5268 76.784C51.9082 76.784 52.155 76.5484 52.2784 76.2343L52.0204 76.0885C51.9306 76.3016 51.7848 76.4699 51.538 76.4699C51.1453 76.4699 50.9658 76.0548 50.9546 75.4826H52.357ZM52.0092 75.1909H50.9658C50.9658 74.888 51.1116 74.3271 51.5043 74.3271C51.8521 74.3271 52.0092 74.6749 52.0092 75.1909ZM53.3442 74.6749H53.333C53.333 74.4505 53.3218 74.2373 53.3106 74.1139H52.974C52.9852 74.2149 52.9964 74.5402 52.9964 74.7646V76.7055H53.3442V75.3817C53.3442 74.8992 53.535 74.3832 53.8828 74.3832C53.9164 74.3832 53.9388 74.3832 53.9725 74.3944V74.0354C53.9613 74.0354 53.9388 74.0354 53.9164 74.0354C53.6584 74.0354 53.434 74.2261 53.3442 74.6749Z" fill="#4D2456"/>
</svg>
