<svg width="29" height="22" viewBox="0 0 29 22" fill="none" xmlns="http://www.w3.org/2000/svg">
<path d="M24.764 0H4C2.93913 0 1.92172 0.421427 1.17157 1.17157C0.421427 1.92172 0 2.93913 0 4V17.216C0 18.2769 0.421427 19.2943 1.17157 20.0444C1.92172 20.7946 2.93913 21.216 4 21.216H24.764C25.8249 21.216 26.8423 20.7946 27.5924 20.0444C28.3426 19.2943 28.764 18.2769 28.764 17.216V4C28.764 2.93913 28.3426 1.92172 27.5924 1.17157C26.8423 0.421427 25.8249 0 24.764 0ZM26.764 17.216C26.764 17.7464 26.5533 18.2551 26.1782 18.6302C25.8031 19.0053 25.2944 19.216 24.764 19.216H4C3.46957 19.216 2.96086 19.0053 2.58579 18.6302C2.21071 18.2551 2 17.7464 2 17.216V4C2 3.46957 2.21071 2.96086 2.58579 2.58579C2.96086 2.21071 3.46957 2 4 2H24.764C25.2944 2 25.8031 2.21071 26.1782 2.58579C26.5533 2.96086 26.764 3.46957 26.764 4V17.216ZM24.772 4.776C24.8502 4.88179 24.9067 5.00195 24.9383 5.12962C24.97 5.25728 24.9762 5.38994 24.9565 5.51998C24.9368 5.65003 24.8916 5.77492 24.8236 5.88749C24.7555 6.00006 24.666 6.0981 24.56 6.176L16.525 12.093C15.9049 12.5524 15.1537 12.8003 14.382 12.8003C13.6103 12.8003 12.8591 12.5524 12.239 12.093L4.204 6.174C3.99582 6.01477 3.85848 5.78018 3.82153 5.52071C3.78457 5.26124 3.85096 4.99763 4.00641 4.78661C4.16185 4.5756 4.39392 4.43404 4.65269 4.39241C4.91145 4.35077 5.17621 4.41239 5.39 4.564L13.424 10.481C13.7013 10.6861 14.0371 10.7968 14.382 10.7968C14.7269 10.7968 15.0627 10.6861 15.34 10.481L23.374 4.564C23.5875 4.40677 23.8547 4.34078 24.1169 4.38053C24.3791 4.42029 24.6147 4.56254 24.772 4.776Z" fill="black"/>
</svg>
