<svg width="45" height="51" viewBox="0 0 45 51" fill="none" xmlns="http://www.w3.org/2000/svg">
<path fill-rule="evenodd" clip-rule="evenodd" d="M11.4521 3.83619C0.549566 8.37695 -5.08031 23.8304 6.08626 39.4C38.8172 85.023 69.8864 -20.5 11.4521 3.83619Z" fill="#4D2456"/>
<path d="M14.2397 11.5505C14.2397 9.94302 14.2397 8.34381 14.2397 6.74461C14.2397 5.858 14.9076 5.03768 15.7385 4.91339C18.1224 4.56537 20.5064 4.21736 22.8903 3.86934C23.7212 3.74505 24.3891 4.36651 24.3891 5.25311C24.3891 6.85232 24.3891 8.45982 24.3891 10.059C24.3891 10.9456 23.7212 11.766 22.8903 11.882C21.446 12.0974 20.0016 12.3046 18.5495 12.52C18.7592 13.9535 18.9611 15.387 19.163 16.8205C18.2001 15.503 17.2372 14.1772 16.2665 12.8514C16.0957 12.8846 15.9171 12.9094 15.7385 12.9343C14.9076 13.0503 14.2397 12.4371 14.2397 11.5505Z" fill="#4D2456"/>
<path d="M14.0459 11.5504V6.74451C14.0459 6.24734 14.2323 5.77504 14.5351 5.41045C14.838 5.04587 15.2495 4.789 15.7154 4.72271L22.8673 3.67038C22.945 3.66209 23.0226 3.65381 23.0925 3.65381C23.473 3.65381 23.8147 3.79467 24.0787 4.03497C24.335 4.27526 24.5136 4.61499 24.5602 5.01272C24.5757 5.0873 24.5835 5.17016 24.5835 5.25302V10.0589C24.5835 10.5561 24.3971 11.0284 24.0943 11.393C23.7914 11.7576 23.3721 12.0144 22.9139 12.0807L18.7672 12.6939L19.3496 16.7955C19.3652 16.9032 19.2953 17.0026 19.1943 17.0192C19.1167 17.0358 19.0468 16.9944 19.008 16.9281L16.1891 13.0668L15.762 13.1331C15.6844 13.1413 15.6067 13.1496 15.5368 13.1496C15.1563 13.1496 14.8147 13.0088 14.5506 12.7685C14.2944 12.5282 14.1158 12.1884 14.0614 11.7907C14.0537 11.7079 14.0459 11.6333 14.0459 11.5504ZM14.4264 6.74451V11.5504C14.4264 11.6167 14.4264 11.6747 14.4342 11.7327C14.473 12.0393 14.605 12.2879 14.7991 12.4619C14.9933 12.6442 15.2495 12.7436 15.5368 12.7436C15.599 12.7436 15.6533 12.7436 15.7154 12.7353L16.2435 12.6525C16.3056 12.6442 16.3755 12.6773 16.4143 12.7353L18.8682 16.0912L18.3634 12.5447C18.3557 12.437 18.4256 12.3376 18.5265 12.321L22.8673 11.683C23.2323 11.6333 23.5662 11.4261 23.8069 11.1278C24.0554 10.8295 24.203 10.4567 24.203 10.0589V5.25302C24.203 5.18673 24.1952 5.12044 24.1952 5.06244C24.1564 4.76414 24.0244 4.51556 23.8302 4.33327C23.6361 4.15926 23.3798 4.05154 23.0925 4.05154C23.0304 4.05154 22.976 4.05983 22.9139 4.06811L15.762 5.11215C15.3971 5.17016 15.0632 5.37731 14.8224 5.67561C14.5739 5.9739 14.4264 6.34678 14.4264 6.74451Z" fill="#FBBE07"/>
<path d="M30.5394 14.9975C30.5394 13.3983 30.5394 11.7908 30.5394 10.1916C30.5394 9.30494 29.8638 8.46805 29.0329 8.3189C26.649 7.9046 24.265 7.4903 21.881 7.06771C21.0579 6.92684 20.3823 7.52344 20.3823 8.41005C20.3823 10.0175 20.3823 11.6168 20.3823 13.216C20.3823 14.1026 21.0579 14.9395 21.881 15.0886C22.0596 15.1135 22.2382 15.1466 22.4168 15.1798C21.9509 15.7846 21.4928 16.3812 21.0346 16.9861C22.2538 16.5138 23.4729 16.0498 24.6999 15.5775C26.1442 15.8344 27.5886 16.0829 29.0329 16.3398C29.8638 16.4807 30.5394 15.8841 30.5394 14.9975Z" fill="#FBBE07"/>
<path d="M12.5704 27.7001C11.9336 27.7001 11.3512 27.4266 10.8309 26.8963C10.3805 26.4157 10.1553 25.8771 10.1553 25.2723C10.1553 24.6757 10.3495 24.0874 10.73 23.4908L10.8542 23.267L10.5358 23.0433C9.80589 22.5047 9.44092 21.8501 9.44092 21.0712C9.44092 20.8392 9.47198 20.5989 9.54187 20.3503C9.93013 18.7843 10.8697 17.7982 12.3529 17.3922C12.5548 17.3425 12.7645 17.3259 12.9664 17.3259C13.4245 17.3259 13.8749 17.4419 14.3176 17.6905C14.6592 17.8811 14.931 18.1545 15.1407 18.5025C15.3193 18.8837 15.4047 19.24 15.4047 19.5797C15.4047 20.052 15.2183 20.4829 14.8301 20.8475C14.3486 21.3115 13.7817 21.5435 13.1217 21.5435C12.7257 21.5435 12.4073 21.411 12.1666 21.1458C12.0112 20.9552 11.9336 20.7564 11.9336 20.5575C11.9336 20.2012 12.1122 19.9526 12.4616 19.8283C12.516 19.8035 12.5781 19.7952 12.6325 19.7952C12.7567 19.7952 12.8732 19.8366 12.9897 19.9112C13.1062 19.9858 13.2071 20.0189 13.3081 20.0189C13.4634 20.0189 13.6264 19.9526 13.7973 19.8117C13.9293 19.704 13.9992 19.5963 13.9992 19.472C13.9992 19.3643 13.9448 19.2566 13.8361 19.1406C13.5721 18.9086 13.2925 18.7926 12.9897 18.7926C12.8732 18.7926 12.7567 18.8091 12.6325 18.8423C11.7317 19.124 11.1648 19.7455 10.9163 20.6984C10.893 20.8144 10.8775 20.9221 10.8775 21.0132C10.8775 21.5933 11.2658 21.9413 12.0423 22.0656C12.415 22.1236 12.6558 22.1733 12.7723 22.2064C13.044 22.3307 13.1993 22.4716 13.2226 22.6207C13.2459 22.7699 13.2615 22.8693 13.2615 22.9025C13.2615 23.2256 13.0673 23.4908 12.6868 23.6896C12.2675 23.9051 11.9491 24.2116 11.7395 24.6094C11.6152 24.8414 11.5531 25.0568 11.5531 25.264C11.5531 25.4131 11.6075 25.5789 11.7239 25.7446C11.9569 26.0512 12.2364 26.2003 12.5626 26.2003C12.6558 26.2003 12.7645 26.192 12.8654 26.1672C13.5488 25.9186 13.8827 25.5291 13.8827 24.9988L13.8749 24.7502C13.9215 24.2697 14.1545 24.0211 14.5583 24.0045C14.7136 24.0045 14.8611 24.0625 14.9931 24.1702C15.1795 24.3359 15.2727 24.6177 15.2727 24.9988C15.2727 25.1563 15.2572 25.3137 15.2261 25.4711C14.9854 26.54 14.3797 27.2361 13.3935 27.5509C13.1062 27.6504 12.8344 27.7001 12.5704 27.7001ZM16.8646 27.7747C16.7792 27.7747 16.686 27.7581 16.585 27.7249C16.29 27.6007 16.1424 27.3769 16.1424 27.0538C16.1424 26.8052 16.6394 25.5374 17.6256 23.267C16.5928 20.6238 16.0182 19.2234 15.925 19.0743C15.793 18.8506 15.7309 18.6517 15.7309 18.4777C15.7309 18.2623 15.8163 18.08 15.9871 17.9225C16.1269 17.8148 16.2822 17.7568 16.453 17.7568C16.7792 17.7734 17.0432 18.0137 17.2529 18.486C17.6411 19.4554 18.0294 20.4332 18.4021 21.411C18.5419 21.2038 18.969 20.2509 19.6756 18.5523C19.8465 18.08 20.0872 17.8479 20.4134 17.8479C20.5376 17.8479 20.6541 17.8894 20.7706 17.964C20.988 18.1131 21.0889 18.312 21.0889 18.5523C21.0889 18.7428 21.0191 19.008 20.8715 19.3312C20.359 20.5078 19.8077 21.8253 19.2097 23.2919L20.3435 25.7611C20.5842 26.2666 20.7084 26.6146 20.7084 26.8218C20.7084 27.0869 20.5842 27.3024 20.3435 27.4432C20.227 27.5012 20.1183 27.5261 20.0251 27.5261C19.7844 27.5261 19.5825 27.3852 19.4116 27.0952C19.233 26.7555 19.0622 26.4075 18.9146 26.0594C18.7593 25.7114 18.5963 25.3634 18.4177 25.0237C17.8819 26.2915 17.6023 26.9792 17.579 27.0786C17.3849 27.5426 17.1441 27.7747 16.8646 27.7747ZM26.1364 28.4044C25.9035 28.3961 25.7326 28.3133 25.6084 28.1641C25.4841 28.0067 25.422 27.8161 25.4142 27.5758L25.3987 26.4655C25.0493 26.5898 24.6921 26.6975 24.3426 26.8052C24.133 26.8632 23.9 26.8963 23.6593 26.8963C23.4496 26.8963 23.2399 26.8715 23.0303 26.8218C22.2072 26.598 21.7878 26.0843 21.7878 25.264C21.7878 24.9574 21.8732 24.6425 22.0518 24.3277C22.5799 23.4825 23.4729 23.0102 24.7387 22.919L25.5851 22.8776C25.6084 22.5793 25.6161 22.2893 25.6161 21.9993C25.5695 20.0852 25.3055 19.1323 24.8241 19.1323C24.6455 19.1323 24.4358 19.24 24.1951 19.472C23.4729 20.1349 22.9526 20.9552 22.6265 21.9164C22.4867 22.4301 22.2382 22.6787 21.8732 22.6787C21.8266 22.6787 21.7801 22.6787 21.7412 22.6704C21.3996 22.5544 21.2287 22.2976 21.2287 21.9081C21.2287 21.7673 21.2442 21.6347 21.2908 21.5021C21.6791 20.2509 22.3392 19.2069 23.2788 18.3617C23.8301 17.8811 24.3659 17.6325 24.8862 17.6242C25.4142 17.6242 25.8724 17.8811 26.2607 18.3948C26.7654 19.1737 27.0217 20.3421 27.0217 21.9081C27.0217 22.223 26.9673 23.5985 26.8741 26.0429C26.8586 26.714 26.8275 27.2609 26.7965 27.6835C26.7344 28.1475 26.5092 28.3878 26.1364 28.4044ZM23.5816 25.4048L23.7292 25.3883C24.3582 25.3137 24.9328 25.1563 25.4453 24.9325L25.4608 24.4519C25.2512 24.4105 25.0803 24.3939 24.9716 24.3939C24.5212 24.3939 24.0864 24.5017 23.6826 24.7088C23.4108 24.8662 23.2788 25.032 23.2788 25.1977C23.2788 25.3303 23.3797 25.4048 23.5816 25.4048ZM34.9113 27.4184C34.4997 27.4018 34.2823 27.1615 34.259 26.6975C34.259 25.8937 34.2978 24.6177 34.3677 22.8527L34.3832 22.049C34.3832 21.295 34.3289 20.9138 34.2124 20.9138C33.9406 20.9138 33.6377 22.1153 33.2883 24.5265L33.0942 25.9434C33.0165 26.482 32.768 26.7555 32.372 26.7555C31.9138 26.714 31.6809 26.4075 31.6809 25.8191C31.6032 21.7921 31.4557 19.7703 31.2538 19.7703C31.1373 19.7703 30.982 20.052 30.7879 20.6238C30.3608 21.8998 30.12 23.8222 30.0502 26.3992C30.0269 27.0123 29.7939 27.3355 29.3513 27.3852C29.0018 27.3852 28.7689 27.2112 28.6524 26.8549C28.567 26.5317 28.5049 26.2086 28.4583 25.8771C28.0234 23.5571 27.7594 21.3612 27.6662 19.298C27.6662 19.1323 27.6973 18.9749 27.7516 18.8091C27.806 18.6517 27.8914 18.5274 28.0079 18.4445C28.1243 18.3617 28.2486 18.3203 28.3806 18.3203C28.7611 18.3368 28.9785 18.5606 29.0407 18.9997L29.2426 21.295C29.7007 19.7869 30.0579 18.8671 30.3064 18.5274C30.6093 18.1628 30.9354 17.9805 31.2926 17.9805C31.7042 17.9888 32.0536 18.2208 32.3254 18.6848C32.5118 19.0494 32.6826 19.6046 32.8379 20.3503C32.9932 20.0272 33.133 19.7703 33.265 19.5797C33.5912 18.9914 33.9561 18.7014 34.3599 18.7014C34.7094 18.7014 35.0044 18.8671 35.2452 19.1986C35.5014 19.6377 35.6412 20.1183 35.6567 20.6404C35.6956 21.1375 35.7111 21.6844 35.7111 22.2893C35.7033 23.6482 35.6878 24.9657 35.6567 26.2252C35.6567 27.0206 35.4082 27.4184 34.9113 27.4184Z" fill="white"/>
<path d="M12.8809 41.8941C12.5858 41.8941 12.3451 41.7284 12.1432 41.3969C12.0733 41.2312 12.0267 41.0738 12.0034 40.908C11.5219 39.0354 11.2812 37.0799 11.2812 35.0332C11.2812 33.7572 11.3511 32.4148 11.4909 31.0145L11.0948 30.9731C10.6444 30.8405 10.4037 30.5505 10.3882 30.0947C10.3882 29.3407 11.1647 28.9678 12.7178 28.9678C13.2614 28.9678 13.8049 29.0341 14.3485 29.175C15.9715 29.6804 17.012 30.8156 17.4624 32.564C17.5245 32.8706 17.5556 33.1689 17.5556 33.4672C17.5556 34.0058 17.4547 34.5361 17.2528 35.0498C16.5927 36.7402 15.4745 37.9334 13.8981 38.6211C13.7506 38.6957 13.572 38.7868 13.3468 38.8945C13.6108 40.2037 13.7428 40.8915 13.7428 40.9578C13.7428 41.1649 13.6885 41.3472 13.5797 41.5046C13.4089 41.7615 13.1759 41.8941 12.8809 41.8941ZM13.1682 36.9225C13.2225 36.9142 13.2769 36.8893 13.3313 36.8562C14.333 36.417 15.0629 35.6795 15.5288 34.6355C15.723 34.2046 15.8162 33.7903 15.8162 33.4092C15.8162 32.6966 15.5055 32.0585 14.8766 31.5034C14.4417 31.0808 13.9369 30.8736 13.3623 30.8736C13.2536 31.3045 13.1682 31.926 13.0983 32.7546C13.0362 33.5749 13.0051 34.3869 13.0051 35.1824C13.0051 35.9778 13.0362 36.5496 13.1061 36.9059L13.1682 36.9225ZM24.0008 42.3167C23.7135 42.3001 23.4961 42.2007 23.3486 42.0184C23.1932 41.8278 23.1156 41.5875 23.1078 41.2975L23.0923 39.922C22.6574 40.0794 22.2226 40.212 21.7877 40.3446C21.5237 40.4192 21.2441 40.4606 20.9413 40.4606C20.6928 40.4606 20.4365 40.4275 20.1725 40.3612C19.1553 40.096 18.6428 39.4497 18.6428 38.4388C18.6428 38.0659 18.7515 37.6848 18.9611 37.2953C19.6134 36.2513 20.7239 35.6713 22.2692 35.5553L23.3175 35.5055C23.3486 35.141 23.3641 34.7764 23.3641 34.4201C23.302 32.0668 22.9758 30.8902 22.3779 30.8902C22.1605 30.8902 21.8964 31.0311 21.6091 31.3045C20.7239 32.1248 20.0716 33.1274 19.6678 34.3289C19.4969 34.9504 19.1941 35.2652 18.7515 35.2652C18.6893 35.2652 18.635 35.257 18.5806 35.2487C18.1613 35.1078 17.9439 34.7929 17.9439 34.3123C17.9439 34.1383 17.9749 33.9726 18.0215 33.8069C18.5107 32.274 19.3261 30.9814 20.4754 29.9373C21.1587 29.3407 21.8188 29.0424 22.4555 29.0341C23.1078 29.0341 23.6747 29.349 24.1484 29.987C24.7696 30.9399 25.088 32.3817 25.088 34.3123C25.088 34.6935 25.0259 36.4004 24.9016 39.4083C24.8861 40.2369 24.855 40.908 24.8162 41.4301C24.7308 41.9935 24.459 42.2918 24.0008 42.3167ZM20.8481 38.6211L21.0345 38.6045C21.811 38.5051 22.5177 38.3145 23.1467 38.0411L23.1622 37.4362C22.9059 37.3948 22.704 37.3782 22.5565 37.3782C22.0051 37.3782 21.4771 37.5025 20.9724 37.7593C20.6384 37.9582 20.4754 38.1571 20.4754 38.3559C20.4754 38.5299 20.5996 38.6211 20.8481 38.6211ZM27.9767 41.1649C27.3011 41.1649 26.874 40.792 26.6877 40.038C26.4236 38.8034 26.2916 37.4196 26.2839 35.895C26.2839 34.5278 26.3537 33.1523 26.5091 31.7768C26.5479 31.5614 26.5712 31.3211 26.5712 31.0476L26.3227 31.0642C25.6471 31.0642 25.3054 30.7659 25.2977 30.1776C25.2977 29.7799 25.484 29.4981 25.8568 29.3241C26.0509 29.233 26.4236 29.1916 26.975 29.1916C28.5902 29.1916 30.019 29.7716 31.2692 30.9399C32.403 31.9923 32.9621 33.2434 32.9621 34.6935C32.9621 35.1161 32.9232 35.5553 32.83 36.0027C32.4185 37.8505 31.4711 39.3254 30.0035 40.4109C29.3978 40.8583 28.7222 41.1152 27.9767 41.1649ZM28.3261 39.2508C29.9336 38.6211 30.8965 37.3202 31.2071 35.3398C31.2381 35.1244 31.2537 34.9255 31.2537 34.7266C31.2537 33.8152 30.912 33.028 30.2287 32.3734C29.7161 31.8928 29.0716 31.5365 28.3106 31.3211C28.1087 32.622 28.0078 33.9312 28.0078 35.2487C28.0078 36.5827 28.1087 37.9168 28.3261 39.2508ZM35.447 41.5046C34.8879 41.5046 34.5462 41.0323 34.3986 40.0877C34.1424 38.2979 34.0026 36.4419 33.9948 34.5029C33.9948 33.1606 34.1191 32.3651 34.3753 32.1331C34.5307 31.9923 34.717 31.9177 34.9345 31.9177C35.478 31.9342 35.7498 32.274 35.7653 32.9369C35.7809 33.4672 35.7964 34.0058 35.7964 34.5526V34.9421C35.7964 36.8893 35.9362 38.6791 36.2313 40.328C36.2546 40.444 36.2623 40.5517 36.2623 40.6512C36.2623 41.0572 36.076 41.3306 35.7032 41.4715C35.61 41.4964 35.5246 41.5046 35.447 41.5046ZM35.1441 31.1471C34.7869 31.1388 34.5151 30.9482 34.3132 30.5836C34.2278 30.4096 34.189 30.2356 34.189 30.0616C34.189 29.6224 34.3598 29.2827 34.686 29.0341C34.8413 28.9264 34.9966 28.8684 35.1597 28.8684C35.2917 28.8684 35.4237 28.9098 35.5479 28.9844C35.8818 29.1667 36.0527 29.5064 36.0527 30.0036C36.0371 30.3019 35.9828 30.5256 35.8818 30.6748C35.6799 30.9896 35.4392 31.1471 35.1441 31.1471Z" fill="#FBBE07"/>
<path d="M24.8552 10.2579C24.7543 10.2331 24.6844 10.1337 24.6999 10.0259C24.7154 9.91822 24.8164 9.84364 24.9173 9.86022L28.3807 10.4651C28.4816 10.4817 28.5515 10.5811 28.536 10.6971C28.5205 10.8048 28.4195 10.8794 28.3186 10.8628L24.8552 10.2579Z" fill="#4D2456"/>
<path d="M22.0285 11.5505C21.9276 11.5339 21.8577 11.4262 21.881 11.3185C21.8965 11.2108 21.9974 11.1362 22.0984 11.161L28.3806 12.3708C28.4815 12.3874 28.5514 12.4868 28.5359 12.6028C28.5126 12.7105 28.4194 12.7768 28.3184 12.7603L22.0285 11.5505Z" fill="#4D2456"/>
<path d="M22.0285 13.4562C21.9276 13.4396 21.8577 13.3319 21.881 13.2242C21.8965 13.1165 21.9974 13.0419 22.0984 13.0585L28.3806 14.2682C28.4815 14.2931 28.5514 14.3925 28.5359 14.5002C28.5126 14.6079 28.4194 14.6825 28.3184 14.666L22.0285 13.4562Z" fill="#4D2456"/>
<path d="M22.8827 6.06529C22.9836 6.04872 23.0768 6.1233 23.0923 6.23101C23.1078 6.34702 23.038 6.44645 22.9292 6.46302L15.956 7.50707C15.855 7.52364 15.7618 7.44906 15.7463 7.34134C15.7308 7.23363 15.8007 7.12591 15.9094 7.10934L22.8827 6.06529Z" fill="#FBBE07"/>
<path d="M19.4426 8.45961C19.5436 8.45133 19.6367 8.5259 19.6523 8.63362C19.6678 8.74134 19.5979 8.84077 19.497 8.85734L15.956 9.41251C15.855 9.42908 15.7618 9.35451 15.7463 9.24679C15.7308 9.13078 15.8007 9.03135 15.9016 9.01478L19.4426 8.45961Z" fill="#FBBE07"/>
<path d="M18.2079 10.5231C18.3166 10.5065 18.4098 10.5811 18.4253 10.6888C18.4409 10.7965 18.371 10.9042 18.27 10.9208L15.9637 11.3185C15.8628 11.3351 15.7618 11.2605 15.7463 11.1528C15.7308 11.0368 15.8007 10.9374 15.9016 10.9208L18.2079 10.5231Z" fill="#FBBE07"/>
</svg>
