<svg width="661" height="156" viewBox="0 0 661 156" fill="none" xmlns="http://www.w3.org/2000/svg">
<path d="M529.377 78.0939L529.369 78.09L493.319 41.0043L474.328 21.5404L465.966 13H463.566L473.17 22.8417L492.2 42.2703L527.786 78.4701L428.239 154.97L393.297 120.894L374.832 102.876L355.806 84.267C355.546 83.7496 355.244 83.244 355.024 82.7149L354.674 81.9192C354.568 81.6527 354.482 81.3784 354.38 81.1079C354.168 80.571 354.054 80.0183 353.897 79.4735C353.795 78.9248 353.665 78.3761 353.622 77.8274C353.539 77.2786 353.539 76.7378 353.516 76.193C353.535 75.656 353.543 75.1151 353.614 74.5899C353.661 74.0569 353.775 73.5434 353.881 73.0339L354.07 72.2735L354.305 71.5367C354.482 71.0507 354.659 70.5686 354.879 70.1061C355.083 69.6358 355.327 69.185 355.574 68.7421C355.825 68.2992 356.1 67.872 356.383 67.4487C356.674 67.0333 356.968 66.6256 357.287 66.2298C358.555 64.6542 360.028 63.2314 361.694 62.0634L385.445 46.856L408.898 31.9975L431.99 17.3937L438.852 13H435.553L431.012 15.9827L408.258 31.0921L385.135 46.421L361.568 61.8831C359.879 63.0668 358.402 64.4935 357.122 66.0808C356.803 66.4806 356.505 66.8922 356.21 67.3115C355.927 67.7388 355.649 68.1699 355.397 68.6167C355.146 69.0674 354.898 69.5182 354.694 69.9924C354.47 70.4588 354.29 70.9488 354.113 71.4387L353.873 72.1834L353.681 72.9516C353.575 73.4729 353.457 73.9902 353.41 74.5272C353.339 75.0563 353.331 75.605 353.312 76.1498C353.335 76.7025 353.335 77.2512 353.418 77.8078C353.465 78.3643 353.598 78.9209 353.7 79.4774C353.861 80.0301 353.975 80.5906 354.187 81.1354C354.29 81.4097 354.376 81.6841 354.486 81.9545L354.839 82.7619C355.063 83.3028 355.378 83.8202 355.641 84.3493C355.645 84.3571 355.653 84.3689 355.66 84.3728L355.664 84.3767L374.624 103.08L392.959 121.219L427.941 155.851C428.113 156.02 428.373 156.047 428.538 155.922L428.541 155.918L529.373 79.2697C529.676 79.0385 529.715 78.5603 529.46 78.1997C529.436 78.1605 529.409 78.1252 529.377 78.0939Z" fill="white"/>
<path d="M490.947 34.1022L473.24 20.635L463.169 13H460.322L472.349 22.1675L490.063 35.619L523.521 60.9033C523.489 61.0013 523.454 61.0953 523.426 61.1933L523.163 62.1222C523.081 62.4358 522.979 62.7376 522.912 63.0589L522.708 64.0231C522.578 64.6659 522.437 65.3048 522.311 65.9476L522.075 67.8603L521.957 68.8166L521.899 69.2948L521.867 69.5338L521.859 69.5926L521.847 69.6906L521.844 69.82L521.808 70.8508L521.836 71.8777C521.879 72.5596 521.946 73.2416 522.032 73.9197C522.087 74.2568 522.134 74.5978 522.193 74.9348C522.225 75.119 522.268 75.2993 522.299 75.4796L428.538 148.742L394.66 116.191L376.792 99.004L367.648 90.2049L358.41 81.2686C358.245 80.8061 358.045 80.3476 357.915 79.8772C357.77 79.403 357.632 78.9287 357.542 78.4506C357.42 77.9724 357.385 77.4942 357.314 77.016C357.294 76.5418 357.243 76.0636 357.271 75.5972C357.271 75.123 357.334 74.6683 357.381 74.2097C357.463 73.7629 357.538 73.3083 357.672 72.8771C357.778 72.4381 357.946 72.0188 358.108 71.6033C358.28 71.1918 358.469 70.7881 358.685 70.404C358.905 70.0199 359.129 69.6357 359.388 69.2791C359.635 68.9146 359.914 68.5697 360.193 68.2287C360.763 67.5545 361.391 66.9353 362.063 66.363C363.41 65.2225 364.922 64.2426 366.568 63.5058C366.568 63.5058 366.576 63.5018 366.58 63.4979L389.196 49.3331L411.53 35.4936L433.538 21.8893L447.757 13H444.21L432.572 20.4979L410.898 34.6078L388.882 48.9059L366.454 63.3216C364.789 64.0702 363.28 65.05 361.918 66.1984C361.238 66.7785 360.602 67.4017 360.028 68.0837C359.745 68.4246 359.463 68.7735 359.215 69.1419C358.952 69.5025 358.728 69.8905 358.504 70.2785C358.284 70.6705 358.092 71.0781 357.919 71.4936C357.754 71.9169 357.585 72.3402 357.475 72.787C357.342 73.2259 357.267 73.6884 357.181 74.1431C357.129 74.6095 357.067 75.0759 357.067 75.5541C357.035 76.0283 357.09 76.5144 357.11 76.9964C357.184 77.4824 357.22 77.9645 357.342 78.4506C357.428 78.9366 357.569 79.4186 357.719 79.9007C357.852 80.3828 358.06 80.8532 358.229 81.3313C358.233 81.347 358.241 81.3588 358.249 81.3705L358.257 81.3744L367.503 90.3421L376.584 99.1961L394.334 116.504L428.251 149.612C428.424 149.78 428.675 149.804 428.84 149.678V149.674L523.568 76.5144C523.776 76.3537 523.859 76.0715 523.8 75.7971V75.7814C523.737 75.4875 523.674 75.1621 523.623 74.8486C523.568 74.535 523.525 74.2136 523.478 73.8962C523.395 73.2612 523.34 72.6263 523.305 71.9992L523.285 71.0624L523.324 70.1492L523.328 70.0355V70.0199V70.012L523.336 69.9532L523.368 69.7141L523.43 69.2399L523.556 68.2875L523.807 66.3787C523.929 65.7712 524.067 65.1794 524.192 64.5797L524.389 63.6782C524.452 63.3764 524.55 63.0903 524.632 62.7924L524.884 61.9106C524.962 61.6088 525.072 61.3462 525.163 61.064L525.174 61.0287C525.288 60.672 525.135 60.2448 524.825 60.0096L490.947 34.1022Z" fill="white"/>
<path d="M392.77 72.5009L387.268 67.5075L375.916 57.5718L376.501 57.6658L366.98 64.0114C366.965 64.0192 366.945 64.031 366.925 64.0388L366.894 64.0545C366.521 64.223 366.124 64.4386 365.751 64.6542C365.37 64.8736 365.005 65.1049 364.643 65.344C363.924 65.8261 363.241 66.3552 362.601 66.9274C361.957 67.4957 361.356 68.0993 360.817 68.7578C360.55 69.087 360.291 69.4202 360.059 69.7729C359.816 70.1178 359.604 70.4863 359.403 70.8547C359.203 71.227 359.026 71.6111 358.869 72.0031C358.724 72.3989 358.571 72.7948 358.473 73.2103C358.351 73.6179 358.288 74.0451 358.213 74.4684C358.174 74.8995 358.115 75.3268 358.127 75.7697C358.103 76.2047 358.162 76.6515 358.182 77.0944C358.253 77.5412 358.288 77.9881 358.41 78.4349C358.496 78.8817 358.634 79.3285 358.771 79.7753C358.897 80.2221 359.105 80.6572 359.258 81.104L358.971 80.6885L368.237 89.6366C371.301 92.5801 374.325 95.5353 377.334 98.471L395.056 115.803L428.934 148.934L428.019 149.525C427.689 148.789 427.583 148.177 427.469 147.511C427.434 147.186 427.371 146.856 427.363 146.535L427.324 145.571L427.367 144.618C427.371 144.301 427.402 143.987 427.453 143.682L427.579 142.753C427.622 142.443 427.705 142.149 427.768 141.847L427.972 140.946C428.05 140.648 428.152 140.362 428.239 140.072C428.427 139.492 428.588 138.9 428.836 138.351C429.068 137.795 429.28 137.23 429.531 136.682L430.336 135.078C430.588 134.534 430.91 134.032 431.212 133.522C431.523 133.013 431.817 132.496 432.131 131.994L433.145 130.536C433.49 130.058 433.797 129.544 434.178 129.094L435.278 127.706C435.651 127.251 435.992 126.765 436.393 126.338L438.746 123.712L439.186 124.476C438.997 124.465 438.809 124.492 438.616 124.422L438.329 124.335C438.235 124.288 438.137 124.229 438.043 124.175C437.952 124.12 437.839 124.053 437.799 124.006L437.634 123.853L437.552 123.775L437.505 123.728L437.493 123.716L437.473 123.696L437.434 123.653L437.285 123.485L436.079 122.113L436.322 122.262C436.142 122.207 435.965 122.137 435.808 122.035C435.659 121.944 435.45 121.78 435.376 121.69C435.313 121.623 435.301 121.615 435.199 121.502L435.062 121.333L434.79 121L433.687 119.667L431.479 116.99L427.029 111.605L424.79 108.897C424.433 108.462 424.009 108.034 423.62 107.603L422.422 106.306C422.025 105.871 421.62 105.444 421.196 105.024L419.939 103.766C419.519 103.339 419.107 102.943 418.678 102.484C418.227 101.995 418.058 101.262 418.274 100.721L418.313 100.905L413.486 95.0297C411.84 93.0818 410.202 91.1181 408.529 89.1702L403.38 83.3734L398.026 77.651L392.77 72.5009ZM403.517 83.2558L408.67 89.0604C410.332 91.0162 412.017 92.9446 413.686 94.8808L418.592 100.697C418.635 100.752 418.655 100.823 418.635 100.885C418.474 101.332 418.608 101.861 418.965 102.253C419.354 102.653 419.806 103.08 420.226 103.492L421.499 104.734C421.931 105.142 422.343 105.565 422.748 105.996L423.973 107.282C424.378 107.721 424.794 108.121 425.191 108.583L427.473 111.26L432.006 116.579L434.256 119.22L435.376 120.537L435.655 120.867L435.796 121.031C435.788 121.027 435.882 121.117 435.922 121.157C435.977 121.215 436.024 121.259 436.051 121.27C436.091 121.294 436.114 121.325 436.161 121.345C436.248 121.396 436.334 121.427 436.424 121.455L436.444 121.462C436.527 121.486 436.601 121.537 436.668 121.607L437.89 122.952L438.043 123.12L438.082 123.159L438.102 123.179L438.11 123.191C438.09 123.175 438.149 123.23 438.07 123.152L438.078 123.156L438.161 123.23L438.329 123.383C438.392 123.45 438.424 123.442 438.459 123.461C438.498 123.477 438.53 123.5 438.565 123.52C438.612 123.528 438.655 123.54 438.703 123.555C438.793 123.598 438.891 123.563 438.981 123.579L439.103 123.602C439.186 123.618 439.272 123.661 439.343 123.724C439.535 123.892 439.571 124.171 439.425 124.343L437.135 126.973C436.739 127.4 436.413 127.882 436.047 128.337L434.975 129.717C434.606 130.167 434.311 130.669 433.974 131.143L432.995 132.59L432.112 134.095C431.821 134.6 431.507 135.094 431.267 135.627L430.501 137.199C430.266 137.732 430.065 138.285 429.849 138.825C429.614 139.358 429.464 139.931 429.292 140.487C429.209 140.769 429.111 141.048 429.04 141.33L428.856 142.192C428.801 142.482 428.718 142.764 428.683 143.055L428.573 143.932C428.53 144.222 428.502 144.516 428.498 144.814L428.471 145.7L428.514 146.586C428.526 146.88 428.585 147.174 428.62 147.468C428.659 147.762 428.738 148.048 428.801 148.334C428.879 148.604 428.973 148.918 429.068 149.114L429.075 149.13C429.178 149.341 429.146 149.588 428.989 149.749C428.773 149.964 428.4 149.945 428.149 149.706L393.929 116.888L376.03 99.7252C372.998 96.8092 369.946 93.8813 366.906 90.9143L357.663 81.9388L357.624 81.8996C357.518 81.7977 357.432 81.6684 357.381 81.5234C357.2 81.0217 356.992 80.52 356.854 80.0066C356.701 79.497 356.56 78.9836 356.465 78.4662C356.344 77.9489 356.308 77.4315 356.238 76.9141C356.218 76.4007 356.171 75.8872 356.206 75.3816C356.21 74.8721 356.285 74.3783 356.344 73.8844C356.438 73.4023 356.524 72.9124 356.674 72.4538C356.795 71.9835 356.98 71.5367 357.157 71.0938C357.345 70.6548 357.553 70.2315 357.785 69.8239C358.021 69.4202 358.268 69.0165 358.543 68.6441C358.81 68.264 359.105 67.9073 359.403 67.5506C360.004 66.853 360.672 66.2141 361.379 65.6262C362.094 65.0461 362.848 64.5131 363.638 64.0349C364.034 63.7958 364.435 63.5685 364.847 63.3529C365.268 63.1373 365.668 62.9414 366.136 62.7493L366.049 62.7924L375.885 56.8545L375.896 56.8506C376.057 56.7526 376.293 56.7879 376.47 56.9486C380.158 60.3937 383.827 63.835 387.523 67.1979L392.943 72.297L398.156 77.5177L403.517 83.2558Z" fill="white"/>
<path d="M512.428 42.5172L496.297 26.4123L482.832 13H481.021L495.66 27.1883L512.028 43.0071L527.88 58.2537L433.396 131.218L362.903 62.1771L413.301 27.9957C420.678 22.9985 427.976 17.9894 435.246 13H431.405C424.951 17.3858 418.478 21.7913 411.997 26.2516L361.077 61.2756H361.073C360.735 61.5108 360.711 62.0085 361.018 62.3887C361.041 62.4201 361.077 62.4554 361.104 62.4828L433.066 132.245C433.27 132.441 433.569 132.472 433.757 132.319L528.069 58.34C528.104 58.3125 528.108 58.2576 528.077 58.2145C528.073 58.2106 528.069 58.2067 528.065 58.2028L512.428 42.5172Z" fill="white"/>
<path d="M496.984 44.6533L485.409 33.2203L473.574 21.564L464.823 13H462.769L472.765 22.5517L484.796 33.9689L496.592 45.1315L508.096 55.9452L432.67 113.953L383.807 65.3009L422.937 38.1941C429.477 33.6711 435.93 29.0893 442.383 24.5702L458.688 13H455.467L441.138 22.8691C434.665 27.3843 428.137 31.8799 421.637 36.4735L382.028 64.419L382.024 64.4229C381.694 64.6542 381.671 65.148 381.973 65.5204C381.997 65.5478 382.028 65.5831 382.056 65.6105L432.336 115.019H432.34C432.548 115.227 432.858 115.254 433.055 115.101L508.297 56.0353C508.332 56.0079 508.336 55.9491 508.304 55.9099C508.3 55.906 508.297 55.9021 508.293 55.8942L496.984 44.6533Z" fill="white"/>
<path d="M490.13 49.2351C488.771 48.0554 487.443 46.8286 486.092 45.6214C484.745 44.4025 483.382 43.1992 482.043 41.9607L477.997 38.2333C476.65 36.9751 475.287 35.7288 473.943 34.455L469.89 30.6178C469.21 29.975 468.543 29.3166 467.871 28.666L465.848 26.7023L461.798 22.7398L462.867 22.8966L456.79 27.106L456.755 25.9184L472.576 41.796L487.926 57.2739L487.655 57.2347L494.097 52.6921C492.762 51.5554 491.454 50.3913 490.13 49.2351ZM494.293 52.645C494.297 52.6489 494.301 52.6529 494.301 52.6568C494.333 52.6999 494.329 52.7587 494.293 52.7861L487.93 57.6188C487.856 57.6736 487.742 57.6619 487.663 57.5835L487.659 57.5796L471.96 42.5015L455.848 26.9571C455.812 26.9218 455.777 26.8826 455.746 26.8395C455.471 26.475 455.494 26.0007 455.797 25.7734L455.812 25.7656L461.743 21.3484C462.03 21.1367 462.47 21.1838 462.796 21.4895L462.816 21.5091L466.94 25.3815L468.986 27.3177C469.666 27.9644 470.353 28.5954 471.021 29.2499L475.035 33.1341C476.367 34.4197 477.679 35.7327 478.991 37.0261L482.899 40.9181C484.199 42.2037 485.468 43.5206 486.748 44.8179C488.017 46.1192 489.305 47.3969 490.55 48.7138C491.803 50.0268 493.06 51.3203 494.293 52.645Z" fill="white"/>
<path d="M480.829 56.1647C479.454 54.9889 478.111 53.766 476.748 52.5627C475.389 51.3477 474.01 50.1484 472.655 48.9138L468.562 45.2021C467.199 43.9478 465.824 42.7054 464.465 41.4355L460.368 37.6101C459.681 36.9713 459.006 36.3128 458.326 35.6661L456.284 33.7103L452.175 29.7556L453.251 29.9084L447.14 34.1454L447.1 32.9538L463.102 48.7805L478.633 64.2113L478.358 64.1721L484.839 59.602C483.492 58.4732 482.164 57.3131 480.829 56.1647ZM485.039 59.5589C485.043 59.5628 485.043 59.5628 485.047 59.5668C485.079 59.6099 485.075 59.6687 485.039 59.6961L478.637 64.5601C478.562 64.6189 478.448 64.6032 478.366 64.5288L478.362 64.5248L462.482 49.4978L446.185 34.0043C446.15 33.969 446.114 33.9298 446.079 33.8867C445.804 33.5261 445.824 33.0479 446.13 32.8206L446.146 32.8088L452.116 28.3642C452.403 28.1486 452.847 28.1957 453.177 28.5014L453.196 28.521L457.372 32.3816L459.442 34.31C460.125 34.9528 460.82 35.5877 461.5 36.2383L465.557 40.1107C466.904 41.3924 468.228 42.7015 469.564 43.991L473.515 47.8712C474.831 49.1528 476.115 50.4659 477.407 51.7593C478.692 53.0605 479.992 54.3343 481.257 55.6434C482.522 56.9486 483.794 58.2381 485.039 59.5589Z" fill="white"/>
<path d="M363.017 66.5002L429.26 131.281L362.188 67.3547L363.017 66.5002Z" fill="white"/>
<path d="M360.46 68.0759L426.9 132.825L359.631 68.9304L360.46 68.0759Z" fill="white"/>
<path d="M357.891 69.6592L424.535 134.373L357.07 70.5136L357.891 69.6592Z" fill="white"/>
<path d="M357.946 74.3821L424.496 138.743L357.129 75.2404L357.946 74.3821Z" fill="white"/>
<path d="M358.759 78.094L425.163 142.153L357.938 78.9484L358.759 78.094Z" fill="white"/>
<path d="M522.409 74.382L430.438 145.653L521.674 73.4492L522.409 74.382Z" fill="white"/>
<path d="M522.558 71.5759L430.513 142.823L521.824 70.6392L522.558 71.5759Z" fill="white"/>
<path d="M523.155 68.021L431.047 139.225L522.425 67.0881L523.155 68.021Z" fill="white"/>
<path d="M523.529 64.8344L431.354 136.007L522.798 63.9016L523.529 64.8344Z" fill="white"/>
<path d="M365.995 59.3589L381.942 75.8362L365.162 60.2016L365.995 59.3589Z" fill="white"/>
<path d="M368.237 56.5449L384.149 73.0496L367.405 57.3837L368.237 56.5449Z" fill="white"/>
<path d="M372.134 55.2788L387.959 71.7757L371.297 56.1215L372.134 55.2788Z" fill="white"/>
<path d="M374.769 52.6921L390.551 69.2125L373.933 53.5309L374.769 52.6921Z" fill="white"/>
<path d="M377.974 50.7949L393.694 67.3271L377.134 51.6337L377.974 50.7949Z" fill="white"/>
<path d="M380.559 48.9331L396.235 65.477L379.718 49.7719L380.559 48.9331Z" fill="white"/>
<path d="M383.713 46.7896L399.322 63.3413L382.869 47.6244L383.713 46.7896Z" fill="white"/>
<path d="M386.309 44.3669L401.868 60.9461L385.461 45.2018L386.309 44.3669Z" fill="white"/>
<path d="M389.094 42.2703L404.605 58.8573L388.25 43.0973L389.094 42.2703Z" fill="white"/>
<path d="M392.15 40.5964L407.598 57.1874L391.302 41.4234L392.15 40.5964Z" fill="white"/>
<path d="M395.108 37.9941L410.505 54.6125L394.259 38.8211L395.108 37.9941Z" fill="white"/>
<path d="M398.415 36.752L413.741 53.3586L397.559 37.579L398.415 36.752Z" fill="white"/>
<path d="M401.341 34.7251L416.617 51.3435L400.485 35.5482L401.341 34.7251Z" fill="white"/>
<path d="M403.972 32.4326L419.197 49.0706L403.116 33.2557L403.972 32.4326Z" fill="white"/>
<path d="M407.257 29.9871L422.422 46.6446L406.4 30.8062L407.257 29.9871Z" fill="white"/>
<path d="M410.576 27.8701L425.678 44.5355L409.719 28.6893L410.576 27.8701Z" fill="white"/>
<path d="M413.345 25.2402L428.396 41.9252L412.484 26.0555L413.345 25.2402Z" fill="white"/>
<path d="M416.067 23.739L431.067 40.4279L415.203 24.5503L416.067 23.739Z" fill="white"/>
<path d="M418.286 22.2107L433.243 38.9114L417.422 23.0259L418.286 22.2107Z" fill="white"/>
<path d="M421.746 20.7566L436.633 37.4494L420.878 21.564L421.746 20.7566Z" fill="white"/>
<path d="M423.451 18.7966L438.314 35.513L422.583 19.608L423.451 18.7966Z" fill="white"/>
<path d="M427.033 17.9697L441.818 34.6665L426.165 18.7771L427.033 17.9697Z" fill="white"/>
<path d="M429.869 15.7241L444.602 32.4366L429.001 16.5276L429.869 15.7241Z" fill="white"/>
<path d="M432.281 13L431.727 13.5095L447.289 29.4498L432.858 13H432.281Z" fill="white"/>
<path d="M435.694 13L449.705 27.4117L437.116 13H435.694Z" fill="white"/>
<path d="M440.612 13L452.875 25.6637L441.861 13H440.612Z" fill="white"/>
<path d="M445.667 13L455.793 23.5041L446.696 13H445.667Z" fill="white"/>
<path d="M450.007 13L458.856 22.2107L450.914 13H450.007Z" fill="white"/>
<path d="M454.516 13L461.347 20.1373L455.215 13H454.516Z" fill="white"/>
<path d="M48.8274 107.836L10.8986 69.9068C10.3142 69.3224 9.53506 69 8.70365 69C7.87225 69 7.09389 69.3224 6.50785 69.9068L0.907684 75.507C0.618696 75.7948 0.38967 76.1371 0.233867 76.514C0.078065 76.8909 -0.00141858 77.295 1.91616e-05 77.7028C1.91616e-05 78.535 0.322468 79.3134 0.907684 79.8978L38.8348 117.828C39.4192 118.413 40.1992 118.735 41.0306 118.735C41.862 118.735 42.642 118.413 43.2256 117.828L48.8282 112.226C49.4092 111.643 49.7354 110.853 49.7352 110.03C49.7351 109.207 49.4086 108.418 48.8274 107.836ZM47.7622 111.161L42.1604 116.763C41.5611 117.362 40.4984 117.362 39.8991 116.763L1.97201 78.8318C1.67277 78.5326 1.50699 78.1314 1.50699 77.7028C1.50699 77.2743 1.67195 76.8722 1.97284 76.5722L7.57218 70.9728C7.87308 70.6728 8.2751 70.507 8.70365 70.507C9.1322 70.507 9.53423 70.6719 9.83347 70.972L10.0473 71.1859L4.32945 76.9021L5.53802 78.1123L11.2559 72.3952L12.4661 73.6063L9.87491 76.1983L11.0835 77.4077L13.6747 74.8149L14.8857 76.0251L12.2929 78.6179L13.5023 79.8273L16.0951 77.2345L17.3045 78.4439L14.7125 81.0375L15.9227 82.2469L18.5147 79.6549L19.7249 80.8643L14.0062 86.5822L15.2181 87.7924L20.9343 82.0737L22.1445 83.2839L19.5517 85.8768L20.7619 87.0862L23.3539 84.4941L24.565 85.7043L21.9713 88.2964L23.1807 89.5058L25.7735 86.9129L26.9838 88.124L24.3909 90.716L25.6011 91.9254L28.1932 89.3333L29.4025 90.5419L23.6863 96.2606L24.8966 97.4708L30.6136 91.753L31.823 92.9623L29.2301 95.5552L30.4404 96.7646L33.0324 94.1726L34.2434 95.3828L31.6497 97.9748L32.8608 99.1842L35.4528 96.593L36.6622 97.8024L34.0694 100.394L35.2796 101.604L37.8716 99.0118L39.0818 100.221L33.3648 105.939L34.575 107.149L40.2912 101.431L41.5014 102.641L38.9086 105.234L40.1188 106.445L42.7116 103.851L43.9219 105.061L41.3282 107.653L42.5376 108.863L45.1304 106.27L46.3406 107.481L43.7478 110.073L44.9588 111.282L47.5509 108.69L47.7631 108.902C48.0619 109.202 48.2296 109.609 48.2294 110.032C48.2292 110.455 48.0613 110.861 47.7622 111.161Z" fill="#F8C994"/>
<path d="M8.59255 81.6883C9.67524 81.6883 10.5529 80.8106 10.5529 79.7279C10.5529 78.6452 9.67524 77.7675 8.59255 77.7675C7.50986 77.7675 6.63216 78.6452 6.63216 79.7279C6.63216 80.8106 7.50986 81.6883 8.59255 81.6883Z" fill="#F8C994"/>
<path d="M17.3228 90.417C18.4051 90.417 19.2824 89.5397 19.2824 88.4574C19.2824 87.3752 18.4051 86.4979 17.3228 86.4979C16.2406 86.4979 15.3633 87.3752 15.3633 88.4574C15.3633 89.5397 16.2406 90.417 17.3228 90.417Z" fill="#F8C994"/>
<path d="M37.8888 110.983C38.9711 110.983 39.8484 110.106 39.8484 109.023C39.8484 107.941 38.9711 107.064 37.8888 107.064C36.8066 107.064 35.9293 107.941 35.9293 109.023C35.9293 110.106 36.8066 110.983 37.8888 110.983Z" fill="#F8C994"/>
<g clip-path="url(#clip0)">
<path d="M284.951 0.36513L261.603 13.8294C259.672 14.9463 259.857 17.803 261.923 18.6505L268.338 21.3052V26.0421C268.338 28.6463 271.66 29.7183 273.198 27.6473L275.656 24.3303L281.937 26.9233C282.268 27.058 282.616 27.1253 282.964 27.1253C283.424 27.1253 283.879 27.0075 284.288 26.7774C285.007 26.3733 285.501 25.6549 285.63 24.8411L288.964 3.10962C289.306 0.859027 286.893 -0.75175 284.951 0.36513ZM271.032 26.0421V22.4165L273.086 23.264L271.032 26.0421ZM282.964 24.4314L274.332 20.8675L282.201 9.51344C282.801 8.64351 281.667 7.63327 280.87 8.3236L269 18.6674L262.95 16.1642L286.298 2.6943L282.964 24.4314Z" fill="#B2F4DC"/>
</g>
<path d="M37 65.2082C94.84 73.3132 220.467 79.5761 260.255 39.7881" stroke="#B2F4DC" stroke-width="3" stroke-dasharray="10 10"/>
<path d="M572.425 112L571.664 112.795L566.795 117.664L566 118.425L573.944 126.368L568.418 131.894L568.349 132.24L567.139 138.319L566.795 139.941L568.418 139.596L574.497 138.387L574.842 138.318L580.368 132.791L588.277 140.702L589.037 139.907L593.907 135.037L594.702 134.277L586.791 126.368L592.249 120.91C592.672 120.489 593.007 119.989 593.236 119.437C593.465 118.886 593.583 118.295 593.583 117.699C593.583 117.102 593.465 116.511 593.236 115.96C593.007 115.408 592.672 114.908 592.249 114.487C591.829 114.062 591.329 113.724 590.777 113.493C590.226 113.262 589.635 113.142 589.037 113.139C588.439 113.142 587.848 113.262 587.297 113.493C586.745 113.724 586.245 114.062 585.824 114.487L580.368 119.944L572.425 112ZM572.425 115.143L574.565 117.318L572.942 118.943L574.531 120.531L576.155 118.908L578.779 121.533L575.498 124.814L569.109 118.425L572.425 115.143ZM589.036 115.281C589.611 115.281 590.194 115.54 590.694 116.041C591.692 117.039 591.692 118.325 590.694 119.322L589.97 120.047L586.688 116.766L587.414 116.041C587.914 115.54 588.464 115.281 589.037 115.281H589.036ZM585.135 118.321L588.415 121.602L575.05 134.967C574.318 133.562 573.172 132.417 571.767 131.686L585.135 118.321ZM585.238 127.922L587.862 130.547L586.205 132.205L587.794 133.794L589.452 132.136L591.558 134.243L588.243 137.558L581.922 131.238L585.238 127.922ZM570.352 133.448C571.678 134.005 572.731 135.059 573.288 136.385L569.626 137.11L570.352 133.448Z" fill="#E5E4F8"/>
<circle cx="161.148" cy="52.261" r="5.13134" transform="rotate(54.0659 161.148 52.261)" stroke="#D5EBE3" stroke-width="3"/>
<circle cx="112.249" cy="90.8873" r="2.55249" transform="rotate(54.0659 112.249 90.8873)" stroke="#D5EBE3" stroke-width="3"/>
<circle cx="112.441" cy="106.218" r="2.06567" transform="rotate(54.0659 112.441 106.218)" stroke="#D5EBE3" stroke-width="2.5"/>
<circle cx="607.631" cy="58.4204" r="5.13134" transform="rotate(-90 607.631 58.4204)" stroke="#F8C994" stroke-width="3"/>
<circle cx="648.525" cy="55.8416" r="2.55249" transform="rotate(-90 648.525 55.8416)" stroke="#F8C994" stroke-width="3"/>
<circle cx="657.366" cy="43.3157" r="2.06567" transform="rotate(-90 657.366 43.3157)" stroke="#F8C994" stroke-width="2.5"/>
<path d="M232.436 95.168V96.668H233.936H236.648H238.148V95.168V80.216V78.716H236.648H234.632H234.259L233.929 78.8907L229.945 81.0027L228.837 81.5903L229.219 82.7852L229.795 84.5852L230.267 86.0581L231.725 85.542L232.436 85.2902V95.168ZM241.746 92.0765L241.292 92.5183V93.152V95.168V96.668H242.792H252.176H253.676V95.168V92.72V91.22H252.176H251.96H251.339L251.099 91.4599C251.09 91.46 251.081 91.46 251.072 91.46H249.897C250.088 91.2602 250.273 91.0657 250.452 90.8765C251.397 89.8973 252.162 88.9075 252.719 87.9045L252.719 87.9045L252.725 87.8943C253.328 86.789 253.628 85.5893 253.628 84.32C253.628 83.1953 253.359 82.1413 252.762 81.2225C252.198 80.3553 251.436 79.6837 250.507 79.2164C249.573 78.7309 248.552 78.5 247.472 78.5C246.182 78.5 244.963 78.8106 243.842 79.4317L243.842 79.4316L243.831 79.4373C242.712 80.0683 241.815 80.9631 241.144 82.0876L240.461 83.2323L241.517 84.0449L243.389 85.4849L243.411 85.5011L243.432 85.5166L243.6 85.6366L244.717 86.4346L245.611 85.3922L245.755 85.2242L246.187 84.7204L246.132 84.2857C246.133 84.2846 246.134 84.2834 246.135 84.2823C246.32 84.0779 246.49 83.965 246.64 83.9015C246.848 83.8135 247.11 83.756 247.448 83.756C247.819 83.756 247.954 83.826 247.983 83.8448C248.002 83.8755 248.06 83.9984 248.06 84.32C248.06 84.7588 247.971 85.1667 247.792 85.5588C247.593 85.9776 247.265 86.4775 246.769 87.0592C246.244 87.6591 245.572 88.3626 244.747 89.1723C243.897 89.9895 242.897 90.9576 241.746 92.0765ZM247.989 83.8493C247.989 83.8494 247.988 83.8487 247.986 83.847C247.988 83.8485 247.989 83.8493 247.989 83.8493ZM247.981 83.8421C247.978 83.8387 247.976 83.8367 247.977 83.8365C247.977 83.8364 247.978 83.8381 247.981 83.8421ZM231.501 121.433L231.513 121.437L231.525 121.441C232.515 121.784 233.537 121.956 234.584 121.956C235.801 121.956 236.936 121.718 237.934 121.177C238.895 120.665 239.679 119.961 240.233 119.053L240.237 119.046L240.241 119.039C240.788 118.12 241.052 117.1 241.052 116.016C241.052 115.125 240.88 114.271 240.478 113.505C240.209 112.973 239.863 112.5 239.436 112.099C239.481 112.048 239.524 111.996 239.567 111.943C240.283 111.059 240.62 110.005 240.62 108.864C240.62 107.843 240.355 106.884 239.792 106.04C239.247 105.222 238.499 104.599 237.6 104.159C236.689 103.705 235.679 103.5 234.608 103.5C233.672 103.5 232.743 103.67 231.827 103.994C230.796 104.359 229.916 104.982 229.195 105.826L228.302 106.872L229.267 107.853L230.827 109.437L231.404 110.022V111.384V113.496V114.636L231.139 114.47L230.312 115.572L230.168 115.764L230.149 115.789L230.132 115.815L228.764 117.807L228.117 118.748L228.853 119.622C229.552 120.453 230.452 121.05 231.501 121.433ZM233.719 116.684C233.507 116.593 233.336 116.486 233.194 116.367L233.159 116.228L233.012 115.641L232.499 115.32L232.307 115.2L232.133 115.091L233.07 114.987C234.251 114.856 234.834 115.01 235.074 115.151L235.081 115.154L235.088 115.158L235.092 115.16C235.164 115.202 235.34 115.302 235.34 115.92C235.34 116.307 235.236 116.499 235.117 116.627L235.115 116.629C235.079 116.668 234.948 116.796 234.464 116.796C234.147 116.796 233.905 116.751 233.719 116.684ZM232.929 109.884L232.579 109.878L233.022 109.375C233.234 109.135 233.441 108.996 233.644 108.916L233.657 108.911L233.67 108.906C233.96 108.786 234.238 108.732 234.512 108.732C234.806 108.732 234.876 108.805 234.89 108.819C234.891 108.82 234.891 108.82 234.891 108.821L234.915 108.845L234.941 108.868C234.956 108.882 234.963 108.892 234.972 108.913C234.982 108.939 235.004 109.011 235.004 109.152C235.004 109.276 234.976 109.389 234.902 109.514C234.892 109.527 234.815 109.614 234.551 109.719C234.295 109.812 233.79 109.899 232.929 109.884Z" stroke="#B7B3F8" stroke-width="3"/>
<path d="M641.557 104.924C641.963 103.407 642.785 102.311 644.021 101.635C645.261 100.948 646.678 100.818 648.274 101.246C649.893 101.68 651.069 102.498 651.802 103.702C652.538 104.894 652.692 106.288 652.265 107.884L651.937 109.106C651.528 110.635 650.706 111.731 649.473 112.395C648.239 113.059 646.824 113.178 645.228 112.75C643.621 112.319 642.444 111.507 641.696 110.311C640.963 109.108 640.809 107.714 641.234 106.129L641.557 104.924ZM644.466 107.105C644.284 107.784 644.33 108.384 644.602 108.906C644.889 109.42 645.35 109.762 645.984 109.932C646.618 110.101 647.177 110.027 647.663 109.708C648.149 109.39 648.486 108.879 648.674 108.177L649.01 106.921C649.192 106.242 649.153 105.643 648.891 105.124C648.63 104.605 648.171 104.258 647.515 104.082C646.892 103.915 646.332 103.989 645.835 104.305C645.341 104.609 644.996 105.129 644.798 105.865L644.466 107.105ZM649.648 121.996C650.058 120.468 650.885 119.373 652.129 118.712C653.377 118.039 654.794 117.915 656.378 118.34C657.986 118.771 659.157 119.582 659.894 120.774C660.644 121.958 660.802 123.359 660.369 124.978L660.041 126.2C659.635 127.717 658.819 128.815 657.594 129.494C656.371 130.161 654.951 130.278 653.332 129.844C651.702 129.407 650.521 128.587 649.788 127.384C649.055 126.18 648.896 124.803 649.311 123.253L649.648 121.996ZM652.553 124.194C652.386 124.817 652.448 125.403 652.737 125.954C653.026 126.505 653.476 126.862 654.087 127.026C655.468 127.396 656.364 126.817 656.773 125.288L657.119 123.998C657.301 123.319 657.254 122.724 656.978 122.213C656.706 121.691 656.252 121.345 655.619 121.176C654.985 121.006 654.419 121.079 653.922 121.394C653.428 121.699 653.085 122.207 652.894 122.921L652.553 124.194ZM643.052 124.742L641.004 122.81L658.254 106.723L660.302 108.654L643.052 124.742Z" fill="#FDE9D2"/>
<defs>
<clipPath id="clip0">
<rect width="28.7358" height="28.7358" fill="white" transform="translate(260.255)"/>
</clipPath>
</defs>
</svg>
