<svg width="14" height="20" viewBox="0 0 14 20" fill="none" xmlns="http://www.w3.org/2000/svg">
<path d="M0.382567 2.6967C0.661895 1.65424 1.22648 0.900826 2.07632 0.436475C2.92825 -0.0356565 3.90267 -0.124762 4.99959 0.169157C6.11207 0.467246 6.92022 1.02982 7.42403 1.85688C7.92992 2.67616 8.03591 3.63426 7.74199 4.73119L7.51686 5.57138C7.23544 6.62163 6.67086 7.37504 5.8231 7.83161C4.97535 8.28818 4.00301 8.36951 2.90609 8.07559C1.80138 7.77958 0.992196 7.2209 0.478524 6.39953C-0.0252846 5.57247 -0.131271 4.61437 0.160564 3.52523L0.382567 2.6967ZM2.38233 4.19559C2.25725 4.66237 2.28841 5.07511 2.47579 5.43383C2.67303 5.78686 2.98948 6.02174 3.42513 6.13847C3.86079 6.2552 4.24555 6.20404 4.5794 5.98499C4.91326 5.76593 5.1448 5.41524 5.27405 4.9329L5.50543 4.06937C5.6305 3.60259 5.60324 3.19089 5.42364 2.83425C5.24404 2.47762 4.92863 2.23885 4.47742 2.11795C4.04954 2.0033 3.66478 2.05446 3.32315 2.27143C2.9836 2.48062 2.74608 2.83805 2.61058 3.34372L2.38233 4.19559ZM5.94361 14.4302C6.22502 13.3799 6.7935 12.6276 7.64903 12.1731C8.50665 11.7108 9.48003 11.6256 10.5692 11.9174C11.6739 12.2134 12.4792 12.7711 12.9851 13.5904C13.5008 14.404 13.6097 15.367 13.3116 16.4795L13.0864 17.3197C12.8071 18.3621 12.2464 19.1166 11.4044 19.583C10.5644 20.0417 9.58815 20.122 8.47567 19.8239C7.35541 19.5237 6.54337 18.9601 6.03957 18.133C5.53576 17.306 5.42665 16.3595 5.71223 15.2937L5.94361 14.4302ZM7.94024 15.9407C7.82559 16.3686 7.86765 16.7718 8.06642 17.1502C8.26519 17.5287 8.57462 17.7742 8.99472 17.8868C9.94383 18.1411 10.5591 17.7431 10.8405 16.6929L11.0781 15.806C11.2032 15.3392 11.171 14.9303 10.9816 14.5794C10.7942 14.2207 10.4827 13.983 10.047 13.8662C9.61135 13.7495 9.2227 13.7996 8.88107 14.0166C8.54152 14.2258 8.30608 14.5754 8.17475 15.0655L7.94024 15.9407ZM1.41062 16.3174L0.00287233 14.9896L11.8581 3.933L13.2659 5.26076L1.41062 16.3174Z" fill="white"/>
</svg>
