<svg width="21" height="22" viewBox="0 0 21 22" fill="none" xmlns="http://www.w3.org/2000/svg">
<path d="M19.8866 15.284C19.4328 14.3827 18.7916 13.5887 18.006 12.9552C17.2205 12.3218 16.3086 11.8635 15.3316 11.611C16.1514 10.5083 16.5946 9.17106 16.5956 7.797V6.438C16.5956 4.73054 15.9173 3.09301 14.7099 1.88565C13.5026 0.678288 11.865 0 10.1576 0C8.45012 0 6.81259 0.678288 5.60523 1.88565C4.39787 3.09301 3.71958 4.73054 3.71958 6.438V7.797C3.72056 9.17106 4.16374 10.5083 4.98358 11.611C4.00653 11.8635 3.09469 12.3218 2.30912 12.9552C1.52356 13.5887 0.882401 14.3827 0.42858 15.284C0.155485 15.8254 0.00907034 16.4219 0.000408155 17.0282C-0.00825403 17.6346 0.121063 18.235 0.378581 18.784C0.631078 19.3295 1.00455 19.8104 1.47066 20.19C1.93676 20.5697 2.48323 20.8381 3.06858 20.975C5.39448 21.5 7.77327 21.7543 10.1576 21.733C12.5419 21.7547 14.9206 21.5007 17.2466 20.976C17.8319 20.8391 18.3784 20.5707 18.8445 20.191C19.3106 19.8114 19.6841 19.3305 19.9366 18.785C20.1943 18.2358 20.3237 17.6353 20.315 17.0287C20.3063 16.4222 20.1598 15.8256 19.8866 15.284ZM5.71958 6.438C5.71958 5.26097 6.18715 4.13215 7.01944 3.29986C7.85173 2.46757 8.98055 2 10.1576 2C11.3346 2 12.4634 2.46757 13.2957 3.29986C14.128 4.13215 14.5956 5.26097 14.5956 6.438V7.797C14.5956 8.97403 14.128 10.1029 13.2957 10.9351C12.4634 11.7674 11.3346 12.235 10.1576 12.235C8.98055 12.235 7.85173 11.7674 7.01944 10.9351C6.18715 10.1029 5.71958 8.97403 5.71958 7.797V6.438ZM18.1196 17.938C17.994 18.2095 17.8083 18.4488 17.5765 18.6379C17.3446 18.8269 17.0728 18.9607 16.7816 19.029C14.6066 19.5171 12.3825 19.752 10.1536 19.729C7.92465 19.752 5.70053 19.5171 3.52558 19.029C3.23436 18.9607 2.96253 18.8269 2.7307 18.6379C2.49888 18.4488 2.31314 18.2095 2.18758 17.938C2.05774 17.662 1.99251 17.3601 1.99684 17.0551C2.00118 16.7501 2.07496 16.4502 2.21258 16.178C2.65398 15.3351 3.30956 14.6233 4.11338 14.1143C4.9172 13.6052 5.84091 13.3168 6.79158 13.278C7.80115 13.9042 8.96556 14.2361 10.1536 14.2361C11.3416 14.2361 12.506 13.9042 13.5156 13.278C14.4663 13.3167 15.39 13.605 16.1939 14.1141C16.9977 14.6232 17.6533 15.3351 18.0946 16.178C18.2335 16.4499 18.3083 16.7499 18.3134 17.0551C18.3184 17.3604 18.2535 17.6627 18.1236 17.939L18.1196 17.938Z" fill="black"/>
</svg>
