<svg width="21" height="18" viewBox="0 0 21 18" fill="none" xmlns="http://www.w3.org/2000/svg">
<path d="M1.41992 0H19.4199C19.6851 0 19.9395 0.105357 20.127 0.292893C20.3146 0.48043 20.4199 0.734784 20.4199 1V17C20.4199 17.2652 20.3146 17.5196 20.127 17.7071C19.9395 17.8946 19.6851 18 19.4199 18H1.41992C1.15471 18 0.900351 17.8946 0.712815 17.7071C0.525279 17.5196 0.419922 17.2652 0.419922 17V1C0.419922 0.734784 0.525279 0.48043 0.712815 0.292893C0.900351 0.105357 1.15471 0 1.41992 0ZM18.4199 8H2.41992V16H18.4199V8ZM18.4199 6V2H2.41992V6H18.4199ZM12.4199 12H16.4199V14H12.4199V12Z" fill="black"/>
</svg>
