<svg width="19" height="19" viewBox="0 0 19 19" fill="none" xmlns="http://www.w3.org/2000/svg">
<path d="M9.50017 18C4.81307 18 1 14.1869 1 9.49983C1 4.81307 4.81307 1 9.50017 1C14.1869 1 18 4.81307 18 9.49983C18 14.1869 14.1869 18 9.50017 18ZM9.50017 1.68322C5.19004 1.68322 1.68322 5.1897 1.68322 9.49983C1.68322 13.81 5.19004 17.3168 9.50017 17.3168C13.8103 17.3168 17.3168 13.81 17.3168 9.49983C17.3168 5.1897 13.8103 1.68322 9.50017 1.68322Z" fill="black" stroke="black" stroke-width="0.25"/>
<path d="M3.73126 15.6104C3.64385 15.6104 3.55645 15.5771 3.48973 15.5103C3.35629 15.3769 3.35629 15.1607 3.48973 15.0273L9.15862 9.35839V1.34161C9.15862 1.15279 9.31141 1 9.50023 1C9.68905 1 9.84184 1.15279 9.84184 1.34161V9.49983C9.84184 9.59057 9.80581 9.67731 9.74176 9.74136L3.97278 15.5103C3.90606 15.5771 3.81866 15.6104 3.73126 15.6104Z" fill="black" stroke="black" stroke-width="0.25"/>
<path d="M16.8545 13.3667C16.8051 13.3667 16.7547 13.356 16.707 13.333L9.3521 9.80784C9.18197 9.72644 9.11024 9.52228 9.19197 9.35214C9.27337 9.18234 9.4762 9.10894 9.64767 9.19201L17.0026 12.7172C17.1727 12.7986 17.2444 13.0027 17.1627 13.1729C17.104 13.2953 16.9819 13.3667 16.8545 13.3667Z" fill="black" stroke="black" stroke-width="0.25"/>
<path d="M9.50017 9.60155H1.34161C1.15279 9.60155 1 9.44876 1 9.25994C1 9.07112 1.15279 8.91833 1.34161 8.91833H9.50017C9.68899 8.91833 9.84178 9.07112 9.84178 9.25994C9.84178 9.44876 9.68899 9.60155 9.50017 9.60155Z" fill="black" stroke="black" stroke-width="0.25"/>
</svg>
