<svg width="20" height="20" viewBox="0 0 20 20" fill="none" xmlns="http://www.w3.org/2000/svg">
<path d="M17.0539 2.93115C15.6572 1.532 13.8774 0.578972 11.9396 0.192611C10.0018 -0.19375 7.99314 0.00391668 6.16759 0.760608C4.34204 1.5173 2.78166 2.79902 1.68382 4.44365C0.58598 6.08827 0 8.02192 0 10C0 11.9781 0.58598 13.9117 1.68382 15.5564C2.78166 17.201 4.34204 18.4827 6.16759 19.2394C7.99314 19.9961 10.0018 20.1937 11.9396 19.8074C13.8774 19.421 15.6572 18.468 17.0539 17.0688C17.9873 16.144 18.7282 15.0431 19.2339 13.8298C19.7396 12.6164 20 11.3147 20 10C20 8.68527 19.7396 7.38359 19.2339 6.17025C18.7282 4.9569 17.9873 3.85598 17.0539 2.93115ZM15.7806 15.8009C14.6368 16.9421 13.1809 17.7183 11.5967 18.0317C10.0125 18.345 8.37113 18.1813 6.87979 17.5614C5.38845 16.9414 4.11405 15.893 3.2175 14.5484C2.32095 13.2038 1.84247 11.6234 1.84247 10.0068C1.84247 8.39018 2.32095 6.8098 3.2175 5.46523C4.11405 4.12066 5.38845 3.0722 6.87979 2.45224C8.37113 1.83229 10.0125 1.66864 11.5967 1.98197C13.1809 2.29529 14.6368 3.07154 15.7806 4.21268C16.5423 4.97263 17.1467 5.87564 17.5591 6.86992C17.9715 7.86421 18.1838 8.93022 18.1838 10.0068C18.1838 11.0834 17.9715 12.1494 17.5591 13.1437C17.1467 14.138 16.5423 15.041 15.7806 15.8009ZM10.8986 10.3885V5.39877C10.8986 5.16013 10.8039 4.93127 10.6354 4.76252C10.4668 4.59378 10.2382 4.49898 9.99987 4.49898C9.7615 4.49898 9.53289 4.59378 9.36434 4.76252C9.19579 4.93127 9.1011 5.16013 9.1011 5.39877V10.2181L6.71118 12.6108C6.62677 12.6933 6.55969 12.7919 6.5139 12.9008C6.4681 13.0096 6.44451 13.1266 6.44451 13.2447C6.44451 13.3628 6.4681 13.4798 6.5139 13.5886C6.55969 13.6975 6.62677 13.7961 6.71118 13.8787C6.79348 13.9633 6.89197 14.0304 7.00077 14.0761C7.10956 14.1218 7.22643 14.145 7.3444 14.1445C7.58231 14.1433 7.81002 14.0477 7.97763 13.8787L10.6331 11.2202C10.727 11.1239 10.7984 11.0079 10.842 10.8805C10.8855 10.7532 10.9003 10.6177 10.885 10.484C10.8934 10.4528 10.8979 10.4208 10.8986 10.3885Z" fill="white"/>
</svg>
