<svg width="22" height="22" viewBox="0 0 22 22" fill="none" xmlns="http://www.w3.org/2000/svg">
<path d="M17.5625 9.59375C17.4796 9.59375 17.4001 9.62667 17.3415 9.68528C17.2829 9.74388 17.25 9.82337 17.25 9.90625V19.2812C17.25 19.8844 16.8297 20.375 16.3125 20.375H2.53437C2.03281 20.375 1.625 19.8719 1.625 19.2547V6.80156C1.625 6.19688 2.05469 5.6875 2.5625 5.6875H9.28125C9.36413 5.6875 9.44362 5.65458 9.50222 5.59597C9.56083 5.53737 9.59375 5.45788 9.59375 5.375C9.59375 5.29212 9.56083 5.21263 9.50222 5.15403C9.44362 5.09542 9.36413 5.0625 9.28125 5.0625H2.5625C1.70156 5.0625 1 5.84375 1 6.80156V19.2547C1 20.2188 1.68906 21 2.53437 21H16.3125C17.1734 21 17.875 20.2297 17.875 19.2812V9.90625C17.875 9.82337 17.8421 9.74388 17.7835 9.68528C17.7249 9.62667 17.6454 9.59375 17.5625 9.59375Z" fill="white" stroke="white" stroke-width="0.5"/>
<path d="M6.46875 9.32351C6.42129 9.35091 6.38187 9.39031 6.35445 9.43775C6.32702 9.4852 6.31256 9.53902 6.3125 9.59382V16.4688C6.3131 16.5231 6.32782 16.5763 6.35522 16.6231C6.38262 16.67 6.42175 16.7089 6.46875 16.736C6.51543 16.7649 6.56889 16.7809 6.62374 16.7826C6.6786 16.7842 6.73293 16.7714 6.78125 16.7454L13.3437 13.3079C13.3941 13.2814 13.4363 13.2416 13.4658 13.1929C13.4952 13.1441 13.5108 13.0883 13.5108 13.0313C13.5108 12.9744 13.4952 12.9185 13.4658 12.8698C13.4363 12.821 13.3941 12.7813 13.3437 12.7548L6.78125 9.31726C6.7332 9.29077 6.67902 9.27741 6.62416 9.2785C6.56931 9.2796 6.51571 9.29512 6.46875 9.32351ZM6.9375 10.1048L12.5141 13.0313L6.9375 15.9485V10.1048Z" fill="white" stroke="white" stroke-width="0.5"/>
<path d="M20.9281 6.11406L16.8062 1.12031C16.7768 1.08504 16.74 1.05667 16.6984 1.03722C16.6569 1.01778 16.6115 1.00774 16.5656 1.00781L10.0906 1C10.0314 1.00015 9.97354 1.01708 9.92363 1.04883C9.87373 1.08058 9.83386 1.12584 9.80865 1.17935C9.78345 1.23287 9.77395 1.29243 9.78127 1.35113C9.78858 1.40983 9.8124 1.46524 9.84996 1.51094L11.1812 3.12344C11.1746 3.13278 11.1688 3.14272 11.164 3.15313L10.375 4.82344C9.94215 5.74219 11.125 7.67188 13.1234 8.61406C13.9048 8.98594 14.7581 9.18221 15.6234 9.18906C15.7453 9.18906 15.8687 9.18906 15.989 9.17656C16.8984 9.10938 17.5734 8.79219 17.7937 8.32656L18.575 6.65469C18.575 6.64531 18.575 6.63438 18.5859 6.62344H20.6875C20.7466 6.62329 20.8045 6.60636 20.8544 6.57461C20.9043 6.54286 20.9442 6.4976 20.9694 6.44408C20.9946 6.39057 21.0041 6.331 20.9968 6.27231C20.9895 6.21361 20.9656 6.15819 20.9281 6.1125V6.11406ZM17.2312 8.05937C17.1375 8.25938 16.6953 8.49844 15.9468 8.55312C15.0661 8.60158 14.1873 8.42861 13.3906 8.05C11.6046 7.20625 10.7078 5.58281 10.9406 5.09062L11.625 3.65625L13.9687 6.50469C13.9979 6.54025 14.0347 6.56891 14.0763 6.58863C14.1179 6.60835 14.1633 6.61863 14.2093 6.61875H17.9062L17.2312 8.05937ZM14.3593 6L10.7546 1.625H16.4187L20.0234 6H14.3593Z" fill="white" stroke="white" stroke-width="0.5"/>
</svg>
